<?xml version="1.0" encoding="utf-8"?>
<!-- Generator: Adobe Illustrator 19.0.0, SVG Export Plug-In . SVG Version: 6.00 Build 0)  -->
<svg version="1.1" id="레이어_1" xmlns="http://www.w3.org/2000/svg" xmlns:xlink="http://www.w3.org/1999/xlink" x="0px"
	 y="0px" viewBox="0 0 41 16.6" style="enable-background:new 0 0 41 16.6;" xml:space="preserve">
<style type="text/css">
	.st0{fill:#5C85C4;}
	.st1{fill:#F1A935;}
	.st2{fill:#E7645E;}
	.st3{fill:#A0BE3D;}
</style>
<g id="XMLID_100_">
	<path id="XMLID_196_" class="st0" d="M11.9,6.8c-1.1,0.8-1.8,1.9-2.1,3.3C10.1,8.8,10.9,7.6,11.9,6.8C11.3,4.6,9.2,3,6.6,3H1.7
		v10.5h4.9c1.3,0,2.4-0.4,3.3-1.1l0,0c1.3-1,2.2-2.5,2.2-4.2C12.1,7.8,12.1,7.3,11.9,6.8z M6.6,10.3H5.1V6.2h1.6
		c1.2,0,2.1,0.9,2.1,2.1C8.8,9.4,7.8,10.3,6.6,10.3z M9.8,11.2L9.8,11.2c0,0.1,0,0.1,0,0.2C9.8,11.3,9.8,11.2,9.8,11.2z"/>
	<g id="XMLID_186_">
		<path id="XMLID_189_" class="st1" d="M27,4.1C27,4.1,27,4.1,27,4.1C27,4.1,27,4.1,27,4.1C27,4,27,4,27,4.1L27,0.6h-3.3v5.4
			c0,0.9-0.8,1.6-1.7,1.6c-0.9,0-1.7-0.7-1.7-1.6V0.6h-3.3v5.4v0v0c0,0,0,0,0,0c2,0.7,3.4,2.5,3.5,4.6c0,0,0.1,0,0.1,0c0,0,0,0,0,0
			c0,0,0,0,0.1,0c0.4,0.1,0.9,0.2,1.3,0.2c1.2,0,2.2-0.4,3.1-1c0,0,0.1-0.1,0.1-0.1V7.6C25.1,6.1,25.9,4.9,27,4.1"/>
	</g>
	<path id="XMLID_185_" class="st2" d="M35.6,3.1c-1.1,0-2.1,0.4-2.9,1c-0.8-0.6-1.8-1-2.9-1c-1,0-1.9,0.3-2.6,0.8c0,0-0.1,0-0.1,0.1
		v0c0,0,0,0-0.1,0c0,0,0,0,0,0c0,0,0,0,0,0c-1.1,0.8-1.8,2.1-1.8,3.5v2.3c0,0,0,0,0.1-0.1l0,0l0,0c0,0,0,0-0.1,0.1v3.7h3.3v-6
		c0-0.7,0.6-1.2,1.3-1.2c0.7,0,1.3,0.5,1.3,1.2v6h3.3v-6c0-0.7,0.6-1.2,1.3-1.2c0.7,0,1.3,0.5,1.3,1.2v6h3.3v-6
		C40.2,5.1,38.2,3.1,35.6,3.1z"/>
	<path id="XMLID_129_" class="st3" d="M20.4,10.7C20.4,10.7,20.4,10.7,20.4,10.7L20.4,10.7C20.4,10.7,20.4,10.7,20.4,10.7L20.4,10.7
		c-0.1-2.2-1.5-3.9-3.5-4.6v0c0,0-0.1,0-0.1,0c0,0,0,0,0,0c0,0,0,0-0.1,0c-0.5-0.2-1.1-0.2-1.6-0.2c-1.2,0-2.3,0.4-3.2,1
		c0.1,0.4,0.2,0.9,0.2,1.4c0,1.7-0.8,3.2-2.2,4.2c0.6,2.2,2.7,3.9,5.2,3.9c1.2,0,2.2-0.4,3.1-1c0.5,0.4,1.2,0.7,2.2,0.9v-4.9v-0.1
		V11v-0.1C20.5,10.9,20.4,10.8,20.4,10.7z M17.1,11.2c0,1-0.9,1.9-2,1.9c-1.1,0-2-0.9-2-1.9v-0.3c0-1,0.9-1.9,2-1.9
		c1.1,0,2,0.9,2,1.9V11.2z"/>
</g>
</svg>
