<?xml version="1.0" encoding="utf-8"?>
<!-- Generator: Adobe Illustrator 19.0.0, SVG Export Plug-In . SVG Version: 6.00 Build 0)  -->
<svg version="1.1" id="레이어_1" xmlns="http://www.w3.org/2000/svg" xmlns:xlink="http://www.w3.org/1999/xlink" x="0px"
	 y="0px" viewBox="-232 396 137.5 51" style="enable-background:new -232 396 137.5 51;" xml:space="preserve">
<style type="text/css">
	.st0{fill:#C1C1C1;}
	.st1{fill-rule:evenodd;clip-rule:evenodd;fill:#EAA123;}
	.st2{fill:#58595B;}
</style>
<g id="XMLID_628_">
</g>
<g>
	<path class="st0" d="M-609.8,737.4l8.4,0.7l-0.4,0.7l-2.8-0.2l-1.6,2.9l1.6,2.3l-0.4,0.7l-4.9-6.9L-609.8,737.4z M-608.5,738.3
		l1.8,2.5l1.3-2.3L-608.5,738.3z"/>
	<path class="st0" d="M-603,729.4l6.7,3.8l-0.4,0.6l-2.6-1.5c0.2,0.4,0.2,0.9,0.2,1.3s-0.1,0.8-0.4,1.2c-0.4,0.7-1,1.1-1.8,1.4
		c-0.8,0.2-1.5,0.1-2.3-0.3c-0.7-0.4-1.2-1-1.4-1.8c-0.2-0.8-0.1-1.5,0.3-2.2c0.2-0.4,0.5-0.7,0.9-0.9c0.4-0.2,0.8-0.4,1.3-0.4
		l-0.9-0.5L-603,729.4z M-604,732.2c-0.2,0.4-0.3,0.7-0.3,1.1c0,0.4,0.1,0.8,0.3,1.1c0.2,0.4,0.5,0.6,0.8,0.8
		c0.3,0.2,0.7,0.3,1.1,0.3s0.8-0.1,1.1-0.3c0.3-0.2,0.6-0.5,0.8-0.8c0.2-0.3,0.3-0.7,0.3-1.1c0-0.4-0.1-0.8-0.3-1.1
		c-0.2-0.3-0.5-0.6-0.9-0.8c-0.6-0.3-1.2-0.4-1.7-0.2C-603.2,731.3-603.7,731.7-604,732.2z"/>
	<path class="st0" d="M-602.3,728.1l0.4-0.6l2.3,1.3c0.6,0.3,1,0.5,1.2,0.6c0.4,0.1,0.7,0,1-0.1c0.3-0.2,0.6-0.4,0.8-0.8
		c0.2-0.4,0.3-0.7,0.3-1s-0.2-0.6-0.4-0.9c-0.2-0.2-0.5-0.4-1.2-0.8l-2.3-1.3l0.4-0.6l2.4,1.4c0.7,0.4,1.1,0.8,1.4,1.1
		c0.3,0.4,0.4,0.7,0.4,1.2c0,0.4-0.1,0.9-0.4,1.4s-0.6,0.8-1,1c-0.4,0.2-0.8,0.3-1.2,0.3c-0.4,0-1-0.3-1.7-0.7L-602.3,728.1z"/>
	<path class="st0" d="M-596.2,717.5l4.9,2.8l-0.4,0.6l-0.8-0.5c0.2,0.4,0.2,0.9,0.2,1.3c0,0.4-0.1,0.8-0.4,1.2
		c-0.4,0.7-1,1.1-1.8,1.4c-0.8,0.2-1.5,0.1-2.3-0.3c-0.7-0.4-1.2-1-1.4-1.8s-0.1-1.5,0.3-2.2c0.2-0.4,0.5-0.7,0.9-0.9
		c0.4-0.2,0.8-0.4,1.3-0.4l-0.9-0.5L-596.2,717.5z M-597.2,720.3c-0.2,0.4-0.3,0.7-0.3,1.1s0.1,0.8,0.3,1.1c0.2,0.4,0.5,0.6,0.8,0.8
		c0.3,0.2,0.7,0.3,1.1,0.3c0.4,0,0.8-0.1,1.1-0.3c0.3-0.2,0.6-0.5,0.8-0.8c0.2-0.3,0.3-0.7,0.3-1.1s-0.1-0.8-0.3-1.1
		c-0.2-0.3-0.5-0.6-0.9-0.8c-0.6-0.3-1.2-0.4-1.7-0.2C-596.4,719.4-596.9,719.7-597.2,720.3z"/>
	<path class="st0" d="M-595.6,716.3l0.4-0.6l0.7,0.4c-0.2-0.4-0.3-0.7-0.3-1c0-0.3,0-0.6,0.2-0.8c0.1-0.2,0.3-0.3,0.5-0.5l0.3,0.6
		c-0.1,0.1-0.2,0.2-0.3,0.3c-0.1,0.2-0.1,0.5-0.1,0.8c0.1,0.3,0.2,0.6,0.6,0.9c0.2,0.2,0.8,0.6,1.6,1.1l1.7,0.9l-0.4,0.6
		L-595.6,716.3z"/>
	<path class="st0" d="M-595.7,711.9c0.1-0.1,0.2-0.2,0.4-0.3c0.2,0,0.3,0,0.5,0.1c0.1,0.1,0.2,0.2,0.3,0.4c0.1,0.2,0,0.3-0.1,0.5
		c-0.1,0.1-0.2,0.2-0.4,0.3c-0.2,0-0.3,0-0.5-0.1c-0.1-0.1-0.2-0.2-0.3-0.4C-595.8,712.2-595.8,712.1-595.7,711.9z M-593.9,713.4
		l0.4-0.6l4.9,2.8l-0.4,0.6L-593.9,713.4z"/>
	<path class="st0" d="M-590.9,709.3l0.2,0.6c-0.5,0.2-0.9,0.4-1.1,0.7c-0.1,0.2-0.1,0.4-0.1,0.6c0.1,0.2,0.2,0.4,0.3,0.5
		c0.2,0.1,0.3,0.1,0.6,0.1c0.2,0,0.5-0.2,1-0.5s0.9-0.5,1.3-0.6c0.3,0,0.6,0,0.9,0.2c0.4,0.2,0.7,0.6,0.8,1c0.1,0.4,0.1,0.9-0.2,1.3
		c-0.2,0.3-0.4,0.5-0.6,0.7c-0.3,0.2-0.6,0.3-0.9,0.3l-0.2-0.7c0.5-0.1,0.9-0.4,1.1-0.7c0.1-0.3,0.2-0.5,0.1-0.8
		c-0.1-0.3-0.2-0.5-0.4-0.6s-0.4-0.1-0.6-0.1c-0.2,0-0.5,0.2-1,0.5c-0.5,0.3-0.9,0.5-1.2,0.5s-0.6,0-0.9-0.2
		c-0.4-0.2-0.6-0.5-0.7-0.9c-0.1-0.4,0-0.8,0.2-1.2C-592,709.8-591.6,709.5-590.9,709.3z"/>
	<path class="st0" d="M-592.3,706.3l0.4-0.6l1.8,1l0.6-1l0.5,0.3l-0.6,1l4.4,2.5l-0.4,0.6l-4.4-2.5l-0.5,0.9l-0.5-0.3l0.5-0.9
		L-592.3,706.3z"/>
</g>
<g id="XMLID_625_">
	<g id="XMLID_664_">
		<g>
			<path class="st1" d="M-182.2,445.2c-2.6-5.1-5.1-10.1-7.7-15.2c-4.1-8.1-8.2-16.1-12.3-24.2c-0.9-1.8-1.9-3.7-2.8-5.5
				c-0.4-0.8-1.7-0.8-2.1,0c-2.6,5.1-5.1,10.2-7.7,15.3c-4,8-8.1,16.1-12.1,24.1c-0.9,1.8-1.9,3.7-2.8,5.5c-0.7,1.4,1.4,2.6,2.1,1.2
				c2.6-5.1,5.1-10.2,7.7-15.3c0.8-1.6,1.6-3.3,2.5-4.9h22.9c2.5,4.9,5,9.8,7.4,14.7c0.9,1.8,1.9,3.7,2.8,5.5
				C-183.6,447.8-181.5,446.6-182.2,445.2z M-216.2,423.8c2.8-5.6,5.6-11.2,8.4-16.8c0.6-1.2,1.2-2.3,1.7-3.5
				c2.2,4.4,4.4,8.8,6.6,13.1c1.2,2.4,2.4,4.7,3.6,7.1H-216.2z M-206.2,415.3c-1.1,0-2,0.9-2,2c0,1.1,0.9,2,2,2s2-0.9,2-2
				C-204.2,416.1-205.1,415.3-206.2,415.3z"/>
		</g>
	</g>
	<g id="XMLID_654_">
		<path class="st2" d="M-218.7,446v-12.8c0-0.2,0.1-0.4,0.4-0.6c0.2-0.1,0.5-0.2,0.8-0.2c0.3,0,0.6,0.1,0.9,0.2s0.5,0.4,0.6,0.6
			l4.4,10.3l4.3-10.3c0.1-0.3,0.2-0.5,0.5-0.6c0.3-0.2,0.6-0.2,0.9-0.2c0.3,0,0.6,0.1,0.9,0.3c0.3,0.2,0.4,0.4,0.4,0.7V446
			c0,0.3-0.1,0.6-0.4,0.7c-0.3,0.1-0.6,0.1-0.9,0c-0.3-0.1-0.4-0.4-0.4-0.7v-10.7l-4.4,10.5c-0.1,0.4-0.3,0.6-0.5,0.8
			s-0.4,0.1-0.6,0c-0.2-0.1-0.4-0.4-0.5-0.8c0,0-0.8-1.7-2.3-5.3l-2.3-5.4V446c0,0.4-0.1,0.6-0.4,0.8s-0.6,0.1-0.8,0
			C-218.6,446.7-218.7,446.4-218.7,446z"/>
		<path class="st2" d="M-197.8,433c0.2-0.6,0.7-0.9,1.3-0.9c0.7,0,1.1,0.3,1.3,0.9l5.2,12.6c0.1,0.4,0.1,0.7-0.1,0.9
			c-0.2,0.2-0.5,0.3-0.8,0.2c-0.3-0.1-0.6-0.3-0.7-0.6l-1.6-3.9h-6.5l-1.7,3.8c-0.2,0.4-0.4,0.6-0.8,0.7c-0.3,0.1-0.6,0-0.8-0.2
			c-0.2-0.2-0.3-0.5-0.1-0.8L-197.8,433z M-196.4,434l-2.7,6.8h5.3L-196.4,434z"/>
		<path class="st2" d="M-178.2,432.7h9.6c0.3,0,0.6,0,0.7,0.1c0.2,0.1,0.2,0.2,0.2,0.4c0,0.2-0.2,0.5-0.4,0.8l-8.3,11h8.2
			c0.4,0,0.6,0.1,0.8,0.4c0.2,0.2,0.2,0.5,0,0.7c-0.2,0.3-0.4,0.4-0.8,0.4h-10c-0.2,0-0.4,0-0.5,0c-0.1,0-0.2-0.1-0.3-0.2
			c-0.1-0.1-0.1-0.3,0-0.5s0.2-0.5,0.5-0.8l8.1-10.8h-7.7c-0.4,0-0.7-0.1-0.8-0.4c-0.2-0.3-0.1-0.5,0-0.7
			C-178.8,432.8-178.6,432.7-178.2,432.7z"/>
		<path class="st2" d="M-159.1,432.3c1.2,0,2.2,0.2,3.1,0.7s1.6,1,2.2,1.8c0.5,0.7,0.9,1.5,1.2,2.4s0.4,1.8,0.4,2.7
			c-0.1,2.1-0.7,3.8-2,5.1s-2.9,2-4.9,2c-1.9,0-3.5-0.7-4.8-2s-1.9-3-2-5c-0.1-2.1,0.5-3.9,1.7-5.4
			C-162.9,433-161.3,432.3-159.1,432.3z M-159.1,433.8c-0.9,0-1.6,0.2-2.3,0.5c-0.7,0.4-1.2,0.8-1.6,1.4c-0.4,0.6-0.7,1.2-0.9,1.9
			c-0.2,0.7-0.3,1.4-0.2,2.2c0.1,1.7,0.6,3.1,1.5,4s2.1,1.5,3.5,1.5c1.5,0,2.7-0.5,3.6-1.6c0.9-1,1.4-2.4,1.4-4c0-1.1-0.1-2.1-0.5-3
			c-0.3-0.9-0.9-1.6-1.7-2.2C-157,434.1-158,433.8-159.1,433.8z"/>
		<path class="st2" d="M-150.3,433.3c0-0.4,0.1-0.7,0.4-0.9c0.2-0.2,0.5-0.2,0.9-0.1c0.3,0.1,0.6,0.4,0.9,0.7l7.6,10.7v-10.7
			c0-0.4,0.1-0.6,0.4-0.8c0.3-0.1,0.6-0.1,0.9,0c0.3,0.1,0.4,0.4,0.4,0.8V446c0,0.6-0.2,0.9-0.7,0.9c-0.5,0-0.9-0.2-1.3-0.7
			l-7.8-10.9V446c0,0.3-0.1,0.6-0.4,0.7c-0.3,0.1-0.6,0.1-0.9,0c-0.3-0.1-0.4-0.4-0.4-0.7V433.3z"/>
	</g>
	<g id="XMLID_1_">
	</g>
</g>
<g>
	<path class="st2" d="M-182.3,418.7c-0.3,0-0.6-0.1-0.8-0.2c-0.2-0.1-0.5-0.3-0.6-0.5c-0.2-0.2-0.3-0.5-0.4-0.8
		c-0.1-0.3-0.1-0.7-0.1-1.1c0-0.4,0-0.8,0.1-1.1c0.1-0.3,0.2-0.6,0.4-0.8s0.4-0.4,0.6-0.5c0.2-0.1,0.5-0.2,0.8-0.2
		c0.3,0,0.6,0.1,0.8,0.2c0.2,0.1,0.4,0.3,0.6,0.5c0.2,0.2,0.3,0.5,0.4,0.8c0.1,0.3,0.1,0.7,0.1,1.1s0,0.8-0.1,1.1
		c-0.1,0.3-0.2,0.6-0.4,0.8c-0.2,0.2-0.4,0.4-0.6,0.5S-182,418.7-182.3,418.7z M-181.3,416.1c0-0.2,0-0.5-0.1-0.7
		c0-0.2-0.1-0.4-0.2-0.6c-0.1-0.2-0.2-0.3-0.3-0.4c-0.1-0.1-0.3-0.1-0.5-0.1c-0.2,0-0.3,0-0.4,0.1c-0.1,0.1-0.2,0.2-0.3,0.4
		s-0.2,0.4-0.2,0.6c0,0.2-0.1,0.5-0.1,0.7c0,0.2,0,0.5,0.1,0.7s0.1,0.4,0.2,0.6c0.1,0.2,0.2,0.3,0.3,0.4s0.3,0.1,0.4,0.1
		c0.2,0,0.3,0,0.5-0.1s0.2-0.2,0.3-0.4c0.1-0.2,0.2-0.4,0.2-0.6C-181.3,416.6-181.3,416.3-181.3,416.1z M-177.4,416.6
		C-177.4,416.7-177.5,416.7-177.4,416.6l-1.2,0v3.8c0,0,0,0.1,0,0.1s0,0-0.1,0h-0.7c-0.1,0-0.1,0-0.1-0.1v-7.4c0-0.1,0-0.1,0.1-0.1
		h0.7c0,0,0.1,0,0.1,0s0,0,0,0.1v2.8h1.1c0,0,0.1,0,0.1,0c0,0,0,0,0,0.1L-177.4,416.6C-177.4,416.6-177.4,416.6-177.4,416.6z"/>
	<path class="st2" d="M-171,413.8c0,0.5,0,1-0.1,1.5s-0.1,1-0.2,1.4h1.2c0,0,0.1,0,0.1,0s0,0.1,0,0.1v0.5c0,0,0,0.1,0,0.1
		c0,0-0.1,0-0.1,0h-3.1v3c0,0.1,0,0.1-0.1,0.1h-0.7c-0.1,0-0.1,0-0.1-0.1v-3h-3c0,0-0.1,0-0.1,0c0,0,0-0.1,0-0.1v-0.5
		c0,0,0-0.1,0-0.1c0,0,0,0,0.1,0h4.9c0-0.2,0.1-0.3,0.1-0.5c0-0.2,0.1-0.4,0.1-0.6c-0.3,0-0.6,0-0.9,0c-0.3,0-0.7,0-1,0
		c-0.3,0-0.7,0-1,0c-0.3,0-0.7,0-1,0c0,0-0.1,0-0.1,0s0-0.1,0-0.1V415c0-0.1,0-0.1,0.1-0.1c0.3,0,0.7,0,1,0c0.4,0,0.7,0,1.1,0
		c0.4,0,0.7,0,1,0s0.6,0,0.9,0c0-0.2,0-0.5,0-0.7c0-0.1,0-0.1-0.1-0.1c0,0-0.1,0-0.2,0h-3.9c0,0-0.1,0-0.1,0c0,0,0,0,0-0.1v-0.6
		c0,0,0-0.1,0-0.1c0,0,0.1,0,0.1,0h4.5c0.2,0,0.3,0,0.4,0.1C-171,413.4-171,413.6-171,413.8z"/>
	<path class="st2" d="M-167.3,418.7c-0.3,0-0.6-0.1-0.8-0.2c-0.2-0.1-0.5-0.3-0.6-0.5c-0.2-0.2-0.3-0.5-0.4-0.8
		c-0.1-0.3-0.1-0.7-0.1-1.1c0-0.4,0-0.8,0.1-1.1c0.1-0.3,0.2-0.6,0.4-0.8s0.4-0.4,0.6-0.5c0.2-0.1,0.5-0.2,0.8-0.2
		c0.3,0,0.6,0.1,0.8,0.2c0.2,0.1,0.4,0.3,0.6,0.5c0.2,0.2,0.3,0.5,0.4,0.8s0.1,0.7,0.1,1.1s0,0.8-0.1,1.1s-0.2,0.6-0.4,0.8
		c-0.2,0.2-0.4,0.4-0.6,0.5C-166.7,418.6-167,418.7-167.3,418.7z M-166.2,416.1c0-0.2,0-0.5-0.1-0.7c0-0.2-0.1-0.4-0.2-0.6
		s-0.2-0.3-0.3-0.4c-0.1-0.1-0.3-0.1-0.5-0.1c-0.2,0-0.3,0-0.4,0.1c-0.1,0.1-0.2,0.2-0.3,0.4s-0.2,0.4-0.2,0.6
		c0,0.2-0.1,0.5-0.1,0.7c0,0.2,0,0.5,0.1,0.7s0.1,0.4,0.2,0.6c0.1,0.2,0.2,0.3,0.3,0.4s0.3,0.1,0.4,0.1c0.2,0,0.3,0,0.5-0.1
		c0.1-0.1,0.2-0.2,0.3-0.4c0.1-0.2,0.2-0.4,0.2-0.6S-166.2,416.3-166.2,416.1z M-162.4,416.6C-162.4,416.7-162.4,416.7-162.4,416.6
		l-1.2,0v3.8c0,0,0,0.1,0,0.1c0,0,0,0-0.1,0h-0.7c-0.1,0-0.1,0-0.1-0.1v-7.4c0-0.1,0-0.1,0.1-0.1h0.7c0,0,0.1,0,0.1,0c0,0,0,0,0,0.1
		v2.8h1.1c0,0,0.1,0,0.1,0c0,0,0,0,0,0.1L-162.4,416.6C-162.3,416.6-162.3,416.6-162.4,416.6z"/>
	<path class="st2" d="M-157.2,418.4c0,0-0.1,0-0.1,0.1c-0.2,0-0.3,0.1-0.5,0.1s-0.4,0.1-0.6,0.1c-0.2,0-0.5,0-0.7,0.1
		c-0.2,0-0.5,0-0.7,0c-0.2,0-0.4,0-0.6,0s-0.3,0-0.4,0c-0.2,0-0.4-0.1-0.5-0.2s-0.1-0.2-0.1-0.4v-1.9c0-0.2,0-0.3,0.1-0.4
		c0.1-0.1,0.2-0.1,0.4-0.1h1.9c0,0,0.1,0,0.1,0c0,0,0,0,0-0.1v-1.1c0,0,0-0.1,0-0.1c0,0,0,0-0.1,0h-2.3c0,0-0.1,0-0.1,0s0,0,0-0.1
		v-0.6c0,0,0,0,0-0.1c0,0,0,0,0.1,0h2.8c0.2,0,0.4,0,0.4,0.1c0.1,0.1,0.1,0.2,0.1,0.4v1.8c0,0.2,0,0.3-0.1,0.4
		c-0.1,0.1-0.2,0.1-0.4,0.1h-1.9c-0.1,0-0.1,0-0.1,0.1v1.3c0,0.1,0,0.1,0,0.1c0,0,0.1,0,0.1,0c0.2,0,0.5,0,0.7,0c0.3,0,0.5,0,0.8,0
		c0.3,0,0.5,0,0.8-0.1c0.2,0,0.5-0.1,0.7-0.1c0,0,0.1,0,0.1,0c0,0,0.1,0.1,0.1,0.1L-157.2,418.4
		C-157.1,418.3-157.1,418.4-157.2,418.4z M-155.7,420.5c0,0.1,0,0.1-0.1,0.1h-0.7c-0.1,0-0.1,0-0.1-0.1v-7.4c0-0.1,0-0.1,0.1-0.1
		h0.7c0.1,0,0.1,0,0.1,0.1V420.5z"/>
	<path class="st2" d="M-147.4,418.5C-147.4,418.5-147.4,418.6-147.4,418.5l0,0.6c0,0,0,0.1,0,0.1c0,0-0.1,0-0.1,0h-7
		c0,0-0.1,0-0.1,0c0,0,0-0.1,0-0.1v-0.5c0-0.1,0-0.1,0.1-0.1L-147.4,418.5C-147.5,418.5-147.5,418.5-147.4,418.5z M-153.6,417.1
		C-153.7,417.1-153.7,417.1-153.6,417.1c-0.1,0-0.2,0-0.2-0.1l-0.3-0.5c0,0,0-0.1,0-0.1c0,0,0-0.1,0.1-0.1c0.4-0.1,0.8-0.3,1.1-0.5
		c0.3-0.2,0.6-0.4,0.8-0.6c0.2-0.2,0.4-0.5,0.5-0.8c0.1-0.3,0.2-0.6,0.2-1c0,0,0-0.1,0-0.1c0,0,0-0.1,0.1,0l0.7,0
		c0.1,0,0.1,0.1,0.1,0.2c0,0.1,0,0.3,0,0.4c0.1,0.3,0.2,0.5,0.3,0.7c0.2,0.2,0.4,0.4,0.6,0.6c0.2,0.2,0.5,0.4,0.8,0.5
		c0.3,0.1,0.6,0.3,0.9,0.4c0,0,0.1,0,0.1,0.1s0,0.1,0,0.1l-0.3,0.5c0,0.1-0.1,0.1-0.2,0.1c-0.2-0.1-0.5-0.2-0.7-0.3
		s-0.5-0.3-0.7-0.4c-0.2-0.2-0.4-0.3-0.6-0.5c-0.2-0.2-0.4-0.4-0.5-0.6c-0.3,0.5-0.6,0.9-1.1,1.2
		C-152.5,416.7-153,416.9-153.6,417.1z"/>
	<path class="st2" d="M-139.9,418.5C-139.9,418.5-139.9,418.6-139.9,418.5l0,0.6c0,0,0,0.1,0,0.1c0,0-0.1,0-0.1,0h-7
		c0,0-0.1,0-0.1,0c0,0,0-0.1,0-0.1v-0.5c0-0.1,0-0.1,0.1-0.1L-139.9,418.5C-140,418.5-139.9,418.5-139.9,418.5z M-140.9,417.3
		C-140.9,417.3-141,417.3-140.9,417.3l-4.5,0c-0.2,0-0.4,0-0.4-0.1c-0.1-0.1-0.1-0.2-0.1-0.4V414c0-0.2,0-0.3,0.1-0.4
		c0.1-0.1,0.2-0.1,0.4-0.1h4.4c0.1,0,0.1,0,0.1,0.1v0.5c0,0.1,0,0.1-0.1,0.1h-3.9c-0.1,0-0.1,0-0.1,0.1v0.7h3.9c0,0,0.1,0,0.1,0
		c0,0,0,0,0,0.1v0.5c0,0,0,0.1,0,0.1c0,0,0,0-0.1,0h-3.9v0.7c0,0.1,0,0.1,0,0.1c0,0,0.1,0,0.1,0h3.9c0,0,0.1,0,0.1,0s0,0,0,0.1
		L-140.9,417.3C-140.9,417.2-140.9,417.2-140.9,417.3z"/>
</g>
<g>
	<path class="st2" d="M-128.6,437.5C-128.6,437.5-128.6,437.5-128.6,437.5C-128.7,437.5-128.7,437.5-128.6,437.5l-0.1-0.4
		c-0.1,0.2-0.3,0.3-0.5,0.4c-0.2,0.1-0.4,0.1-0.6,0.1c-0.2,0-0.4,0-0.6-0.1c-0.2-0.1-0.3-0.1-0.5-0.3s-0.2-0.3-0.3-0.4
		c-0.1-0.2-0.1-0.4-0.1-0.6c0-0.3,0-0.5,0.1-0.7c0.1-0.2,0.2-0.4,0.5-0.5c0.2-0.1,0.5-0.2,0.8-0.3c0.3-0.1,0.7-0.1,1.2-0.1
		c0-0.1,0-0.2,0-0.3c0-0.1-0.1-0.2-0.1-0.3c-0.1-0.1-0.1-0.1-0.2-0.2c-0.1,0-0.2-0.1-0.3-0.1c-0.2,0-0.5,0-0.7,0.1
		c-0.2,0.1-0.4,0.1-0.5,0.3c-0.1,0.1-0.1,0.1-0.2,0.1c0,0,0,0,0-0.1v-0.6c0,0,0,0,0-0.1c0,0,0,0,0-0.1c0,0,0.1-0.1,0.1-0.1
		c0.2-0.1,0.4-0.2,0.6-0.2c0.2-0.1,0.4-0.1,0.7-0.1c0.5,0,0.9,0.1,1.2,0.4c0.3,0.3,0.4,0.7,0.4,1.2v1.9c0,0.1,0,0.3,0,0.5
		c0,0.2,0,0.3,0,0.4c0,0.1,0,0.1-0.1,0.1H-128.6z M-130,435.6c-0.3,0.1-0.4,0.4-0.4,0.6c0,0.2,0.1,0.4,0.2,0.5s0.3,0.2,0.5,0.2
		c0.3,0,0.5-0.1,0.7-0.3c0.2-0.2,0.3-0.6,0.3-1v-0.1C-129.3,435.4-129.7,435.5-130,435.6z"/>
	<path class="st2" d="M-123.8,438.8C-123.8,438.8-123.9,438.8-123.8,438.8c-0.1,0-0.1-0.1-0.1-0.1v-1.4c-0.1,0.2-0.3,0.3-0.5,0.4
		c-0.2,0.1-0.4,0.1-0.6,0.1c-0.3,0-0.5-0.1-0.8-0.2s-0.4-0.3-0.6-0.5s-0.3-0.4-0.4-0.7c-0.1-0.3-0.1-0.6-0.1-1c0-0.4,0-0.7,0.1-1
		s0.2-0.5,0.4-0.7c0.2-0.2,0.3-0.4,0.6-0.5c0.2-0.1,0.5-0.2,0.8-0.2c0.2,0,0.4,0,0.6,0.1c0.2,0.1,0.4,0.2,0.5,0.4v-0.3
		c0-0.1,0-0.1,0.1-0.1h0.6c0,0,0.1,0,0.1,0s0,0.1,0,0.1v5.4c0,0,0,0.1,0,0.1c0,0,0,0-0.1,0H-123.8z M-124.9,433.9
		c-0.3,0-0.6,0.1-0.7,0.4c-0.2,0.3-0.3,0.6-0.3,1.2c0,0.5,0.1,0.9,0.3,1.1c0.2,0.3,0.4,0.4,0.8,0.4c0.3,0,0.6-0.1,0.7-0.4
		s0.3-0.6,0.3-1.2c0-0.3,0-0.5-0.1-0.7c-0.1-0.2-0.1-0.4-0.2-0.5c-0.1-0.1-0.2-0.2-0.3-0.3C-124.7,433.9-124.8,433.9-124.9,433.9z"
		/>
	<path class="st2" d="M-119,437.5C-119,437.5-119,437.5-119,437.5C-119.1,437.5-119.1,437.5-119,437.5l-0.1-0.4
		c-0.1,0.2-0.3,0.3-0.5,0.4s-0.4,0.1-0.6,0.1c-0.5,0-0.9-0.2-1.2-0.5c-0.3-0.3-0.4-0.7-0.4-1.3v-2.7c0,0,0-0.1,0-0.1c0,0,0,0,0.1,0
		h0.7c0,0,0.1,0,0.1,0c0,0,0,0.1,0,0.1v2.5c0,0.4,0.1,0.7,0.2,0.8c0.1,0.2,0.3,0.2,0.6,0.2c0.3,0,0.5-0.1,0.7-0.3
		c0.2-0.2,0.3-0.5,0.3-1v-2.3c0,0,0-0.1,0-0.1c0,0,0,0,0.1,0h0.7c0,0,0,0,0.1,0s0,0.1,0,0.1v3.3c0,0.2,0,0.3,0,0.5
		c0,0.2,0,0.3,0,0.4c0,0.1,0,0.1-0.1,0.1H-119z"/>
	<path class="st2" d="M-114.5,437.5C-114.6,437.5-114.6,437.5-114.5,437.5C-114.6,437.5-114.6,437.5-114.5,437.5l-0.1-0.4
		c-0.1,0.2-0.3,0.3-0.5,0.4c-0.2,0.1-0.4,0.1-0.6,0.1c-0.2,0-0.4,0-0.6-0.1c-0.2-0.1-0.3-0.1-0.5-0.3s-0.2-0.3-0.3-0.4
		c-0.1-0.2-0.1-0.4-0.1-0.6c0-0.3,0-0.5,0.1-0.7c0.1-0.2,0.2-0.4,0.5-0.5c0.2-0.1,0.5-0.2,0.8-0.3c0.3-0.1,0.7-0.1,1.2-0.1
		c0-0.1,0-0.2,0-0.3c0-0.1-0.1-0.2-0.1-0.3c-0.1-0.1-0.1-0.1-0.2-0.2c-0.1,0-0.2-0.1-0.3-0.1c-0.2,0-0.5,0-0.7,0.1
		c-0.2,0.1-0.4,0.1-0.5,0.3c-0.1,0.1-0.1,0.1-0.2,0.1c0,0,0,0,0-0.1v-0.6c0,0,0,0,0-0.1c0,0,0,0,0-0.1c0,0,0.1-0.1,0.1-0.1
		c0.2-0.1,0.4-0.2,0.6-0.2c0.2-0.1,0.4-0.1,0.7-0.1c0.5,0,0.9,0.1,1.2,0.4c0.3,0.3,0.4,0.7,0.4,1.2v1.9c0,0.1,0,0.3,0,0.5
		c0,0.2,0,0.3,0,0.4c0,0.1,0,0.1-0.1,0.1H-114.5z M-115.9,435.6c-0.3,0.1-0.4,0.4-0.4,0.6c0,0.2,0.1,0.4,0.2,0.5s0.3,0.2,0.5,0.2
		c0.3,0,0.5-0.1,0.7-0.3c0.2-0.2,0.3-0.6,0.3-1v-0.1C-115.3,435.4-115.7,435.5-115.9,435.6z"/>
	<path class="st2" d="M-110.5,433.9c-0.1,0-0.2,0-0.3-0.1c-0.1,0-0.1,0-0.2,0c-0.2,0-0.3,0.1-0.4,0.2c-0.1,0.1-0.2,0.2-0.2,0.4
		s-0.1,0.3-0.1,0.4c0,0.2,0,0.3,0,0.5v2.1c0,0.1,0,0.1-0.1,0.1h-0.7c-0.1,0-0.1,0-0.1-0.1v-3.2c0-0.2,0-0.3,0-0.5c0-0.2,0-0.3,0-0.4
		c0,0,0-0.1,0-0.1c0,0,0,0,0.1,0h0.7c0,0,0.1,0,0.1,0s0,0,0,0.1v0.4c0-0.1,0.1-0.1,0.1-0.2s0.1-0.1,0.2-0.2c0.1-0.1,0.1-0.1,0.2-0.1
		c0.1,0,0.1,0,0.2,0c0.1,0,0.2,0,0.3,0c0.1,0,0.2,0,0.3,0.1c0,0,0,0,0,0.1c0,0,0,0,0,0.1v0.6C-110.3,433.8-110.3,433.9-110.5,433.9
		C-110.4,433.9-110.4,433.9-110.5,433.9z"/>
	<path class="st2" d="M-109.3,432.3c-0.2,0-0.3-0.1-0.4-0.2c-0.1-0.1-0.2-0.2-0.2-0.4c0-0.2,0.1-0.3,0.2-0.4
		c0.1-0.1,0.2-0.2,0.4-0.2c0.2,0,0.3,0.1,0.4,0.2c0.1,0.1,0.2,0.2,0.2,0.4c0,0.2-0.1,0.3-0.2,0.4
		C-109,432.2-109.2,432.3-109.3,432.3z M-109.7,437.6C-109.7,437.6-109.7,437.5-109.7,437.6C-109.8,437.5-109.8,437.5-109.7,437.6
		l-0.1-4.3c0,0,0,0,0-0.1c0,0,0,0,0.1,0h0.7c0,0,0,0,0.1,0s0,0,0,0.1v4.2c0,0,0,0,0,0.1s0,0-0.1,0H-109.7z"/>
	<path class="st2" d="M-104.9,437.5C-105,437.5-105,437.5-104.9,437.5C-105,437.5-105,437.5-104.9,437.5l-0.1-0.4
		c-0.1,0.2-0.3,0.3-0.5,0.4s-0.4,0.1-0.6,0.1c-0.5,0-0.9-0.2-1.2-0.5c-0.3-0.3-0.4-0.7-0.4-1.3v-2.7c0,0,0-0.1,0-0.1c0,0,0,0,0.1,0
		h0.7c0,0,0.1,0,0.1,0c0,0,0,0.1,0,0.1v2.5c0,0.4,0.1,0.7,0.2,0.8c0.1,0.2,0.3,0.2,0.6,0.2c0.3,0,0.5-0.1,0.7-0.3
		c0.2-0.2,0.3-0.5,0.3-1v-2.3c0,0,0-0.1,0-0.1c0,0,0,0,0.1,0h0.7c0,0,0,0,0.1,0s0,0.1,0,0.1v3.3c0,0.2,0,0.3,0,0.5
		c0,0.2,0,0.3,0,0.4c0,0.1,0,0.1-0.1,0.1H-104.9z"/>
	<path class="st2" d="M-97.7,437.5C-97.7,437.5-97.7,437.5-97.7,437.5c-0.1-0.1-0.1-0.1-0.1-0.1v-2.8c0-0.3-0.1-0.5-0.2-0.6
		s-0.3-0.2-0.5-0.2c-0.2,0-0.3,0-0.4,0.1c-0.1,0.1-0.2,0.2-0.3,0.3c-0.1,0.1-0.2,0.3-0.2,0.4c0,0.2-0.1,0.3-0.1,0.5v2.3
		c0,0.1,0,0.1-0.1,0.1h-0.7c0,0,0,0-0.1,0c0,0,0,0,0-0.1v-2.8c0-0.6-0.2-0.8-0.7-0.8c-0.3,0-0.5,0.1-0.7,0.3
		c-0.2,0.2-0.3,0.4-0.3,0.8v2.6c0,0.1,0,0.1-0.1,0.1h-0.7c0,0,0,0-0.1,0c0,0,0,0,0-0.1v-3.2c0-0.2,0-0.4,0-0.6c0-0.2,0-0.3,0-0.4
		c0-0.1,0-0.1,0.1-0.1h0.7c0,0,0.1,0,0.1,0.1l0,0.3c0.1-0.1,0.3-0.2,0.4-0.3s0.4-0.1,0.6-0.1c0.3,0,0.5,0.1,0.8,0.2
		c0.2,0.1,0.4,0.3,0.5,0.6c0.1-0.3,0.3-0.4,0.5-0.6c0.2-0.1,0.5-0.2,0.8-0.2c0.5,0,0.8,0.1,1.1,0.4c0.3,0.3,0.4,0.6,0.4,1.1v2.9
		c0,0,0,0.1,0,0.1c0,0,0,0-0.1,0H-97.7z"/>
</g>
<g>
	<path class="st2" d="M-129.3,446.1C-129.3,446.1-129.3,446.1-129.3,446.1l-0.8,0c0,0-0.1,0-0.1,0s0,0,0-0.1l-1.5-4.2c0,0,0,0,0-0.1
		s0,0,0.1,0h0.7c0,0,0,0,0.1,0s0,0,0,0.1l1,3l1-3c0,0,0,0,0-0.1s0,0,0.1,0h0.7c0.1,0,0.1,0,0.1,0s0,0,0,0.1L-129.3,446.1
		C-129.3,446.1-129.3,446.1-129.3,446.1z"/>
	<path class="st2" d="M-126.8,440.9c-0.2,0-0.3-0.1-0.4-0.2c-0.1-0.1-0.2-0.2-0.2-0.4c0-0.2,0.1-0.3,0.2-0.4
		c0.1-0.1,0.2-0.2,0.4-0.2c0.2,0,0.3,0.1,0.4,0.2c0.1,0.1,0.2,0.2,0.2,0.4c0,0.2-0.1,0.3-0.2,0.4
		C-126.5,440.8-126.6,440.9-126.8,440.9z M-127.1,446.2C-127.1,446.2-127.2,446.1-127.1,446.2C-127.2,446.1-127.2,446.1-127.1,446.2
		l-0.1-4.3c0,0,0,0,0-0.1c0,0,0,0,0.1,0h0.7c0,0,0,0,0.1,0s0,0,0,0.1v4.2c0,0,0,0,0,0.1s0,0-0.1,0H-127.1z"/>
	<path class="st2" d="M-123.5,446.1C-123.5,446.1-123.5,446.1-123.5,446.1l-0.8,0c0,0-0.1,0-0.1,0s0,0,0-0.1l-1.5-4.2c0,0,0,0,0-0.1
		s0,0,0.1,0h0.7c0,0,0,0,0.1,0s0,0,0,0.1l1,3l1-3c0,0,0,0,0-0.1s0,0,0.1,0h0.7c0.1,0,0.1,0,0.1,0s0,0,0,0.1L-123.5,446.1
		C-123.5,446.1-123.5,446.1-123.5,446.1z"/>
	<path class="st2" d="M-118.9,446.1C-118.9,446.1-119,446.1-118.9,446.1C-119,446.1-119,446.1-118.9,446.1l-0.1-0.4
		c-0.1,0.2-0.3,0.3-0.5,0.4c-0.2,0.1-0.4,0.1-0.6,0.1c-0.2,0-0.4,0-0.6-0.1c-0.2-0.1-0.3-0.1-0.5-0.3s-0.2-0.3-0.3-0.4
		c-0.1-0.2-0.1-0.4-0.1-0.6c0-0.3,0-0.5,0.1-0.7c0.1-0.2,0.2-0.4,0.5-0.5c0.2-0.1,0.5-0.2,0.8-0.3c0.3-0.1,0.7-0.1,1.2-0.1
		c0-0.1,0-0.2,0-0.3c0-0.1-0.1-0.2-0.1-0.3c-0.1-0.1-0.1-0.1-0.2-0.2c-0.1,0-0.2-0.1-0.3-0.1c-0.2,0-0.5,0-0.7,0.1
		c-0.2,0.1-0.4,0.1-0.5,0.3c-0.1,0.1-0.1,0.1-0.2,0.1c0,0,0,0,0-0.1v-0.6c0,0,0,0,0-0.1c0,0,0,0,0-0.1c0,0,0.1-0.1,0.1-0.1
		c0.2-0.1,0.4-0.2,0.6-0.2c0.2-0.1,0.4-0.1,0.7-0.1c0.5,0,0.9,0.1,1.2,0.4c0.3,0.3,0.4,0.7,0.4,1.2v1.9c0,0.1,0,0.3,0,0.5
		c0,0.2,0,0.3,0,0.4c0,0.1,0,0.1-0.1,0.1H-118.9z M-120.3,444.2c-0.3,0.1-0.4,0.4-0.4,0.6c0,0.2,0.1,0.4,0.2,0.5s0.3,0.2,0.5,0.2
		c0.3,0,0.5-0.1,0.7-0.3c0.2-0.2,0.3-0.6,0.3-1V444C-119.6,444-120.1,444.1-120.3,444.2z"/>
	<path class="st2" d="M-114.8,442.5c-0.1,0-0.2,0-0.3-0.1c-0.1,0-0.1,0-0.2,0c-0.2,0-0.3,0.1-0.4,0.2c-0.1,0.1-0.2,0.2-0.2,0.4
		s-0.1,0.3-0.1,0.4c0,0.2,0,0.3,0,0.5v2.1c0,0.1,0,0.1-0.1,0.1h-0.7c-0.1,0-0.1,0-0.1-0.1v-3.2c0-0.2,0-0.3,0-0.5c0-0.2,0-0.3,0-0.4
		c0,0,0-0.1,0-0.1c0,0,0,0,0.1,0h0.7c0,0,0.1,0,0.1,0s0,0,0,0.1v0.4c0-0.1,0.1-0.1,0.1-0.2s0.1-0.1,0.2-0.2c0.1-0.1,0.1-0.1,0.2-0.1
		c0.1,0,0.1,0,0.2,0c0.1,0,0.2,0,0.3,0c0.1,0,0.2,0,0.3,0.1c0,0,0,0,0,0.1c0,0,0,0,0,0.1v0.6C-114.7,442.4-114.7,442.5-114.8,442.5
		C-114.7,442.5-114.8,442.5-114.8,442.5z"/>
	<path class="st2" d="M-113.7,440.9c-0.2,0-0.3-0.1-0.4-0.2c-0.1-0.1-0.2-0.2-0.2-0.4c0-0.2,0.1-0.3,0.2-0.4
		c0.1-0.1,0.2-0.2,0.4-0.2c0.2,0,0.3,0.1,0.4,0.2c0.1,0.1,0.2,0.2,0.2,0.4c0,0.2-0.1,0.3-0.2,0.4
		C-113.4,440.8-113.6,440.9-113.7,440.9z M-114.1,446.2C-114.1,446.2-114.1,446.1-114.1,446.2C-114.1,446.1-114.1,446.1-114.1,446.2
		l-0.1-4.3c0,0,0,0,0-0.1c0,0,0,0,0.1,0h0.7c0,0,0,0,0.1,0s0,0,0,0.1v4.2c0,0,0,0,0,0.1s0,0-0.1,0H-114.1z"/>
	<path class="st2" d="M-109.3,446.1C-109.3,446.1-109.4,446.1-109.3,446.1C-109.4,446.1-109.4,446.1-109.3,446.1l-0.1-0.4
		c-0.1,0.2-0.3,0.3-0.5,0.4s-0.4,0.1-0.6,0.1c-0.5,0-0.9-0.2-1.2-0.5c-0.3-0.3-0.4-0.7-0.4-1.3v-2.7c0,0,0-0.1,0-0.1c0,0,0,0,0.1,0
		h0.7c0,0,0.1,0,0.1,0c0,0,0,0.1,0,0.1v2.5c0,0.4,0.1,0.7,0.2,0.8c0.1,0.2,0.3,0.2,0.6,0.2c0.3,0,0.5-0.1,0.7-0.3
		c0.2-0.2,0.3-0.5,0.3-1v-2.3c0,0,0-0.1,0-0.1c0,0,0,0,0.1,0h0.7c0,0,0,0,0.1,0s0,0.1,0,0.1v3.3c0,0.2,0,0.3,0,0.5
		c0,0.2,0,0.3,0,0.4c0,0.1,0,0.1-0.1,0.1H-109.3z"/>
	<path class="st2" d="M-102.1,446.1C-102.1,446.1-102.1,446.1-102.1,446.1c-0.1-0.1-0.1-0.1-0.1-0.1v-2.8c0-0.3-0.1-0.5-0.2-0.6
		s-0.3-0.2-0.5-0.2c-0.2,0-0.3,0-0.4,0.1c-0.1,0.1-0.2,0.2-0.3,0.3c-0.1,0.1-0.2,0.3-0.2,0.4c0,0.2-0.1,0.3-0.1,0.5v2.3
		c0,0.1,0,0.1-0.1,0.1h-0.7c0,0,0,0-0.1,0c0,0,0,0,0-0.1v-2.8c0-0.6-0.2-0.8-0.7-0.8c-0.3,0-0.5,0.1-0.7,0.3
		c-0.2,0.2-0.3,0.4-0.3,0.8v2.6c0,0.1,0,0.1-0.1,0.1h-0.7c0,0,0,0-0.1,0c0,0,0,0,0-0.1v-3.2c0-0.2,0-0.4,0-0.6c0-0.2,0-0.3,0-0.4
		c0-0.1,0-0.1,0.1-0.1h0.7c0,0,0.1,0,0.1,0.1l0,0.3c0.1-0.1,0.3-0.2,0.4-0.3s0.4-0.1,0.6-0.1c0.3,0,0.5,0.1,0.8,0.2
		c0.2,0.1,0.4,0.3,0.5,0.6c0.1-0.3,0.3-0.4,0.5-0.6c0.2-0.1,0.5-0.2,0.8-0.2c0.5,0,0.8,0.1,1.1,0.4c0.3,0.3,0.4,0.6,0.4,1.1v2.9
		c0,0,0,0.1,0,0.1c0,0,0,0-0.1,0H-102.1z"/>
</g>
</svg>
