<?xml version="1.0" encoding="utf-8"?>
<!-- Generator: Adobe Illustrator 19.0.0, SVG Export Plug-In . SVG Version: 6.00 Build 0)  -->
<svg version="1.1" id="레이어_1" xmlns="http://www.w3.org/2000/svg" xmlns:xlink="http://www.w3.org/1999/xlink" x="0px"
	 y="0px" viewBox="0 0 62.3 16.6" style="enable-background:new 0 0 62.3 16.6;" xml:space="preserve">
<style type="text/css">
	.st0{fill:#8DC63F;}
</style>
<g id="XMLID_27_">
	<polygon id="XMLID_97_" class="st0" points="9,2.5 9,8 5.2,2.5 1.1,2.5 1.1,13.5 5.2,13.5 5.2,7.9 9,13.5 13.1,13.5 13.1,2.5 	"/>
	<path id="XMLID_75_" class="st0" d="M57.1,9.4c1.5-0.4,2.4-1.5,2.4-3.1c0-2.8-2.3-3.7-5.2-3.7c-1.4,0-5.1,0-5.1,0v11h4.1v-3.4
		l2.4,3.4h4.7L57.1,9.4z M55.1,7.1c-0.2,0.2-0.7,0.3-1.1,0.3h-0.9V5.2H54c0.4,0,0.9,0.1,1.1,0.3c0.2,0.2,0.3,0.5,0.3,0.8
		C55.4,6.7,55.3,6.9,55.1,7.1z"/>
	<path id="XMLID_52_" class="st0" d="M39.2,2.5h8.3v2.9h-4.3v1.3h3.9v2.7h-3.9v1.3h4.4v2.9h-8.4V2.5z"/>
	<path id="XMLID_29_" class="st0" d="M23,2.5h-4.7l-4.3,11h4.6l0.4-1.4h3.4l0.4,1.4h4.6L23,2.5z M19.6,9.5l1-3.6h0.1l1,3.6H19.6z"/>
	<polygon id="XMLID_28_" class="st0" points="33.8,2.5 31.8,9.1 31.7,9.1 29.7,2.5 25.2,2.5 29.8,13.5 33.7,13.5 38.3,2.5 	"/>
</g>
</svg>
