<?xml version="1.0" encoding="utf-8"?>
<!-- Generator: Adobe Illustrator 19.0.0, SVG Export Plug-In . SVG Version: 6.00 Build 0)  -->
<svg version="1.1" id="레이어_1" xmlns="http://www.w3.org/2000/svg" xmlns:xlink="http://www.w3.org/1999/xlink" x="0px"
	 y="0px" viewBox="-247 370.9 100 100" style="enable-background:new -247 370.9 100 100;" xml:space="preserve">
<g id="XMLID_342_">
	<g id="XMLID_355_">
		<g id="XMLID_364_">
			<path id="XMLID_86_" d="M-208.8,459.3c-1.8-1.1-0.8-1.5-1.9-3.2c-1.1-1.7-0.9,0.4-1.9,1.9c-0.7,1.1-0.7,1.7-0.7,2
				c2.3,0.2,4.8,0.3,7.4,0.3c0.1,0,0.2,0,0.3,0C-205.8,460.4-207.2,460.3-208.8,459.3z"/>
		</g>
		<g id="XMLID_356_">
			<path id="XMLID_85_" d="M-215.8,455.9c1.2-1.6-0.8-1.7,1.6-4.5c0,0,0,0,0.4-5.7c0.4-5.7,0.5-1,2.3,2.4c1.8,3.4,1,1.5,1,4.5
				s0.8,1.7,3.7,6.1c0.7,1,1.1,1.6,1.3,2c7.6-0.1,14.1-1.7,18.6-3.1c-0.7-0.5-1.4-1-1.9-1.5c-2.1-1.7-3-4.6-3-4.6
				c1.2,0.5,4.1,2.3,6.5,5.5c3.1-1.1,4.8-2,4.8-2s-9.4-25.3-10.5-25.3s-7.4-6.5-7.8-6.5c-0.4,0-1.9-3.2-4.2-3.4
				c-2.3-0.2-3.4-5.1-6.2-5.1c-1.8,0-3.5,1.8-5,3.7c-0.8,1.1-3.7,5.8-8,7.1c-3,1-15.8,29.7-15.8,29.7s7.4,3.2,18.9,4.8
				C-218.4,459.2-216.8,457.2-215.8,455.9z M-203.4,449.8c-0.4-0.6-2.1-8.9-2.2-9.3l0.6-0.9c0,0,0.6,0.1,0.8,0.9
				c0.2,0.8-0.2,1.9,0,2.9c0.2,0.9,2.4,5.2,2.4,5.2l3,5C-198.8,453.5-203,450.4-203.4,449.8z M-194.5,442.6c0.3-0.9,1.4-0.2,1.5-0.7
				s-0.7-4.8-0.4-4.9c0.3-0.1,4.2,4.4,4.2,4.9c0,0.6-1.8,1.5-2.1,2.1c-0.3,0.5,4.6,5,1.6,3.9C-192.6,446.7-194.8,443.5-194.5,442.6z
				 M-208.1,423.4c0.2-0.7,0-1.5-0.1-1.9c0,0,0,0,0-0.1c0-0.1,0,0,0,0.1c0-0.1-0.2-1,0.4-0.9c0.7,0.1,7.6,9.6,7.7,10.1
				c0.1,0.5-0.6,0.6-0.6,0.6l0.6,6c0,0,0.8,1,1.3,0.5s0.7,2.4,0,2.7c-0.7,0.3-0.9,1.2-0.9,1.2s-0.6-0.4-1.2-1.3s-2.8-10.2-3.4-10.5
				c-0.5-0.2-1.1,0.7-1.7,0.5c-0.6-0.2-3.7-5-3.6-6.5C-209.4,422.4-208.4,424.4-208.1,423.4z M-228.7,449.3
				c-0.7,0.1-4.8,5.6-2.4-1.7c2.4-7.3,2.6-5.9,3.3-7.5c0.7-1.6,1.1,6.1,1.1,6.8S-228,449.3-228.7,449.3z M-222.7,432.6
				c0.6-1.2,5.8-6.2,6.1-6.2c0.3,0,0,3.5-0.6,4c-0.6,0.5-1.9,0.3-2.5,0.9c-0.6,0.6-3.1,9.7-3.1,9.7S-223.3,433.8-222.7,432.6z
				 M-221.3,446.9c0-1.4,5.5-10.6,6.3-11c0.8-0.5-0.2,2.3-0.7,4.3s-3.1,4.7-3.1,8.9C-218.9,453.2-221.2,448.4-221.3,446.9z"/>
		</g>
	</g>
	<g id="XMLID_354_">
		<path id="XMLID_84_" d="M-241.9,387.6c1.1-0.3,2.3-0.5,3.5-0.7c2.1-0.3,4.3-0.5,6.5-0.5c2.2,0,4.4,0.2,6.5,0.5
			c2.1,0.3,4.2,0.8,6.1,1.4c1.8,0.6,3.6,1,5.6,1.3c1.9,0.3,3.9,0.4,6.1,0.4c2.1,0,4.1-0.2,6.1-0.4c2-0.3,3.9-0.7,5.6-1.3
			c1.9-0.6,3.9-1.1,6.1-1.4c2.1-0.3,4.3-0.5,6.5-0.5s4.4,0.2,6.5,0.5c2.1,0.3,4.2,0.8,6.1,1.4c1.7,0.6,3.6,1,5.6,1.3
			c1.9,0.3,3.9,0.4,6.1,0.4c2.2,0,4.1-0.2,6.1-0.4c1.3-0.2,2.6-0.5,3.9-0.8v2.6c-1.1,0.3-2.3,0.5-3.5,0.7c-2.1,0.3-4.3,0.5-6.5,0.5
			c-2.2,0-4.4-0.2-6.5-0.5c-2.5-0.2-4.5-0.7-6.4-1.3c-1.7-0.6-3.6-1-5.6-1.3c-1.9-0.3-3.9-0.4-6.1-0.4c-2.1,0-4.1,0.2-6.1,0.4
			c-2,0.3-3.9,0.7-5.6,1.3c-1.9,0.6-3.9,1.1-6.1,1.4c-2.1,0.3-4.3,0.5-6.5,0.5s-4.4-0.2-6.5-0.5s-4.2-0.8-6.1-1.4
			c-1.7-0.6-3.6-1-5.6-1.3c-1.9-0.3-3.9-0.4-6.1-0.4s-4.1,0.2-6.1,0.4c-1.3,0.2-2.7,0.5-3.9,0.8L-241.9,387.6L-241.9,387.6z"/>
	</g>
	<g id="XMLID_352_">
		<path id="XMLID_83_" d="M-243.5,463.7l7.2,6.3l76.3-0.7l9.8-5.6l1-18.1c-8.8,2.1-9.7,5.6-24.1,3.2c-11.3-1.9-24.6,6.5-42.7,1.6
			c-18.3-4.9-20.5-2.3-29.5,0.7L-243.5,463.7z"/>
	</g>
	<g id="XMLID_347_">
		<g id="XMLID_350_">
			<path id="XMLID_82_" d="M-174.7,435.3c-1.1,6.8,2.6,12.5,3.6,18.1l-0.7-0.1c-1-0.2-2.1-0.3-3.1-0.2c-0.6-5.9-4.3-9.1-3-17.1
				c1.6-9.5-4.9-17-7.4-18.7C-179.8,418.1-173.3,426.9-174.7,435.3z"/>
		</g>
		<g id="XMLID_349_">
			<path id="XMLID_81_" d="M-173.9,398c-2.4,13,6.6,18.5,7.9,28.1c1.3,9.4-3.6,15.5-0.5,27.9c-1.1-0.1-2.2-0.2-3.4-0.4
				c-6.8-12.7,2.3-23.3-3.8-29.8C-181.1,415.8-176.4,402.3-173.9,398z"/>
		</g>
		<g id="XMLID_348_">
			<path id="XMLID_80_" d="M-158.2,426.4c2.5,11.7-3,16.2-3.3,27.2c-1.2,0.3-2.4,0.4-3.7,0.4c-1.1-11.6,2.8-14.1,0.3-26.9
				c-2.5-12.6,3.8-24.8,9.8-28.1C-157.4,402.3-161.4,411.7-158.2,426.4z"/>
		</g>
	</g>
	<g id="XMLID_346_">
		<path id="XMLID_79_" d="M-192.2,402.8c-4.1,0-6-4.8-10-3.6c-8.8,2.8-5.5,10.9,1.4,10c3.4-0.4,6.1-1.9,6.8-2.4
			c2.9-1.8,2.7,2.7,5.4,2.3c1.9-0.2,2.1-8.5,0.5-8.7C-190,400.2-191.5,402.8-192.2,402.8z"/>
	</g>
	<g id="XMLID_345_">
		<path id="XMLID_1_" d="M-225.1,407.7c3.1,0,4.5-3.6,7.5-2.7c6.6,2.1,4.1,8.2-1,7.5c-2.5-0.3-4.6-1.4-5.1-1.8c-2.1-1.3-2,2-4.1,1.7
			c-1.4-0.2-1.6-6.4-0.4-6.6C-226.7,405.7-225.7,407.7-225.1,407.7z"/>
	</g>
	<g id="XMLID_344_">
		<path id="XMLID_76_" d="M-160.2,470.5h-74.2c-6.9,0-12.6-5.6-12.6-12.6v-74.2c0-6.9,5.7-12.6,12.6-12.6h74.2
			c6.9,0,12.6,5.7,12.6,12.6v74.2C-147.6,464.9-153.2,470.5-160.2,470.5z M-234.4,373.9c-5.4,0-9.8,4.4-9.8,9.8v74.2
			c0,5.4,4.4,9.8,9.8,9.8h74.2c5.4,0,9.8-4.4,9.8-9.8v-74.2c0-5.4-4.4-9.8-9.8-9.8H-234.4z"/>
	</g>
</g>
</svg>
