<?xml version="1.0" encoding="utf-8"?>
<!-- Generator: Adobe Illustrator 19.0.0, SVG Export Plug-In . SVG Version: 6.00 Build 0)  -->
<svg version="1.1" id="레이어_1" xmlns="http://www.w3.org/2000/svg" xmlns:xlink="http://www.w3.org/1999/xlink" x="0px"
	 y="0px" viewBox="-247 370.9 100 100" style="enable-background:new -247 370.9 100 100;" xml:space="preserve">
<g id="XMLID_1_">
	<path id="XMLID_621_" d="M-222.3,411.2c0,1.1,0.6,2.1,1.3,2.1"/>
	<path id="XMLID_620_" d="M-218.1,423.2c0,0.8,0.4,1.4,1,1.4"/>
	<path id="XMLID_619_" d="M-226.9,430.3c0,1.3,0.3,2.4,0.6,2.4"/>
	<g id="XMLID_531_">
		<path id="XMLID_534_" d="M-200.9,441.8c0.9,0.5,2.2,1.9,2.2,4.7c0,2.3-2.7,3.6-5.1,4.2c-4.9,0.5-8.3,1.7-8.3,3.1
			c0,1.9,6.6,3.5,14.7,3.5s14.7-1.5,14.7-3.5c0-1.4-3.4-2.6-8.4-3.1c-2.6-0.6-5.6-1.9-5.6-4.2c0-2.9,1.4-4.2,2.3-4.7
			c3-1.3,5.2-4.4,5.2-7.9c0-4.7-3.8-8.5-8.5-8.5s-8.5,3.8-8.5,8.5C-206.2,437.4-204,440.5-200.9,441.8z M-203.9,431.3
			c0.6-1.6,1.9-2.8,3.4-3.5c0.4-0.1,0.8,0,1,0.4c0.1,0.4,0,0.8-0.4,1c-1.2,0.5-2.1,1.4-2.6,2.6c-0.1,0.4-0.6,0.6-0.9,0.4
			C-203.9,432.1-204.1,431.7-203.9,431.3z"/>
		<path id="XMLID_533_" d="M-200.1,447.9c0.1-0.2,0.2-0.3,0.2-0.5c-16.1,0.3-28.7,3.5-28.7,7.4c0,4.1,14,7.5,31.3,7.5
			s31.3-3.3,31.3-7.5c0-4-13.1-7.3-29.7-7.5c0.1,0.2,0.1,0.3,0.3,0.5c12,0.2,21.5,2.6,21.5,5.6c0,3.1-10.5,5.6-23.4,5.6
			s-23.4-2.5-23.4-5.6C-220.7,450.6-211.7,448.2-200.1,447.9z"/>
		<path id="XMLID_532_" d="M-195.7,444.4c0,0.2,0,0.4,0,0.6c21.5,0.1,38.8,4.3,38.8,9.5c0,5.2-17.9,9.5-40.1,9.5s-40.1-4.3-40.1-9.5
			c0-5,16.5-9.2,37.4-9.5c0-0.2,0-0.4,0-0.6c-26.1,0.3-46.8,5.4-46.8,11.7c0,6.5,22.1,11.7,49.5,11.7s49.5-5.2,49.5-11.7
			C-147.5,449.7-168.9,444.5-195.7,444.4z"/>
	</g>
	<g id="XMLID_508_">
		<path id="XMLID_530_" d="M-230.7,409.8c1.8-3.4,7.3-5.7,7.3-5.7s1.3,5.9-0.4,9.2c-1.8,3.4-4,4-5.9,3
			C-231.6,415.4-232.5,413.2-230.7,409.8z"/>
		<path id="XMLID_529_" d="M-236.4,436.4c0.5-2.8,3.5-5.8,3.5-5.8s1.7,3.8,1.2,6.6c-0.5,2.8-1.8,3.8-3.1,3.5
			C-236.1,440.6-237,439.2-236.4,436.4z"/>
		<path id="XMLID_528_" d="M-225.6,426.2c0.4-3,3.7-6.2,3.7-6.2s2.2,4,1.7,7c-0.4,3-1.8,4-3.3,3.8C-225,430.5-226,429.1-225.6,426.2
			z"/>
		<g id="XMLID_526_">
			<path id="XMLID_527_" d="M-191.2,393.7c1.3,0.8,2.5,1.8,3.5,3.2c1.1,1.4,1.5,3.6,2,6.2c-1.4-0.9-2.8-2.1-4.2-3.6
				c-2.4-2.7-2.6-4.1-2.4-4.6C-192.3,394.7-192.2,394.2-191.2,393.7"/>
		</g>
		<g id="XMLID_522_">
			<path id="XMLID_525_" d="M-175,377.5c3,1,6,2.4,9.1,4.3c3.6,2.2,6.2,4.6,8,6.9"/>
			<path id="XMLID_524_" d="M-170.5,374.1c1.3,0,3.5,1.2,5.8,2.5c4.1,2.5,5.7,7,6.2,9.5c0,0.1,0,0.3,0.1,0.4c-1.8-2-4.2-3.9-6.9-5.6
				c-2.7-1.7-5.4-3-8.1-4C-172.6,375.8-171.6,374.1-170.5,374.1"/>
		</g>
		<path id="XMLID_511_" d="M-165.9,381.8c-11.7-7.4-22.8-7.8-34-1.1c-3.6,2.2-4.7,3.3-9.2,4.3c-7.5,1.6-16.2,6-16.1,13.1
			c0,1.6,12.7-1.5,12.7-1.5s-1,12,4.7,14.9c1.1,0.6,4.5-5.1,5.2-12.3c0.7-7.2,2.5-8.1,4.2-8.2c2.2,0,7.2-0.2,11.6,5.2
			c4,5,0,17.7,12.7,22.7c2.7,1.1,6.5,1.7,9.6,1.8c0.1,0,0.3,0.1,0.4,0.1h0.1c0.2,0.1,0.5,0.1,0.7,0.1h0.1c0.2,0,0.5,0,0.7,0h0.1l0,0
			c0.3,0,0.5,0,0.8-0.1c0.1,0,0.1,0,0.2,0c0.3,0,0.5-0.1,0.8-0.2c2.7-0.8,4.4-3.3,4.3-5.1c0.7-3.1,2.4-11.4,2.4-16
			C-154,394.4-156.5,387.8-165.9,381.8z M-201.5,387.9c-0.3-1.1,0.9-2.2,0.9-2.2s-0.8,1.2-0.4,2.1c0.5,1.3,1.3,1.5,1.3,1.5
			S-201.1,389.2-201.5,387.9z M-195.9,382.3c0,1.5,0.6,2.4,0.6,2.4s-1.2-0.6-1.1-2.4c0-1.5,1.8-2.1,1.8-2.1S-195.9,381-195.9,382.3z
			 M-190.6,387.6c-0.8,1.7,0.8,3.5,0.8,3.5s-2.1-1.6-1.3-3.7c0.7-1.7,3.4-1.7,3.4-1.7S-190,386.2-190.6,387.6z M-159.7,402.2
			c0,1.4-1.2,2.6-2.6,2.6c-1.4,0-2.7-1.2-2.7-2.6s1.2-2.6,2.6-2.6C-161,399.6-159.7,400.7-159.7,402.2z M-180.6,380.9
			c1.1-1.1,3.5,0,3.5,0s-2-0.6-3.1,0.5c-1.3,1.3-1.2,2.6-1.2,2.6S-181.8,382.1-180.6,380.9z M-182.2,399.3c-1.6,0.9-1.4,3.8-1.4,3.8
			s-0.7-3.2,1.2-4.3c1.3-0.8,2.7,0.2,2.7,0.2S-180.8,398.5-182.2,399.3z M-174.5,400c0,0-3.7-3.2-5.9-5c-2.2-1.8-4.2-3.5,1.6-7.5
			s6.5,0.1,7.1,1.5c0.7,1.5,2.5,6,2.5,6L-174.5,400z M-168.1,389.9c0,0,0.3-2.8,2.4-3.3c1.5-0.4,3.1,1.9,3.1,1.9s-1.5-1.8-3-1.4
			C-167.5,387.6-168.1,389.9-168.1,389.9z M-157.8,417.5c-0.6,1.2-1.8,2.1-3.1,2.5c-0.5,0.1-1,0.2-1.5,0.2c-2,0-3.6-1-3.9-1.9
			c-0.1-0.2,0-0.3,0.1-0.5c0.2-0.4,1-1.3,4-2.2c1.3-0.4,2.4-0.6,3.2-0.6c1.4,0,1.5,0.5,1.6,0.7
			C-157.2,416.1-157.4,416.8-157.8,417.5z"/>
		<g id="XMLID_509_">
			<path id="XMLID_510_" d="M-174.7,386.3c1.3,0,1.8,1.1,2.3,2.3c0.1,0.2,0.1,0.4,0.2,0.5c0.6,1.3,1.9,4.6,2.3,5.7l-4.6,4.4
				c-1-0.8-3.8-3.2-5.6-4.7c-1.2-1-2.1-1.7-2-2.6c0-1,1.2-2.4,3.6-4C-176.9,386.9-175.7,386.3-174.7,386.3"/>
		</g>
	</g>
</g>
</svg>
