<?xml version="1.0" encoding="utf-8"?>
<!-- Generator: Adobe Illustrator 19.0.0, SVG Export Plug-In . SVG Version: 6.00 Build 0)  -->
<svg version="1.1" id="레이어_1" xmlns="http://www.w3.org/2000/svg" xmlns:xlink="http://www.w3.org/1999/xlink" x="0px"
	 y="0px" viewBox="-247 370.9 100 100" style="enable-background:new -247 370.9 100 100;" xml:space="preserve">
<path id="XMLID_587_" d="M-147.9,465.6c-0.1-0.8-3.1-17.6-7.4-26.4c0.4-2.9,1.5-11.8,1.8-14.6c1.3-1.7,4.9-7.1,2.2-12.2
	c-0.1-3-1-18.3-11.9-26.9l0,0l-0.1-0.1c0.1-0.3,0.2-0.6,0.2-0.8c0.2-0.9,0.4-2.1,0.5-2.5c0.2-4.2-3-7.6-7.7-8.3
	c-0.6-0.1-1.2-0.1-1.8-0.1c-4.9,0-8.9,2.8-9.2,6.5c0,0.4,0,0.9,0.1,1.8c0.1,0.4,0.1,1,0.2,1.5c-0.7,0.6-1.2,1.5-1.1,2.5
	c0.1,0.8,0.7,1.7,2.5,2.4l0.4,0.7c0.3,0.9,1.2,2,3,2.7c0.2,0.2,0.4,0.3,0.7,0.3c-0.7,1.4-1.2,3.4-1.2,6.3h-40.4
	c0-2.9-0.5-4.9-1.2-6.3c0.3-0.1,0.5-0.2,0.7-0.3c1.7-0.7,2.6-1.9,3-2.7l0.4-0.7c1.8-0.7,2.3-1.6,2.5-2.4c0.2-1-0.3-1.9-1.1-2.5
	c0-0.5,0.1-1.1,0.2-1.5c0.1-0.9,0.2-1.4,0.1-1.8c-0.3-3.7-4.2-6.5-9.2-6.5c-0.6,0-1.2,0-1.8,0.1c-4.8,0.7-7.9,4-7.7,8.3
	c0,0.4,0.2,1.5,0.5,2.5c0.1,0.2,0.1,0.5,0.2,0.8l-0.1,0.1l0,0c-11.1,8.7-12,24-12.1,27c-2.7,5.1,0.8,10.4,2.2,12.1
	c0.2,2.8,1.4,11.6,1.8,14.6c-4.3,8.8-7.3,25.6-7.4,26.4c-0.1,0.6,0.1,1.3,0.6,1.7c0.5,0.5,1.2,0.7,2,0.7l0,0l14-0.1
	c1.1,0,2.1-0.6,2.5-1.4l0.2-0.4h13.8c0.8,0,1.6-0.3,2.1-0.8c2-2,0.8-4.4-0.2-5.6c-0.3-0.3-0.7-0.6-1.2-0.8l-5.3-1.6l-4.9-18.3
	c0.4-1.5,0.6-2.7,0.6-3.7c0-0.1,0-0.2-0.1-0.3l0.6-4.7c0.1,0,0.2,0,0.3,0h48.2c0.1,0,0.2,0,0.3,0l0.6,4.7c0,0.1-0.1,0.2-0.1,0.3
	c0,0.9,0.2,2.2,0.6,3.7l-4.9,18.3l-5.3,1.6c-0.5,0.1-0.9,0.4-1.2,0.8c-1,1.1-2.2,3.6-0.2,5.6c0.5,0.5,1.3,0.8,2.1,0.8h13.8l0.2,0.4
	c0.4,0.8,1.4,1.4,2.5,1.4l14,0.1l0,0c0.8,0,1.5-0.3,2-0.7C-148,466.8-147.8,466.2-147.9,465.6z M-170.9,376c3.6,0.5,5.7,3.1,5.6,6.1
	c0,0.2-0.2,1.6-0.6,2.7c-1-0.1-1.8-0.5-2.4-1c-1.2-1.1-1.1-2.6-1.1-2.6c0-0.3-0.1-0.6-0.4-0.8c-0.3-0.2-0.6-0.3-1-0.3
	c-2.2,0.1-3.3-2.7-3.7-3.8c0.8-0.3,1.5-0.4,2.3-0.4C-171.8,375.9-171.4,376-170.9,376z M-177.7,386.7c-3.5-0.8-0.8-2.1-0.8-2.1
	c0.4-0.4-0.3-3.6-0.2-4.3c0.1-1.3,0.8-2.3,1.9-3.1c0.6,1.6,2,4.2,4.9,4.7c0.1,0.9,0.5,2.1,1.7,3.2c0.8,0.8,1.9,1.3,3.2,1.6
	c-1.3,1.1-3.9,3-7.7,3.2c-1.7-0.5-1.9-1.6-1.9-1.6L-177.7,386.7z M-172.5,391.9c4.3-0.8,7-3.2,8-4.3c9,7.6,10.3,20.5,10.5,24.2
	c-0.2,0-0.5,0-0.7,0.1l-8.3,4.3l3.8-10.9c0.2-0.6-0.2-1.2-0.9-1.3c-0.7-0.1-1.5,0.2-1.7,0.8l-7.4,21.1v-17.2h4.1
	c0.7,0,1.3-0.5,1.3-1.1c0-0.2,0-0.9,0-1.2v-5.8c0-1.2-1.2-2.2-2.7-2.2h-7.8C-174.2,394.8-173.2,392.8-172.5,391.9z M-166.4,400.7
	v5.8H-228v-5.8H-166.4z M-222.5,428.3v-19.6h50.6v19.6H-222.5z M-215.3,380.4c0.1,0.7-0.6,3.9-0.2,4.3c0,0,2.7,1.3-0.8,2.1l-0.9,1.7
	c0,0-0.3,1.1-2,1.6c-3.8-0.3-6.4-2.1-7.7-3.2c1.3-0.3,2.4-0.8,3.2-1.6c1.1-1,1.5-2.3,1.7-3.2c2.9-0.6,4.3-3.2,4.9-4.7
	C-216.1,378.1-215.4,379.1-215.3,380.4z M-223.1,376c0.5,0,0.9-0.1,1.3-0.1c0.7,0,1.5,0.1,2.2,0.3c-0.4,1.1-1.5,3.8-3.6,3.8
	c0,0,0,0-0.1,0c-0.4,0-0.8,0.1-1,0.3c-0.3,0.2-0.4,0.5-0.4,0.8c0,0,0.1,1.6-1,2.6c-0.6,0.5-1.4,0.8-2.4,1c-0.3-1.1-0.6-2.5-0.6-2.7
	C-228.7,379.1-226.7,376.6-223.1,376z M-229.5,387.7c1.1,1.1,3.8,3.4,8,4.3c0.7,0.9,1.6,2.9,1.6,6.6h-8.1c-1.5,0-2.7,1-2.7,2.2v5.8
	c0,1.2,1.2,2.2,2.7,2.2h2.8v16.1l-7.1-20.2c-0.2-0.6-0.9-0.9-1.7-0.8c-0.7,0.2-1.1,0.8-0.9,1.3l3.9,11l-8.3-4.1
	c-0.2-0.2-0.5-0.2-0.7-0.2C-239.8,408.1-238.5,395.2-229.5,387.7z M-220.4,457.3h-5.2c-0.7,0-1.3,0.5-1.3,1.1c0,0.6,0.6,1.1,1.3,1.1
	h7l5.3,1.6c0,0,1.5,1.7,0.3,2.9h-15.6l-0.8,1.8l-14,0.1c0,0,0.3-1.9,0.9-4.8c0.1,0,0.2,0,0.3,0h8.5c0.7,0,1.3-0.5,1.3-1.1
	c0-0.6-0.6-1.1-1.3-1.1h-8.3c1.3-6,3.5-14.4,6.1-19.5c0,0-1.9-14.1-1.9-15.6c0,0-4.6-5.1-2.7-9.9l10.6,5.3l3.7,10.5
	c0.2,0.5,0.7,0.8,1.3,0.8h0.9l-1.2,8.4c-1.2,4.9-4,12-4.1,12.1c-0.2,0.6,0.2,1.2,0.9,1.4c0.1,0,0.3,0.1,0.4,0.1
	c0.6,0,1.1-0.3,1.3-0.8c0.1-0.3,1.5-3.8,2.7-7.6L-220.4,457.3z M-164.5,465.8l-0.8-1.8l-15.7-0.1c-1.2-1.2,0.3-2.9,0.3-2.9l5.3-1.6
	h7c0.7,0,1.3-0.5,1.3-1.1s-0.6-1.1-1.3-1.1h-5.2l3.6-13.2c1.2,3.8,2.6,7.3,2.7,7.6c0.2,0.5,0.7,0.8,1.3,0.8c0.1,0,0.3,0,0.4-0.1
	c0.7-0.2,1.1-0.8,0.9-1.4c0-0.1-2.8-7.2-4-12.1l-1-8.4h0.7c0.6,0,1.1-0.3,1.3-0.8l3.7-10.5l10.6-5.3c1.9,4.8-2.7,9.9-2.7,9.9
	c0,1.4-1.9,15.6-1.9,15.6c2.6,5.1,4.7,13.5,6.1,19.5h-8.3c-0.7,0-1.3,0.5-1.3,1.1c0,0.6,0.6,1.1,1.3,1.1h8.5c0.1,0,0.2,0,0.3,0
	c0.6,2.9,0.9,4.8,0.9,4.8H-164.5z"/>
</svg>
