<?xml version="1.0" encoding="utf-8"?>
<!-- Generator: Adobe Illustrator 19.0.0, SVG Export Plug-In . SVG Version: 6.00 Build 0)  -->
<svg version="1.1" id="레이어_1" xmlns="http://www.w3.org/2000/svg" xmlns:xlink="http://www.w3.org/1999/xlink" x="0px"
	 y="0px" viewBox="-247 370.9 100 100" style="enable-background:new -247 370.9 100 100;" xml:space="preserve">
<path id="XMLID_537_" d="M-230.4,392.1c0.6,0,1.1,0,1.6,0c24.8,0,49.5,0,74.3,0c4,0,7,3,6.8,6.8c0,0.8-0.3,1.7-0.6,2.5
	c-4.2,10.4-8.5,20.7-12.7,31c-1.2,2.9-3.4,4.4-6.6,4.4c-17.4,0-34.8,0-52.2,0c-0.5,0-0.9,0-1.5,0c0.5,2.7,1,5.3,1.6,7.9
	c0,0.2,0.3,0.4,0.6,0.5s0.6,0,0.9,0c16.3,0,32.6,0,48.9,0c5.9,0,10.5,4.4,10.5,10.1c0,4.4-2.7,8.3-6.8,9.7
	c-4.1,1.5-8.6,0.2-11.3-3.2c-2.8-3.4-3.1-8.1-0.7-11.8c0.2-0.3,0.4-0.6,0.7-1.1c-11.5,0-22.8,0-34,0c0.6,1.5,1.4,3.1,1.7,4.7
	c1,5.1-2.1,10.1-7.1,11.5c-5,1.5-10.3-1-12.4-5.9c-2-4.7-0.1-10.3,4.4-12.7c0.9-0.5,1.1-0.9,0.9-1.9c-4.3-21.1-8.6-42.3-12.8-63.4
	c-0.4-1-0.8-1.3-1.8-1.3c-2,0.1-4,0-6,0c-1.4,0-2.3-0.7-2.3-1.8s0.9-1.8,2.2-1.8c2.8,0,5.7,0,8.5,0c1.5,0,2,0.5,2.3,1.9
	C-232.4,382.7-231.4,387.3-230.4,392.1z M-223.5,395.8c0.4,2.5,0.9,4.9,1.3,7.3c2.8,0,5.5,0,8.2,0c-0.2-2.5-0.3-4.9-0.5-7.3
	C-217.6,395.8-220.5,395.8-223.5,395.8z M-203.9,395.8c-2.8,0-5.7,0-8.8,0c0.2,2.5,0.3,4.9,0.5,7.4c2.8,0,5.4,0,8.3,0
	C-203.9,400.7-203.9,398.3-203.9,395.8z M-221.9,405.1c0.5,2.6,0.9,5.2,1.4,7.7c0,0.2,0.3,0.6,0.5,0.6c2.2,0,4.4,0,6.7,0
	c-0.2-2.9-0.4-5.6-0.6-8.3C-216.6,405.1-219.2,405.1-221.9,405.1z M-212,405.1c0.2,2.8,0.4,5.5,0.5,8.3c2.4,0,4.7,0,7.1,0
	c0.1-2.8,0.2-5.5,0.4-8.3C-206.8,405.1-209.3,405.1-212,405.1z M-196,413.4c0.4-2.7,0.7-5.5,1.1-8.3c-2.5,0-4.9,0-7.3,0
	c-0.1,2.8-0.3,5.5-0.4,8.3C-200.3,413.4-198.2,413.4-196,413.4z M-201.9,395.8c0,2.5,0,4.9,0,7.4c2.4,0,4.8,0,7.3,0
	c0.3-2.5,0.7-4.9,1-7.4C-196.4,395.8-199,395.8-201.9,395.8z M-185.8,413.5c2.1,0,4,0,5.9,0c0.3,0,0.7-0.4,0.8-0.8
	c0.5-2,0.9-4,1.4-6c0.1-0.5,0.2-1,0.3-1.6c-2.3,0-4.5,0-6.9,0C-184.8,407.8-185.3,410.6-185.8,413.5z M-186.2,405.1
	c-2.3,0-4.6,0-6.9,0c-0.4,2.8-0.7,5.5-1.1,8.3c2.1,0,4.1,0,6.1,0c0.2,0,0.5-0.3,0.6-0.5C-187,410.3-186.6,407.7-186.2,405.1z
	 M-175.5,405.1c-0.6,2.8-1.2,5.5-1.8,8.3c2.1,0,4.1,0,6.1,0c0.8-2.8,1.6-5.5,2.4-8.3C-171.2,405.1-173.3,405.1-175.5,405.1z
	 M-191.8,395.8c-0.3,2.5-0.7,4.9-1,7.4c2.4,0,4.7,0,7,0c0.4-2.4,0.9-4.9,1.3-7.4C-186.9,395.8-189.3,395.8-191.8,395.8z M-184,403.2
	c2.2,0,4.3,0,6.5,0c0.2,0,0.6-0.3,0.6-0.5c0.5-2.3,1-4.6,1.6-7c-2.3,0-4.5,0-6.7,0c-0.3,0-0.7,0.5-0.7,0.7
	C-183.2,398.7-183.5,400.9-184,403.2z M-220,415.3c0.5,2.9,1,5.6,1.5,8.3c2.1,0,4,0,5.9,0c-0.2-2.8-0.4-5.5-0.6-8.3
	C-215.6,415.3-217.7,415.3-220,415.3z M-160.4,405.1c-2.3,0-4.4,0-6.7,0c-0.8,2.7-1.6,5.5-2.4,8.4c2,0,3.8,0,5.7,0
	c0.2,0,0.5-0.2,0.6-0.4C-162.3,410.4-161.4,407.9-160.4,405.1z M-210.8,423.6c2,0,3.9,0,5.9,0c0.1-2.8,0.3-5.5,0.4-8.3
	c-2.3,0-4.6,0-6.8,0C-211.2,418.2-211,420.9-210.8,423.6z M-186.1,415.3c-0.5,2.8-1,5.5-1.5,8.3c2.1,0,4.1,0,6.1,0
	c0.6-2.8,1.2-5.5,1.8-8.3C-181.8,415.3-183.9,415.3-186.1,415.3z M-189.4,423.6c0.5-2.8,1-5.5,1.5-8.3c-2.2,0-4.3,0-6.5,0
	c-0.4,2.8-0.7,5.5-1.1,8.3C-193.5,423.6-191.5,423.6-189.4,423.6z M-166.2,395.8c-2.5,0-4.9,0-7.3,0c-0.5,2.5-1.1,4.9-1.6,7.4
	c2.2,0,4.2,0,6.2,0c0.2,0,0.6-0.2,0.7-0.4C-167.5,400.5-166.9,398.2-166.2,395.8z M-157.1,395.7c-1.8,0-3.4,0-5.1,0
	c-2.2,0-2.2,0-2.8,2.2c-0.5,1.7-1,3.4-1.5,5.3c2.2,0,4.2,0,6.2,0c0.3,0,0.7-0.3,0.7-0.5C-158.7,400.4-157.9,398.2-157.1,395.7z
	 M-203.1,423.7c1.3,0,2.4,0,3.5,0c2.1,0,2.1,0,2.4-2c0.3-2.1,0.5-4.2,0.8-6.3c-2.2,0-4.3,0-6.4,0
	C-202.8,418.2-202.9,420.8-203.1,423.7z M-171.8,415.3c-1,0-1.8,0-2.6,0c-1.1,0-2.5-0.3-3.3,0.2c-0.7,0.5-0.6,2-0.9,3
	c-0.4,1.7-0.7,3.3-1.1,5.1c1.9,0,3.6,0,5.4,0C-173.4,420.9-172.6,418.1-171.8,415.3z M-172.4,423.7c1.7,0,3.3,0,5,0
	c0.2,0,0.5-0.2,0.6-0.4c1-2.6,1.9-5.2,2.8-7.9c-2.1,0-4,0-6,0C-170.8,418.1-171.6,420.8-172.4,423.7z M-183.6,432.9
	c0.6-2.4,1.1-4.8,1.6-7.2c-2,0-3.9,0-5.9,0c-0.4,2.4-0.8,4.8-1.2,7.2C-187.2,432.9-185.5,432.9-183.6,432.9z M-196.7,432.9
	c1.7,0,3.3,0,4.9,0c0.3,0,0.7-0.3,0.7-0.6c0.4-2.2,0.8-4.4,1.2-6.7c-2,0-3.9,0-5.9,0C-196.1,428.1-196.4,430.4-196.7,432.9z
	 M-212.6,425.6c-1.9,0-3.7,0-5.6,0c0.4,2.3,0.8,4.5,1.2,6.7c0,0.2,0.3,0.6,0.6,0.6c1.4,0,2.7,0,4.3,0
	C-212.3,430.4-212.4,428.1-212.6,425.6z M-205,425.6c-1.9,0-3.7,0-5.6,0c0.2,2.3,0.3,4.4,0.5,6.6c0,0.3,0.4,0.7,0.7,0.7
	c1.3,0.1,2.6,0,4,0C-205.3,430.4-205.2,428.1-205,425.6z M-198.7,432.9c0.3-2.4,0.7-4.8,1-7.2c-1.9,0-3.6,0-5.4,0c0,2.5,0,4.8,0,7.2
	C-201.7,432.9-200.2,432.9-198.7,432.9z M-153.8,405c-1,0-1.9,0-2.7,0c-2,0-2,0-2.7,1.9c-0.8,2.1-1.5,4.3-2.3,6.5c1.3,0,2.5,0,3.7,0
	c0.2,0,0.6-0.2,0.7-0.4C-156.1,410.4-155,407.8-153.8,405z M-180,425.6c-0.5,2.4-1,4.8-1.6,7.3c0.9,0,1.7,0,2.5,0c2.1,0,2.1,0,2.7-2
	c0.5-1.7,1-3.5,1.5-5.4C-176.7,425.6-178.3,425.6-180,425.6z M-167.7,425.6c-1.7,0-3.2,0-4.7,0c-0.2,0-0.6,0.3-0.7,0.5
	c-0.7,2.2-1.3,4.4-2,6.8c1.5,0,2.9,0,4.2,0c0.2,0,0.5-0.3,0.6-0.4C-169.4,430.2-168.6,428-167.7,425.6z M-227.8,405.1
	c0.6,2.9,1.1,5.6,1.7,8.4c1.3,0,2.6,0,3.9,0c-0.5-2.7-0.9-5.2-1.4-7.8c0-0.2-0.4-0.5-0.6-0.5C-225.3,405-226.5,405.1-227.8,405.1z
	 M-157.9,403.2c1.5,0,2.9,0,4.2,0c0.3,0,0.7-0.3,0.7-0.5c0.5-1,0.9-2.1,1.3-3.2c0.7-2.1-1-4.1-3.2-3.7c-0.2,0-0.5,0.3-0.6,0.5
	C-156.2,398.5-157,400.8-157.9,403.2z M-165.1,423.7c1.1,0,2.1,0,3,0c0.3,0,0.7-0.2,0.8-0.4c1.1-2.6,2.2-5.2,3.3-7.9
	c-1.3,0-2.5,0-3.6,0c-0.2,0-0.6,0.3-0.7,0.5C-163.3,418.4-164.2,420.9-165.1,423.7z M-229.7,395.8c0.5,2.6,1,5,1.5,7.4
	c1.4,0,2.8,0,4.2,0c-0.4-2.5-0.9-4.9-1.3-7.4C-226.8,395.8-228.2,395.8-229.7,395.8z M-220.4,423.6c-0.5-2.9-1-5.6-1.5-8.3
	c-1.3,0-2.5,0-3.9,0c0.6,2.8,1.1,5.6,1.7,8.3C-222.8,423.6-221.7,423.6-220.4,423.6z M-223.6,425.6c0.5,2.5,1,4.9,1.5,7.2
	c1.1,0,2.1,0,3.2,0c-0.4-2.5-0.8-4.8-1.3-7.2C-221.3,425.6-222.3,425.6-223.6,425.6z M-168.3,432.8c1.3,0.2,2.5,0.1,3.1-0.9
	c1.1-2,1.9-4.1,2.9-6.3c-1.3,0-2.4,0-3.5,0C-166.6,428-167.4,430.3-168.3,432.8z"/>
</svg>
