<?xml version="1.0" encoding="utf-8"?>
<!-- Generator: Adobe Illustrator 19.0.0, SVG Export Plug-In . SVG Version: 6.00 Build 0)  -->
<svg version="1.1" id="레이어_1" xmlns="http://www.w3.org/2000/svg" xmlns:xlink="http://www.w3.org/1999/xlink" x="0px"
	 y="0px" viewBox="-247 370.9 100 100" style="enable-background:new -247 370.9 100 100;" xml:space="preserve">
<g id="XMLID_275_">
	<g id="XMLID_323_">
		<path id="XMLID_66_" d="M-162.2,422.4l1-0.5v-16.4l-0.4-0.5l-27-16.1l-1.1,0.5v16.5l0.5,0.5L-162.2,422.4z M-188.7,390.3
			l26.4,15.5V421l-26.4-15.5V390.3z"/>
		<path id="XMLID_69_" d="M-162.3,423l-0.2-0.1l-26.9-16.2l-0.8-0.7v-17l1.6-0.7l27.3,16.4l0.5,0.6v17L-162.3,423z M-182,410
			l19.8,11.9l0.2-0.1L-182,410z M-161.8,405.6v16l0,0V405.6z M-188.2,405.2l25.4,14.9v-14l-25.4-14.9V405.2z M-189.2,405.6
			L-189.2,405.6v-15.9l0,0V405.6z M-189,389.6l24.5,14.4l-24.2-14.6L-189,389.6z"/>
	</g>
	<g id="XMLID_276_">
		<path id="XMLID_2_" d="M-151.4,442.9l-0.4-44.4l-0.4-0.7l-44.6-25.9h-0.4h-0.4l-44.7,25.9l-0.4,0.7l0.3,44.4l0.3,0.8l44.7,25.7
			h0.8l4.6-2.7c0.1,0,0.2-0.1,0.2-0.2l19.8-11.3l0,0c0.1,0,0.2-0.1,0.2-0.1l0,0l19.9-11.4L-151.4,442.9z M-173,454l-3.3-1.9l9.4-5.4
			l3.3,1.9L-173,454z M-182.8,459.6l-3.2-1.9l9.2-5.3l3.3,1.9L-182.8,459.6z M-193,465.5l-3.3-1.9l9.6-5.6l3.3,1.9L-193,465.5z
			 M-210.5,460.1l3.5-2l9.6,5.6l-3.5,2L-210.5,460.1z M-220.2,454.4l3.5-2l9.2,5.3l-3.5,2L-220.2,454.4z M-230.1,448.7l3.5-2
			l9.4,5.4l-3.5,2L-230.1,448.7z M-240,443l3.5-2l9.4,5.4l-3.5,2L-240,443z M-228.1,401.4l13.6-7.9l0.6,32.4l-13.6,7.9L-228.1,401.4
			z M-196.8,451.5l-9.2-5.3l9.2-5.3l9.2,5.3L-196.8,451.5z M-187.1,446.5l9.7,5.6l-9.2,5.3l-9.6-5.6L-187.1,446.5z M-206.7,423.6
			l9.4,5.4l-9.4,5.4l-9.4-5.4L-206.7,423.6z M-206.1,423.3l9-5.2l9.4,5.4l-9,5.2L-206.1,423.3z M-216.6,429.4l9.4,5.4l-9.2,5.3
			l-9.4-5.4L-216.6,429.4z M-206.7,435.1l9.4,5.4l-9.2,5.4l-9.4-5.4L-206.7,435.1z M-206.2,434.8l9.4-5.4l9.4,5.4l-9.4,5.4
			L-206.2,434.8z M-196.2,429l9-5.2l9.4,5.4l-9.1,5.3L-196.2,429z M-231.9,438.2l5.5-3.2l9.4,5.4l-9.6,5.6l-9.4-5.4L-231.9,438.2z
			 M-216.4,440.7l9.4,5.4l-9.7,5.6l-9.4-5.4L-216.4,440.7z M-206.5,446.5l9.2,5.3l-9.7,5.6l-9.2-5.3L-206.5,446.5z M-196.2,440.5
			l9.4-5.4l9.2,5.3l-9.5,5.5L-196.2,440.5z M-186.3,434.8l9.1-5.3l7.4,4.3l1.8,1l-9.1,5.3L-186.3,434.8z M-206.4,457.7l9.7-5.6
			l9.7,5.6l-9.7,5.6L-206.4,457.7z M-176.9,451.8l-9.6-5.6l9.4-5.4l9.6,5.6L-176.9,451.8z M-176.6,440.4l9.1-5.3l9.7,5.6l-9.1,5.3
			L-176.6,440.4z M-153.2,441.5l-43.6-24.9v-42.5l43.1,24.9L-153.2,441.5z M-197.8,374.1v42.5l-14.9,8.6l-0.6-32.6l-0.8-0.5
			l-14.7,8.5l-0.3,0.5l0.5,33.3l-0.5,0.3l-11.7,6.8L-241,399L-197.8,374.1z M-197.1,467.9l-3.2-1.9l3.5-2l3.2,1.9L-197.1,467.9z
			 M-163.1,448.2l-3.3-1.9l9.1-5.3l3.3,1.9L-163.1,448.2z"/>
		<path id="XMLID_32_" d="M-196.5,469.9h-1.1l-45-25.8l-0.3-1.2l-0.3-44.5l0.5-1l0.1-0.1l44.8-26h1.1l0.1,0.1l44.7,26l0.5,1
			l0.4,44.6l-0.4,1l-0.1,0.1l-19.8,11.3c-0.1,0.2-0.3,0.3-0.5,0.3l-19.7,11.2c-0.1,0.1-0.2,0.2-0.4,0.3L-196.5,469.9z M-197.3,468.9
			h0.6l4.7-2.8l39.9-22.8l0.2-0.5l-0.4-44.2l-0.3-0.5l-44.4-25.7h-0.5l-44.4,25.8l-0.3,0.5l0.3,44.2l0.2,0.5L-197.3,468.9z
			 M-197.1,468.5l-4.2-2.5l0,0l-10.2-5.9l0,0l-19.6-11.4l0,0l-9.9-5.7l4.5-2.6l0,0l9.7-5.7l0,0l29.6-17.2l10.4,6l0,0l19.3,11.1l0,0
			l10.2,5.9l0,0l4.3,2.4l-10.1,5.9l0,0l-9.5,5.5l0,0l-10.2,5.9l0,0l-10.2,5.9l0,0L-197.1,468.5z M-199.3,466l2.2,1.3l2.5-1.5
			l-2.3-1.3L-199.3,466z M-209.5,460.1l8.7,5l2.5-1.5l-8.7-5L-209.5,460.1z M-195.2,463.6l2.2,1.3l8.7-5l-2.3-1.3L-195.2,463.6z
			 M-205.4,457.7l8.7,5l8.7-5l-8.7-5L-205.4,457.7z M-219.2,454.4l8.2,4.7l2.5-1.5l-8.2-4.7L-219.2,454.4z M-185,457.7l2.3,1.3
			l8.2-4.7l-2.3-1.3L-185,457.7z M-195.2,451.8l8.7,5l8.2-4.7l-8.7-5L-195.2,451.8z M-215.2,452.1l8.2,4.7l8.7-5l-8.2-4.7
			L-215.2,452.1z M-229.1,448.7l8.4,4.9l2.5-1.5l-8.4-4.9L-229.1,448.7z M-175.3,452.1l2.3,1.3l8.4-4.9l-2.3-1.3L-175.3,452.1z
			 M-185.5,446.2l8.7,5l8.4-4.9l-8.7-5L-185.5,446.2z M-225.1,446.3l8.4,4.9l8.7-5l-8.4-4.9L-225.1,446.3z M-205,446.2l8.2,4.7
			l8.2-4.7l-8.2-4.7L-205,446.2z M-239,443l8.3,4.8l2.5-1.5l-8.4-4.8L-239,443z M-165.4,446.3l2.3,1.3l8.1-4.7l-2.3-1.3
			L-165.4,446.3z M-235,440.6l8.4,4.8l8.7-5l-8.4-4.9L-235,440.6z M-175.6,440.4l8.7,5l8.1-4.7l-8.7-5L-175.6,440.4z M-195.2,440.5
			l8.2,4.7l8.4-4.9l-8.2-4.7L-195.2,440.5z M-214.9,440.4l8.4,4.9l8.2-4.7l-8.4-4.9L-214.9,440.4z M-205.2,434.8l8.4,4.9l8.4-4.9
			l-8.4-4.9L-205.2,434.8z M-224.8,434.7l8.4,4.9l8.2-4.7l-8.4-5L-224.8,434.7z M-185.3,434.8l8.2,4.7l8.1-4.7l-8.2-4.7
			L-185.3,434.8z M-195.2,429l8.4,4.9l8.1-4.7l-8.4-4.8L-195.2,429z M-215.1,429l8.4,4.9l8.4-4.9l-8.4-4.9L-215.1,429z
			 M-205.1,423.3l8.4,4.9l8-4.7l-8.4-4.8L-205.1,423.3z M-152.7,442.4l-44.6-25.5v-43.7l44.1,25.5v0.3L-152.7,442.4z M-196.3,416.3
			l42.6,24.4l-0.5-41.3l-42.1-24.4V416.3z M-241.3,442.3l-0.2-43.6l44.2-25.5v43.7l-15.9,9.2l-0.6-33.2l-0.2-0.1l0.5,33.3l-14.5,8.6
			l-0.5-33.5l14.5-8.4h-0.1l-14.4,8.3l-0.1,0.2l0.5,33.5L-241.3,442.3z M-240.5,399.3l0.2,41.3l11.2-6.5l-0.5-33.2l0.4-0.7l15.1-8.7
			l1.3,0.7l0.6,32.1l13.9-8.1V375L-240.5,399.3z M-227.6,401.7l0.5,31.2l12.6-7.4l-0.5-31.2L-227.6,401.7z"/>
	</g>
</g>
</svg>
