<?xml version="1.0" encoding="utf-8"?>
<!-- Generator: Adobe Illustrator 19.0.0, SVG Export Plug-In . SVG Version: 6.00 Build 0)  -->
<svg version="1.1" id="레이어_1" xmlns="http://www.w3.org/2000/svg" xmlns:xlink="http://www.w3.org/1999/xlink" x="0px"
	 y="0px" viewBox="-247 370.9 100 100" style="enable-background:new -247 370.9 100 100;" xml:space="preserve">
<g id="XMLID_1_">
	<path id="XMLID_339_" d="M-175.3,433.9c-7.3-0.4-11.4,4.4-13.3,7.4c-2.8-3.1-8.9-8.1-16-8.1c-9.7,0-17.6,9.2-17.6,10.5
		c0,1.3,7.9,10.5,17.6,10.5c0.8,0,1.6-0.1,2.3-0.2c0.4,0.9,1.1,1.8,2,2.4c2.7,1.9,6.6,0.9,6.9,0.6c0.2-0.3,0-3.5-1.9-5.5
		c2.9-1.6,5.2-3.7,6.6-5.3c4.2,8.1,13.4,6.7,13.4,6.7C-181.1,444.2-175.3,433.9-175.3,433.9z M-210,445.2c-1.6,0-2.8-1.3-2.8-2.8
		c0-1.6,1.3-2.8,2.8-2.8c1.6,0,2.8,1.3,2.8,2.8C-207.2,444-208.4,445.2-210,445.2z"/>
	<path id="XMLID_336_" d="M-222.2,434.4c-3.6,0-6.5-2.9-6.5-6.5c0-3.6,2.9-6.5,6.5-6.5c3.6,0,6.5,2.9,6.5,6.5
		C-215.7,431.5-218.6,434.4-222.2,434.4z M-222.2,424.7c-1.8,0-3.3,1.5-3.3,3.3c0,1.8,1.5,3.3,3.3,3.3s3.3-1.5,3.3-3.3
		C-218.9,426.1-220.4,424.7-222.2,424.7z"/>
	<path id="XMLID_333_" d="M-212.9,423.3c-2.8,0-5.1-2.3-5.1-5.1s2.3-5.1,5.1-5.1c2.8,0,5.1,2.3,5.1,5.1S-210.1,423.3-212.9,423.3z
		 M-212.9,416.3c-1.1,0-1.9,0.9-1.9,1.9c0,1.1,0.9,1.9,1.9,1.9s1.9-0.9,1.9-1.9C-210.9,417.1-211.8,416.3-212.9,416.3z"/>
	<path id="XMLID_327_" d="M-180.4,398.6c7.5-5.6,11.1-13.9,9.9-19.4c-1.3-5.7-7.2-7.8-15.5-5.1c-3,1-6.1,1.5-9.4,1.5
		c-4.1,0-7.7-0.7-10.9-1.3c-2.3-0.5-4.4-0.9-6.1-0.9c-2,0-3.6,0.6-4.7,1.7c-1.7,1.8-1.7,4.5-1.6,6.4c0.5,7.3,4.3,12.4,8.5,15.9
		c-21,5.8-36.3,25.3-36.3,47.6c0,21.9,14.5,23.7,29.3,23.7c2.9,0,6-0.1,9.3-0.2c7-0.2,14.6-0.2,21.6,0c3.2,0.1,6.3,0.2,9.3,0.2l0,0
		c7.4,0,15.1-0.5,20.7-4c5.8-3.7,8.6-10.1,8.6-19.7C-147.6,423.9-160.9,405.5-180.4,398.6z M-195.4,380.4c3.8,0,7.4-0.6,10.9-1.7
		c2-0.7,3.7-1,5.2-1c1.3,0,2.2,0.3,2.8,0.6c-1.4,0.4-2.9,1-4.5,1.6c-4.6,1.8-10.8,4.3-18.4,3.4c-6.3-0.7-10.2-3.1-12.4-5
		c1.2,0.1,2.8,0.4,4.5,0.7C-204,379.6-200,380.4-195.4,380.4z M-213.8,381.2c0-0.3,0-0.6,0-0.8c2.5,2.2,7,5,14.1,5.8
		c1.3,0.1,2.5,0.2,3.6,0.2c6.6,0,12.1-2.1,16.2-3.8c1.9-0.7,3.7-1.4,4.7-1.5c0.3,4.3-3.9,11.9-11.9,15.9c-6.9,1.5-14.6-0.3-16.1-0.7
		C-207.8,393.8-213.2,389-213.8,381.2z M-158.8,460.8c-4.6,2.9-11.7,3.3-18.1,3.3l0,0c-2.9,0-6-0.1-9.1-0.2
		c-3.5-0.1-7.2-0.2-10.9-0.2c-3.8,0-7.4,0.1-10.9,0.2c-3.2,0.1-6.2,0.2-9.1,0.2c-16.2,0-24.5-2.9-24.5-18.9
		c0-21.7,16-40.5,37.3-43.9c1.5,0.4,5.9,1.4,11.1,1.4c2.2,0,4.5-0.2,6.8-0.7c20,4.9,33.9,22.6,33.9,43.2
		C-152.5,455.5-156.1,459-158.8,460.8z"/>
</g>
</svg>
