<?xml version="1.0" encoding="utf-8"?>
<!-- Generator: Adobe Illustrator 19.0.0, SVG Export Plug-In . SVG Version: 6.00 Build 0)  -->
<svg version="1.1" id="레이어_1" xmlns="http://www.w3.org/2000/svg" xmlns:xlink="http://www.w3.org/1999/xlink" x="0px"
	 y="0px" viewBox="-247 370.9 100 100" style="enable-background:new -247 370.9 100 100;" xml:space="preserve">
<g id="XMLID_261_">
	<g id="XMLID_267_">
		<path id="XMLID_343_" d="M-151.2,397.8l-61.4-26.1c-0.5-0.2-1.1-0.2-1.5,0l-27.4,11.9c-0.4,0.2-0.6,0.5-0.7,0.8
			c-0.2,0.2-0.3,0.4-0.3,0.6l-0.5,56.1c0,0.4,0.3,0.8,0.8,1l62.4,26.2c0.2,0.1,0.5,0.1,0.7,0.1c0.2,0,0.5,0,0.7-0.1l27.2-11
			c0.5-0.2,0.8-0.6,0.8-1v-57.5C-150.4,398.4-150.7,398-151.2,397.8z M-239.5,387l58.7,24.3v22.8l-58.9-24.5L-239.5,387z
			 M-209.7,424.6l28.9,12v28.7l-29-12.2l0.1-0.3V424.6z M-177.8,411.9l0.2-0.1l24.2-11v23.4c-0.2,0-0.4,0.1-0.6,0.1l-23.8,10.2
			V411.9z M-213.3,374l58.2,25l-23.4,10.6l-59.9-24.8L-213.3,374z M-239.7,412.2l27,11.2v0.2v28.3l-27.3-11.5L-239.7,412.2z
			 M-177.8,465.4v-28.3l24.3-10.4v28.9L-177.8,465.4z"/>
		<path id="XMLID_395_" d="M-179.2,469c-0.3,0-0.7-0.1-1-0.2l-62.3-26.2c-0.7-0.3-1.2-0.9-1.2-1.6l0.5-56c0-0.3,0.1-0.7,0.4-1
			c0.2-0.5,0.5-0.9,1-1.1l27.4-11.8c0.6-0.3,1.4-0.3,2,0l61.4,26.1c0.7,0.3,1.2,0.9,1.2,1.6v57.5c0,0.7-0.5,1.3-1.2,1.6l-27.2,11
			C-178.5,469-178.8,469-179.2,469z M-213.4,372.2c-0.2,0-0.4,0-0.5,0.1l-27.4,11.9c-0.2,0.1-0.3,0.2-0.3,0.3v0.2l-0.1,0.1
			c-0.1,0.1-0.1,0.2-0.1,0.2l-0.5,56c0,0.1,0.2,0.3,0.4,0.4l62.4,26.2c0.3,0.1,0.7,0.1,1,0l27.2-11c0.2-0.1,0.4-0.3,0.4-0.4v-57.4
			c0-0.1-0.2-0.3-0.4-0.4l0,0l-61.5-26.1C-213,372.2-213.2,372.2-213.4,372.2z M-178.4,466.4v-29.7l25.6-10.9v30.3L-178.4,466.4z
			 M-177.2,437.6v26.9l23-9.3v-27.5L-177.2,437.6z M-180.2,466.2l-30.3-12.7l0.2-0.7v-29.1l30.2,12.5L-180.2,466.2L-180.2,466.2z
			 M-209.1,452.7l27.6,11.6V437l-27.6-11.4V452.7z M-212.1,452.8l-28.5-12l0.3-29.6l28.4,11.8l-0.2,0.6V452.8z M-239.3,440
			l25.9,10.9v-27.1l-25.7-10.6L-239.3,440z M-178.4,435.5v-24l0.6-0.2l25-11.4v25h-0.6c-0.1,0-0.3,0-0.4,0.1L-178.4,435.5z
			 M-177.2,412.4v21.2l22.8-9.7c0.1,0,0.1-0.1,0.2-0.1v-22L-177.2,412.4z M-180.2,435l-60.2-24.9l0.2-24.1l60,24.8V435z
			 M-239.1,409.2l57.6,23.9v-21.5l-57.4-23.7L-239.1,409.2z M-178.5,410.3l-61.5-25.4l26.6-11.6l0.3,0.1l59.5,25.5L-178.5,410.3z
			 M-236.7,384.8l58.2,24.1l21.7-9.9l-56.5-24.3L-236.7,384.8z"/>
	</g>
	<g id="XMLID_266_">
		<path id="XMLID_226_" d="M-204.1,443c0.9,0.4,1.7,0.1,1.7-0.7c0-0.8-0.8-1.8-1.7-2.2c-0.9-0.4-1.7-0.1-1.7,0.7
			S-205.1,442.6-204.1,443z"/>
		<path id="XMLID_227_" d="M-203.4,443.8c-0.3,0-0.7-0.1-1-0.2l0,0c-1.2-0.5-2.1-1.7-2.1-2.8c0-0.5,0.2-1,0.7-1.3
			c0.5-0.3,1.2-0.3,1.9,0c1.2,0.5,2.1,1.7,2.1,2.8c0,0.5-0.2,1-0.7,1.3C-202.7,443.7-203,443.8-203.4,443.8z M-204.9,440.5
			c-0.1,0-0.2,0-0.2,0.1c0,0-0.1,0-0.1,0.2c0,0.5,0.5,1.3,1.3,1.6l0,0c0.4,0.2,0.7,0.1,0.7,0.1s0.1,0,0.1-0.2c0-0.5-0.5-1.3-1.3-1.6
			C-204.6,440.6-204.8,440.5-204.9,440.5z"/>
	</g>
	<g id="XMLID_265_">
		<path id="XMLID_218_" d="M-219.9,433.6c-0.9-0.4-1.7-0.1-1.7,0.7c0,0.8,0.8,1.8,1.7,2.2c0.9,0.4,1.7,0.1,1.7-0.7
			S-218.9,434-219.9,433.6z"/>
		<path id="XMLID_220_" d="M-219.1,437.3c-0.3,0-0.7-0.1-1-0.2c-1.2-0.5-2.1-1.7-2.1-2.8c0-0.5,0.2-1,0.7-1.3c0.5-0.3,1.2-0.3,2,0
			l0,0c1.2,0.5,2.1,1.7,2.1,2.8c0,0.5-0.2,1-0.7,1.3C-218.5,437.2-218.8,437.3-219.1,437.3z M-220.6,434.1c-0.1,0-0.2,0-0.2,0.1
			c0,0-0.1,0.1-0.1,0.2c0,0.5,0.5,1.3,1.3,1.6c0.4,0.2,0.6,0.1,0.7,0.1c0,0,0.1-0.1,0.1-0.2c0-0.5-0.5-1.3-1.3-1.6l0,0
			C-220.3,434.1-220.5,434.1-220.6,434.1z"/>
	</g>
	<g id="XMLID_264_">
		<path id="XMLID_84_" d="M-222.3,400.5c-1.8-0.8-3.3-0.9-3.8-0.4l-2.9-2.7v3.5l2.9-0.2c0.3,0.9,1.9,2.2,3.8,3
			c2.1,0.9,3.9,0.9,3.9,0C-218.4,402.9-220.1,401.4-222.3,400.5z"/>
		<path id="XMLID_99_" d="M-219.5,405.1c-0.8,0-1.9-0.3-3-0.7c-1.6-0.7-3.3-1.8-4-2.9l-3.1,0.2V396l3.6,3.3c1-0.4,2.6,0,4,0.6l0,0
			c2.1,0.9,4.3,2.5,4.3,3.9c0,0.4-0.2,0.8-0.6,1C-218.6,405-219,405.1-219.5,405.1z M-225.5,400.5L-225.5,400.5
			c0.2,0.7,1.6,1.9,3.5,2.7c1.8,0.8,2.9,0.7,3,0.5c0-0.4-1.3-1.7-3.5-2.7C-224.3,400.3-225.3,400.4-225.5,400.5z M-228.3,398.9v1.4
			l1.4-0.1L-228.3,398.9z"/>
	</g>
	<g id="XMLID_263_">
		<path id="XMLID_63_" d="M-199,418.1c-0.3-0.7-1.6-1.6-3-2.2c-1.6-0.7-2.9-0.7-2.9,0c0,0.7,1.4,1.8,3,2.5c1.5,0.6,2.7,0.7,3,0.2
			l2.3,2.1V418L-199,418.1z"/>
		<path id="XMLID_64_" d="M-196,422.1l-3-2.7c-0.8,0.3-2.1,0-3.2-0.5c-1.6-0.7-3.4-2-3.4-3.1c0-0.4,0.2-0.7,0.5-0.9
			c0.9-0.6,2.6,0,3.3,0.3c1.1,0.5,2.5,1.3,3.1,2.2l2.7-0.1V422.1z M-204.2,416c0.2,0.4,1.1,1.2,2.5,1.8c1,0.4,1.7,0.5,2.1,0.5
			c-0.3-0.5-1.3-1.3-2.6-1.8C-203.2,416-203.9,415.9-204.2,416z"/>
	</g>
	<g id="XMLID_262_">
		<path id="XMLID_42_" d="M-163.7,415.3c-1.6,0.7-3,1.8-3.4,2.6l-2.6-0.2v3.2l2.6-2.4c0.3,0.6,1.7,0.5,3.4-0.2
			c1.9-0.8,3.5-2.2,3.5-3C-160.2,414.4-161.8,414.4-163.7,415.3z"/>
		<path id="XMLID_47_" d="M-170.3,422.3V417l2.9,0.2c0.6-0.9,1.9-1.9,3.5-2.5c1.7-0.7,3.1-0.9,3.9-0.4c0.3,0.2,0.5,0.6,0.5,1
			c0,1.3-2,2.8-3.9,3.6c-1.6,0.7-2.9,0.8-3.7,0.5L-170.3,422.3z M-166.5,418.2c0.1,0.1,1,0.1,2.6-0.5c2-0.9,3.1-2.1,3.1-2.4
			c-0.1,0-1-0.1-2.6,0.6l0,0C-165.1,416.6-166.2,417.6-166.5,418.2L-166.5,418.2z"/>
	</g>
</g>
</svg>
