<?xml version="1.0" encoding="utf-8"?>
<!-- Generator: Adobe Illustrator 19.0.0, SVG Export Plug-In . SVG Version: 6.00 Build 0)  -->
<svg version="1.1" id="레이어_1" xmlns="http://www.w3.org/2000/svg" xmlns:xlink="http://www.w3.org/1999/xlink" x="0px"
	 y="0px" viewBox="-247 370.9 100 100" style="enable-background:new -247 370.9 100 100;" xml:space="preserve">
<g id="XMLID_613_">
	<path id="XMLID_614_" d="M-167.9,371.7c-5.7,0.3-10.8,3.4-13.3,8.5c-2,4.3-1.7,9.2,0.5,13.4l-45.5,45.6c-7-1.1-13.9,2.1-16.8,8.3
		c-2.4,5.2-1.4,11.1,2,15.6l4.8-10.3c0.7-1.6,2.6-2.2,4.1-1.5l9.3,4.3c1.6,0.7,2.2,2.6,1.5,4.1l-4.8,10.4c4.1-0.2,7.9-1.8,10.6-4.7
		c1.1-1.1,2-2.4,2.6-3.9c2-4.3,1.7-9.2-0.5-13.4c16.4-16.2,30.8-30.7,45.6-45.5c7,1.1,13.9-2.1,16.8-8.3c2.4-5.2,1.4-11.1-2-15.6
		l-4.8,10.3c-0.7,1.6-2.6,2.2-4.1,1.5l-9.3-4.3c-1.6-0.7-2.2-2.6-1.5-4.1L-167.9,371.7z M-233,373.3c-2.9,0-5.8,1.1-8,3.3
		c-4.4,4.4-4.4,11.6,0,16c9.5,9.5,19.3,19.3,28.8,28.8l2.4-2.4l-28.1-28.1c-0.9-0.9-0.9-2.3,0-3.2c0.9-0.9,2.3-0.9,3.2,0l28.1,28.1
		l4.8-4.8l-28.2-28.1c-0.9-0.9-0.9-2.3,0-3.2s2.3-0.9,3.2,0l28.1,28.1l2.4-2.4c-9.8-9.9-19.8-19.9-28.7-28.8
		C-227.2,374.4-230.1,373.3-233,373.3z M-181.2,401.7c0.5-0.1,1,0.1,1.4,0.4l1.6,1.6c0.6,0.6,0.6,1.6,0,2.2l-33.8,33.7
		c-0.6,0.6-1.6,0.6-2.2,0l-1.6-1.6c-0.6-0.6-0.6-1.6,0-2.2l33.8-33.6C-181.7,401.9-181.5,401.8-181.2,401.7z M-187.2,425.9
		c-1.7,1.7-3.4,3.4-5.1,5.1l16.5,16.4c3,3,7,12.8,7,12.8l14.2,8.4c1.7-1.7,3.2-3.2,5-5l-8.4-14.2c0,0-9.8-4-12.7-7L-187.2,425.9z"/>
</g>
</svg>
