<?xml version="1.0" encoding="utf-8"?>
<!-- Generator: Adobe Illustrator 19.0.0, SVG Export Plug-In . SVG Version: 6.00 Build 0)  -->
<svg version="1.1" id="레이어_1" xmlns="http://www.w3.org/2000/svg" xmlns:xlink="http://www.w3.org/1999/xlink" x="0px"
	 y="0px" viewBox="0 0 86.5 100" style="enable-background:new 0 0 86.5 100;" xml:space="preserve">
<style type="text/css">
	.st0{fill:#FFFFFF;}
	.st1{clip-path:url(#SVGID_2_);}
	.st2{fill:#492F17;}
</style>
<g id="XMLID_490_">
	<g id="XMLID_492_">
		<g id="XMLID_640_">
			<g id="XMLID_984_">
				<g id="XMLID_1000_">
				</g>
				<g id="XMLID_985_">
					<g id="XMLID_986_">
						<path class="st0" d="M17,78c-1.1,0-2.1-0.3-3.1-0.9c-1.2-0.8-2-2.1-2.3-3.5L0.2,14c-0.6-3,1.4-5.9,4.4-6.4l32.2-6.2
							c1.4-0.3,2.9,0,4.1,0.8c1.2,0.8,2,2.1,2.3,3.5l11.5,59.5c0.6,3-1.4,5.9-4.4,6.4l-32.2,6.2C17.7,78,17.4,78,17,78z M37.8,3.3
							c-0.2,0-0.4,0-0.7,0.1L4.9,9.6C3,9.9,1.8,11.8,2.1,13.7l11.5,59.5c0.2,0.9,0.7,1.7,1.5,2.2c0.8,0.5,1.7,0.7,2.6,0.5l32.2-6.2
							c1.9-0.4,3.1-2.2,2.8-4.1L41.2,6.1c-0.2-0.9-0.7-1.7-1.5-2.2C39.1,3.5,38.4,3.3,37.8,3.3z"/>
					</g>
				</g>
			</g>
			<g id="XMLID_972_">
				<g id="XMLID_976_">
					<path class="st0" d="M12.1,23.2c-3.2,0-5.8-2.6-5.8-5.8s2.6-5.8,5.8-5.8s5.8,2.6,5.8,5.8S15.3,23.2,12.1,23.2z M12.1,13.6
						c-2.1,0-3.8,1.7-3.8,3.8s1.7,3.8,3.8,3.8s3.8-1.7,3.8-3.8S14.2,13.6,12.1,13.6z"/>
				</g>
			</g>
			<g id="XMLID_641_">
				<g id="XMLID_963_">
					<circle class="st0" cx="12.1" cy="17.4" r="1.2"/>
				</g>
			</g>
		</g>
		<g id="XMLID_497_">
			<g id="XMLID_505_">
				<defs>
					<path id="SVGID_1_" d="M81.1,91.2l-32.2,6.2c-2.4,0.5-4.8-1.1-5.3-3.6L32.2,34.3c-0.5-2.4,1.1-4.8,3.6-5.3l32.2-6.2
						c2.4-0.5,4.8,1.1,5.3,3.6l11.5,59.5C85.1,88.4,83.5,90.7,81.1,91.2z"/>
				</defs>
				<clipPath id="SVGID_2_">
					<use xlink:href="#SVGID_1_"  style="overflow:visible;"/>
				</clipPath>
				<g id="XMLID_639_" class="st1">
					<rect x="-2.1" y="21.1" class="st2" width="101.8" height="90.7"/>
				</g>
				<g id="XMLID_507_" class="st1">
					<g id="XMLID_638_">
						<path id="XMLID_9_" class="st0" d="M7.3,104.9L86.8,91L85,80.3c-7,2.9-7.2,5.9-19.5,6c-9.6,0.1-19.4,8.7-35.1,7.4
							c-15.8-1.3-17.2,1.2-24.3,4.8L7.3,104.9z"/>
					</g>
					<g id="XMLID_637_">
						<path id="XMLID_8_" class="st0" d="M62.7,76.6c-0.8,3.5,2.5,5.9,3.4,8.6l-0.6,0c-0.9,0-1.7,0.1-2.6,0.2
							c-0.6-2.8-3.8-4-2.9-8.1c1.1-4.9-4.5-7.9-6.6-8.4C58,68.7,63.6,72.3,62.7,76.6z"/>
					</g>
					<g id="XMLID_636_">
						<path id="XMLID_7_" class="st0" d="M62.5,58.1c-1.7,6.7,5.9,8.4,7.3,13c1.3,4.5-2.6,8,0.3,13.9c-0.9,0.1-1.9,0.1-2.8,0.2
							c-5.9-5.5,1.3-11.7-3.9-14.3C56.9,67.7,60.4,60.5,62.5,58.1z"/>
					</g>
					<g id="XMLID_635_">
						<path id="XMLID_6_" class="st0" d="M76.1,70.4c2.4,5.5-2.1,8.3-2,13.8c-1,0.3-2,0.5-3,0.6c-1.2-5.6,2-7.3-0.4-13.3
							c-2.4-5.9,2.5-12.7,7.4-14.9C76.2,58.4,73.1,63.5,76.1,70.4z"/>
					</g>
					<g id="XMLID_634_">
						<path id="XMLID_5_" class="st0" d="M59.1,41.5c-3.5,0.6-5.9-3.2-9.1-1.6c-7.2,3.7-3.1,10.2,2.7,8.4c2.8-0.9,5-2.6,5.5-3
							c2.2-1.9,2.7,1.9,5,1.2c1.6-0.5,0.5-7.6-0.9-7.6C60.5,38.9,59.7,41.4,59.1,41.5z"/>
					</g>
					<g id="XMLID_632_">
						<path id="XMLID_1_" class="st0" d="M42.3,58.4c2.6-0.4,3.3-3.8,6-3.4c6,0.8,4.8,6.4,0.2,6.6c-2.2,0.1-4.2-0.6-4.7-0.7
							c-2-0.8-1.4,2-3.3,2.1c-1.3,0.1-2.3-5.3-1.3-5.6C40.6,56.9,41.8,58.5,42.3,58.4z"/>
					</g>
				</g>
			</g>
			<g id="XMLID_498_">
				<defs>
					<path id="SVGID_3_" d="M81.1,91.2l-32.2,6.2c-2.4,0.5-4.8-1.1-5.3-3.6L32.2,34.3c-0.5-2.4,1.1-4.8,3.6-5.3l32.2-6.2
						c2.4-0.5,4.8,1.1,5.3,3.6l11.5,59.5C85.1,88.4,83.5,90.7,81.1,91.2z"/>
				</defs>
				<clipPath id="SVGID_4_">
					<use xlink:href="#SVGID_3_"  style="overflow:visible;"/>
				</clipPath>
			</g>
		</g>
		<g id="XMLID_494_">
			<path id="XMLID_2_" class="st0" d="M48,99c-1.2,0-2.3-0.4-3.3-1c-1.3-0.9-2.2-2.3-2.5-3.8L30.7,34.6c-0.6-3.2,1.5-6.4,4.7-7
				l32.2-6.2c1.6-0.3,3.2,0,4.5,0.9c1.3,0.9,2.2,2.3,2.5,3.8l11.5,59.5c0.6,3.2-1.5,6.4-4.8,7h0l-32.2,6.2C48.8,99,48.4,99,48,99z
				 M68.8,24.3c-0.2,0-0.4,0-0.6,0.1L36,30.5c-1.6,0.3-2.7,1.9-2.4,3.5l11.5,59.5c0.1,0.8,0.6,1.5,1.3,1.9c0.7,0.4,1.5,0.6,2.2,0.5
				l32.2-6.2c1.6-0.3,2.7-1.9,2.4-3.5L71.7,26.7c-0.2-0.8-0.6-1.5-1.3-1.9C69.9,24.5,69.3,24.3,68.8,24.3z"/>
		</g>
	</g>
</g>
</svg>
