<?xml version="1.0" encoding="utf-8"?>
<!-- Generator: Adobe Illustrator 19.0.0, SVG Export Plug-In . SVG Version: 6.00 Build 0)  -->
<svg version="1.1" id="레이어_1" xmlns="http://www.w3.org/2000/svg" xmlns:xlink="http://www.w3.org/1999/xlink" x="0px"
	 y="0px" viewBox="-152 300.4 289.5 240.5" style="enable-background:new -152 300.4 289.5 240.5;" xml:space="preserve">
<style type="text/css">
	.st0{opacity:0.7;fill:#845823;}
	.st1{fill:url(#SVGID_1_);}
	.st2{fill:url(#SVGID_2_);}
	.st3{fill:url(#SVGID_3_);}
	.st4{clip-path:url(#XMLID_2_);fill:none;stroke:#EBE719;stroke-width:2;stroke-miterlimit:10;}
	.st5{fill:none;stroke:#FFFFFF;stroke-width:3;stroke-miterlimit:10;}
	.st6{fill:#263473;}
	.st7{fill:#39688B;}
	.st8{fill:#F1F1F2;}
	.st9{font-family:'Dotum';}
	.st10{font-size:14.0023px;}
	.st11{font-size:14px;}
</style>
<circle id="XMLID_370_" class="st0" cx="-25.1" cy="421" r="109.3"/>
<g id="XMLID_177_">
	<g>
		<linearGradient id="SVGID_1_" gradientUnits="userSpaceOnUse" x1="27" y1="453.1052" x2="202.3412" y2="453.1052">
			<stop  offset="0" style="stop-color:#414141"/>
			<stop  offset="0.5517" style="stop-color:#FFFFFF"/>
			<stop  offset="1" style="stop-color:#FFFFFF"/>
		</linearGradient>
		<rect x="42.7" y="451.1" class="st1" width="2.5" height="4"/>
	</g>
	<g>
		<linearGradient id="SVGID_2_" gradientUnits="userSpaceOnUse" x1="27" y1="453.1052" x2="202.3412" y2="453.1052">
			<stop  offset="0" style="stop-color:#414141"/>
			<stop  offset="0.5517" style="stop-color:#FFFFFF"/>
			<stop  offset="1" style="stop-color:#FFFFFF"/>
		</linearGradient>
		<path class="st2" d="M158.6,455.1h-5.2v-4h5.2V455.1z M148.3,455.1h-5.2v-4h5.2V455.1z M137.9,455.1h-5.2v-4h5.2V455.1z
			 M127.6,455.1h-5.2v-4h5.2V455.1z M117.3,455.1h-5.2v-4h5.2V455.1z M107,455.1h-5.2v-4h5.2V455.1z M96.7,455.1h-5.2v-4h5.2V455.1z
			 M86.4,455.1h-5.2v-4h5.2V455.1z M76.1,455.1h-5.2v-4h5.2V455.1z M65.8,455.1h-5.2v-4h5.2V455.1z M55.5,455.1h-5.2v-4h5.2V455.1z"
			/>
	</g>
	<g>
		<linearGradient id="SVGID_3_" gradientUnits="userSpaceOnUse" x1="27" y1="453.1052" x2="202.3412" y2="453.1052">
			<stop  offset="0" style="stop-color:#414141"/>
			<stop  offset="0.5517" style="stop-color:#FFFFFF"/>
			<stop  offset="1" style="stop-color:#FFFFFF"/>
		</linearGradient>
		<rect x="163.7" y="451.1" class="st3" width="2.5" height="4"/>
	</g>
</g>
<g>
	<defs>
		<circle id="XMLID_22_" cx="-24.4" cy="454.4" r="69.2"/>
	</defs>
	<clipPath id="XMLID_2_">
		<use xlink:href="#XMLID_22_"  style="overflow:visible;"/>
	</clipPath>
	<line id="XMLID_1003_" class="st4" x1="-50.4" y1="350.9" x2="96.6" y2="497.9"/>
	<line id="XMLID_5_" class="st4" x1="-47.9" y1="343" x2="99.1" y2="489.9"/>
	<line id="XMLID_6_" class="st4" x1="-58" y1="354.8" x2="89" y2="501.8"/>
	<line id="XMLID_7_" class="st4" x1="-65.4" y1="358.1" x2="81.5" y2="505"/>
	<line id="XMLID_8_" class="st4" x1="-72.9" y1="361.3" x2="74.1" y2="508.3"/>
	<line id="XMLID_9_" class="st4" x1="-80.3" y1="364.6" x2="66.6" y2="511.5"/>
	<line id="XMLID_10_" class="st4" x1="-87.8" y1="367.8" x2="59.2" y2="514.8"/>
	<line id="XMLID_11_" class="st4" x1="-95.2" y1="371.1" x2="51.7" y2="518"/>
	<line id="XMLID_12_" class="st4" x1="-102.7" y1="374.3" x2="44.3" y2="521.3"/>
	<line id="XMLID_13_" class="st4" x1="-110.1" y1="377.6" x2="36.8" y2="524.5"/>
	<line id="XMLID_14_" class="st4" x1="-117.6" y1="380.8" x2="29.4" y2="527.8"/>
	<line id="XMLID_15_" class="st4" x1="-125" y1="384.1" x2="21.9" y2="531"/>
	<line id="XMLID_16_" class="st4" x1="-132.5" y1="387.3" x2="14.5" y2="534.3"/>
	<line id="XMLID_17_" class="st4" x1="-139.9" y1="390.6" x2="7" y2="537.5"/>
	<line id="XMLID_18_" class="st4" x1="-147.4" y1="393.8" x2="-0.4" y2="540.8"/>
	<line id="XMLID_19_" class="st4" x1="-154.8" y1="397.1" x2="-7.9" y2="544"/>
	<line id="XMLID_20_" class="st4" x1="-162.3" y1="400.3" x2="-15.3" y2="547.3"/>
	<line id="XMLID_21_" class="st4" x1="-169.8" y1="403.6" x2="-22.8" y2="550.5"/>
</g>
<circle id="XMLID_369_" class="st5" cx="-25.1" cy="453.8" r="69.2"/>
<circle id="XMLID_82_" class="st6" cx="-25.1" cy="485.4" r="19.8"/>
<circle id="XMLID_92_" class="st7" cx="-25.1" cy="431.1" r="29.7"/>
<text id="XMLID_69_" transform="matrix(1 0 0 1 -39.0962 435.9983)" class="st8 st9 st10">서울</text>
<text id="XMLID_67_" transform="matrix(1 0 0 1 -46.0938 364.4417)" class="st8 st9 st11">경기도</text>
<text id="XMLID_66_" transform="matrix(1 0 0 1 -39.0939 490.3596)" class="st8 st9 st11">수원</text>
</svg>
