<?xml version="1.0" encoding="utf-8"?>
<!-- Generator: Adobe Illustrator 19.0.0, SVG Export Plug-In . SVG Version: 6.00 Build 0)  -->
<svg version="1.1" id="레이어_1" xmlns="http://www.w3.org/2000/svg" xmlns:xlink="http://www.w3.org/1999/xlink" x="0px"
	 y="0px" viewBox="0 0 205.9 305" style="enable-background:new 0 0 205.9 305;" xml:space="preserve">
<style type="text/css">
	.st0{fill:#FFFFFF;}
</style>
<g id="XMLID_1_">
	<g id="XMLID_420_">
		<path id="XMLID_3_" class="st0" d="M78.5,107.9c-6.4,0-11.8,5.2-11.8,11.8c0,6.4,5.2,11.5,11.8,11.5c6.4,0,11.5-5.2,11.5-11.5
			C90,113,84.8,107.9,78.5,107.9z M127.1,131.3c6.4,0,11.5-5.2,11.5-11.5s-5.2-11.8-11.5-11.8c-6.4,0-11.8,5.2-11.8,11.8
			C115.5,126.1,120.7,131.3,127.1,131.3z M29.6,58.1c-6.4,0-11.8,5.2-11.8,11.8c0,6.4,5.2,11.5,11.8,11.5c6.4,0,11.5-5.2,11.5-11.5
			C41.4,63.5,36.3,58.1,29.6,58.1z M78.5,58.1c-6.4,0-11.8,5.2-11.8,11.8c0,6.4,5.2,11.5,11.8,11.5c6.4,0,11.5-5.2,11.5-11.5
			C90,63.5,84.8,58.1,78.5,58.1z M127.1,81.4c6.4,0,11.5-5.2,11.5-11.5s-5.2-11.8-11.5-11.8c-6.4,0-11.8,5.2-11.8,11.8
			C115.5,76.3,120.7,81.4,127.1,81.4z M29.6,8.3c-6.4,0-11.8,5.2-11.8,11.5s5.2,11.5,11.8,11.5c6.4,0,11.5-5.2,11.5-11.5
			S36.3,8.3,29.6,8.3z M78.5,8.3c-6.4,0-11.8,5.2-11.8,11.5s5.2,11.5,11.8,11.5c6.4,0,11.5-5.2,11.5-11.5S84.8,8.3,78.5,8.3z
			 M127.1,31.6c6.4,0,11.5-5.2,11.5-11.5s-5.2-11.5-11.5-11.5c-6.4,0-11.8,5.2-11.8,11.5S120.7,31.6,127.1,31.6z"/>
		<path id="XMLID_15_" class="st0" d="M127.1,133.9c-7.8,0-14.1-6.2-14.5-14.1c0-8.1,6.5-14.6,14.5-14.6c7.8,0,14.2,6.5,14.2,14.5
			C141.3,127.5,134.9,133.9,127.1,133.9z M127.1,110.5c-5.1,0-9.2,4.1-9.2,9.2c0.2,4.9,4.3,8.9,9.2,8.9c4.9,0,8.9-4,8.9-8.9
			C135.9,114.7,131.9,110.5,127.1,110.5z M78.5,133.9c-8.1,0-14.5-6.2-14.5-14.2c0-8,6.5-14.5,14.5-14.5c8,0,14.2,6.4,14.2,14.5
			C92.7,127.5,86.3,133.9,78.5,133.9z M78.5,110.5c-5.1,0-9.2,4.1-9.2,9.2c0,5,4,8.9,9.2,8.9c4.9,0,8.9-4,8.9-8.9
			C87.3,114.6,83.4,110.5,78.5,110.5z M127.1,84.1c-7.8,0-14.1-6.2-14.5-14.1c0-8.1,6.5-14.6,14.5-14.6c7.8,0,14.2,6.5,14.2,14.5
			C141.3,77.7,134.9,84.1,127.1,84.1z M127.1,60.7c-5.1,0-9.2,4.1-9.2,9.2c0.2,4.9,4.3,8.9,9.2,8.9c4.9,0,8.9-4,8.9-8.9
			C135.9,64.9,131.9,60.7,127.1,60.7z M78.5,84.1c-8.1,0-14.5-6.2-14.5-14.2c0-8,6.5-14.5,14.5-14.5c7.8,0,14.2,6.5,14.2,14.5
			C92.7,77.7,86.3,84.1,78.5,84.1z M78.5,60.7c-5.1,0-9.2,4.1-9.2,9.2c0,5,4,8.9,9.2,8.9c4.9,0,8.9-4,8.9-8.9
			C87.3,64.9,83.3,60.7,78.5,60.7z M29.6,84.1c-8.1,0-14.5-6.2-14.5-14.2c0-8,6.5-14.5,14.5-14.5c4,0,7.7,1.6,10.4,4.4
			c2.7,2.8,4,6.4,3.8,10.2C43.8,77.7,37.4,84.1,29.6,84.1z M29.6,60.7c-5.1,0-9.2,4.1-9.2,9.2c0,5,4,8.9,9.2,8.9
			c4.9,0,8.9-4,8.9-8.9c0.1-2.5-0.7-4.7-2.4-6.4C34.4,61.7,32.1,60.7,29.6,60.7z M127.1,34.3c-8,0-14.5-6.4-14.5-14.2
			S119,5.9,127.1,5.9c7.8,0,14.2,6.4,14.2,14.2S134.9,34.3,127.1,34.3z M127.1,11.2c-5,0-9.2,4.1-9.2,8.9s4.2,8.9,9.2,8.9
			c4.9,0,8.9-4,8.9-8.9C135.9,15.2,131.9,11.2,127.1,11.2z M78.5,34c-8.1,0-14.5-6.2-14.5-14.2c0-7.8,6.5-14.2,14.5-14.2
			c7.8,0,14.2,6.4,14.2,14.2S86.3,34,78.5,34z M78.5,10.9c-5,0-9.2,4.1-9.2,8.9c0,5,4,8.9,9.2,8.9c4.9,0,8.9-4,8.9-8.9
			S83.4,10.9,78.5,10.9z M29.6,34c-8.1,0-14.5-6.2-14.5-14.2c0-7.8,6.5-14.2,14.5-14.2c8,0,14.2,6.2,14.2,14.2
			C43.8,27.6,37.4,34,29.6,34z M29.6,10.9c-5,0-9.2,4.1-9.2,8.9c0,5,4,8.9,9.2,8.9c4.9,0,8.9-4,8.9-8.9
			C38.4,14.7,34.6,10.9,29.6,10.9z"/>
	</g>
	<g id="XMLID_419_">
		<path id="XMLID_4_" class="st0" d="M142.3,299.9c-5,0-10.1-1.6-14.3-4.8c-21.2-16.3-47.6-21.7-47.9-21.7c-8-1.7-14.3-3.8-21-8.6
			c-2-1.4-4.5-2.9-7-4.4c-2.6-1.5-5.3-3.1-7.6-4.7c-11-7.3-22.5-13.1-34.2-17.1c-3.7-1.3-6.3-3.3-7.6-6c-1.3-2.8-1.2-6,0.3-9.9
			c1.2-3.7,5.5-7.8,8.8-9.6c7.4-3.7,15.1-3.2,21.6-2.3c2.8,0.2,9.1,3,19,7.5c3.8,1.7,7.3,3.3,9.9,4.3c0.6,0.2,1,0.3,1.2,0.3
			c0.2-0.5,0.7-2.1,0.3-6.5c-0.2-2.3-1.3-4.9-2.3-7.4l-0.4-1c-10.7-19.8-21.9-39.6-32.7-58.8c-4-7.1-8-14.2-12.1-21.4
			c-4.4-7.5-2.6-16.2,4.2-21c7.3-4.7,16.5-3.1,21.6,3.6c5.8,7.3,11.6,14.6,17.3,22.2c2.6,3.5,5.2,6.8,7.8,10.1
			c2.6,3.3,5.4,6.7,8,10.3l4.8,5.9c9.8-3.2,43.7-12.8,82.2-3.7c3.9,1,6.8,3.4,8.2,6.8c11.5,21.6,18.8,41.9,21.2,58.8
			c1.2,4,2.7,7.7,3.9,10.7c0.5,1.2,0.9,2.3,1.3,3.3l5.3,8.6c3.4,5.9,2.1,13.3-3,17.5l-41.9,34C152.8,298.1,147.6,299.9,142.3,299.9z
			 M25.3,218.2c-3.4,0-6.7,0.5-9.7,2c-1.9,1.1-4.5,3.7-5,5.3c-0.7,1.8-0.9,3.1-0.6,3.8c0.3,0.6,1.3,1.3,2.9,1.8
			c12.3,4.2,24.5,10.3,36.2,18.1c2.1,1.5,4.6,3,7.1,4.4c2.6,1.5,5.3,3.1,7.6,4.8c5.6,4,11,5.7,18,7.2c1.1,0.2,28.4,5.8,51.1,23.2
			c5.7,4.3,13.7,4.2,19.4-0.3l41.9-34c2.1-1.8,2.6-4.8,1.2-7.3l-5.8-9.5c-0.4-1-0.8-2.1-1.3-3.5c-1.3-3.2-2.9-7.2-4.2-11.7l-0.1-0.6
			c-2.2-16.1-9.3-35.7-20.5-56.7l-0.2-0.5c-0.5-1.3-1.9-1.9-2.7-2.1c-42.2-9.9-79.8,4.3-80.2,4.4l-2.7,1L69,157.8
			c-2.7-3.6-5.3-7-7.9-10.2c-2.6-3.3-5.4-6.7-8-10.3c-5.7-7.4-11.5-14.8-17.1-21.9l-0.2-0.3c-2.6-3.3-7.2-4.1-10.7-1.8
			c-3.3,2.3-4,6.5-1.7,10.4c4,7.2,8.1,14.3,12.1,21.4c10.9,19.3,22.2,39.3,32.9,59.2l0.2,0.4l0.5,1.2c1.2,2.9,2.5,6.2,2.8,9.7
			c0.4,4.8,0.4,10.7-3.5,13.7c-1.6,1.2-4.4,2.3-8.9,0.7c-2.8-1.1-6.4-2.8-10.3-4.5c-5.4-2.5-14.5-6.6-16.6-6.8
			C30.2,218.4,27.8,218.2,25.3,218.2z"/>
	</g>
</g>
</svg>
