<?xml version="1.0" encoding="utf-8"?>
<!-- Generator: Adobe Illustrator 19.0.0, SVG Export Plug-In . SVG Version: 6.00 Build 0)  -->
<svg version="1.1" xmlns="http://www.w3.org/2000/svg" xmlns:xlink="http://www.w3.org/1999/xlink" x="0px" y="0px"
	 viewBox="-377 248.3 86.5 100" style="enable-background:new -377 248.3 86.5 100;" xml:space="preserve">
<style type="text/css">
	.st0{clip-path:url(#XMLID_2_);}
	.st1{fill:#FFFFFF;}
	.st2{fill:none;stroke:#FFFFFF;stroke-width:2;stroke-miterlimit:10;}
	.st3{fill:none;}
</style>
<g id="레이어_1">
	<g id="XMLID_497_">
		<g id="XMLID_505_">
			<defs>
				<path id="XMLID_506_" d="M-296.6,338l-31.1,6c-2.3,0.5-4.6-1.1-5.1-3.4l-11.1-57.5c-0.4-2.3,1.1-4.6,3.4-5.1l31.1-6
					c2.3-0.5,4.6,1.1,5.1,3.4l11.1,57.5C-292.7,335.3-294.3,337.6-296.6,338z"/>
			</defs>
			<clipPath id="XMLID_2_">
				<use xlink:href="#XMLID_506_"  style="overflow:visible;"/>
			</clipPath>
			<g id="XMLID_507_" class="st0">
				<path id="XMLID_638_" class="st1" d="M-368,351.3l76.9-13.5l-1.8-10.3c-6.7,2.8-7,5.7-18.8,5.8c-9.3,0.1-18.8,8.4-33.9,7.2
					c-15.2-1.2-16.6,1.1-23.5,4.7L-368,351.3z"/>
				<path id="XMLID_637_" class="st1" d="M-314.4,323.9c-0.7,3.4,2.4,5.7,3.3,8.3l-0.5,0c-0.8,0-1.7,0.1-2.5,0.2
					c-0.6-2.8-3.7-3.9-2.8-7.8c1-4.7-4.4-7.6-6.4-8.1C-318.9,316.3-313.5,319.8-314.4,323.9z"/>
				<path id="XMLID_636_" class="st1" d="M-314.6,306c-1.6,6.5,5.7,8.1,7,12.6c1.3,4.3-2.5,7.8,0.3,13.4c-0.9,0.1-1.8,0.1-2.7,0.2
					c-5.7-5.3,1.3-11.4-3.8-13.8C-320,315.3-316.6,308.4-314.6,306z"/>
				<path id="XMLID_635_" class="st1" d="M-301.4,318c2.3,5.3-2,8.1-2,13.3c-1,0.3-1.9,0.5-2.9,0.6c-1.1-5.4,1.9-7-0.4-12.9
					c-2.3-5.7,2.4-12.2,7.2-14.4C-301.4,306.4-304.3,311.3-301.4,318z"/>
				<path id="XMLID_634_" class="st1" d="M-317.9,290c-3.4,0.6-5.7-3.1-8.8-1.5c-6.9,3.6-3,9.8,2.6,8.1c2.7-0.8,4.8-2.5,5.3-2.9
					c2.1-1.9,2.6,1.8,4.9,1.1c1.5-0.5,0.5-7.4-0.8-7.3C-316.5,287.5-317.3,289.9-317.9,290z"/>
				<path id="XMLID_632_" class="st1" d="M-334.2,306.3c2.6-0.4,3.2-3.7,5.8-3.3c5.8,0.8,4.6,6.2,0.2,6.4c-2.1,0.1-4-0.5-4.5-0.7
					c-2-0.8-1.4,1.9-3.1,2c-1.2,0.1-2.2-5.1-1.3-5.4C-335.8,304.9-334.6,306.4-334.2,306.3z"/>
			</g>
		</g>
		<g id="XMLID_498_">
			<defs>
				<path id="XMLID_504_" d="M-296.6,338l-31.1,6c-2.3,0.5-4.6-1.1-5.1-3.4l-11.1-57.5c-0.4-2.3,1.1-4.6,3.4-5.1l31.1-6
					c2.3-0.5,4.6,1.1,5.1,3.4l11.1,57.5C-292.7,335.3-294.3,337.6-296.6,338z"/>
			</defs>
			<clipPath id="XMLID_3_">
				<use xlink:href="#XMLID_504_"  style="overflow:visible;"/>
			</clipPath>
		</g>
	</g>
	<path id="XMLID_494_" class="st2" d="M-296.6,338l-31.1,6c-2.3,0.5-4.6-1.1-5.1-3.4l-11.1-57.5c-0.4-2.3,1.1-4.6,3.4-5.1l31.1-6
		c2.3-0.5,4.6,1.1,5.1,3.4l11.1,57.5C-292.7,335.3-294.3,337.6-296.6,338z"/>
	<g>
		<path class="st3" d="M-363.3,263c-2,0-3.7,1.7-3.7,3.7c0,2,1.7,3.7,3.7,3.7s3.7-1.7,3.7-3.7C-359.6,264.7-361.3,263-363.3,263z
			 M-363.3,267.9c-0.7,0-1.2-0.5-1.2-1.2c0-0.7,0.5-1.2,1.2-1.2c0.7,0,1.2,0.5,1.2,1.2C-362.1,267.4-362.6,267.9-363.3,267.9z"/>
		<path class="st3" d="M-363.3,272.4c-3.1,0-5.6-2.5-5.6-5.6c0-3.1,2.5-5.6,5.6-5.6s5.6,2.5,5.6,5.6
			C-357.7,269.8-360.2,272.4-363.3,272.4z"/>
	</g>
	<circle class="st1" cx="-363.3" cy="266.7" r="1.2"/>
	<path class="st1" d="M-357.9,323.3c-0.9,0.2-1.8,0-2.5-0.5c-0.8-0.5-1.3-1.3-1.4-2.2l-11.1-57.5c-0.4-1.8,0.8-3.6,2.7-4l31.1-6
		c0.2,0,0.4-0.1,0.6-0.1c0.7,0,1.3,0.2,1.9,0.6c0.8,0.5,1.3,1.3,1.4,2.2l3.9,20.4l1.9-0.4l-3.9-20.4c-0.3-1.4-1.1-2.6-2.2-3.4
		c-1.2-0.8-2.6-1.1-4-0.8l-31.1,6c-2.9,0.6-4.8,3.3-4.2,6.2l11.1,57.5c0.3,1.4,1.1,2.6,2.2,3.4c0.9,0.6,1.9,0.9,3,0.9
		c0.3,0,0.7,0,1-0.1l20.9-4l-0.4-1.9L-357.9,323.3z"/>
	<path class="st1" d="M-363.3,261.1c-3.1,0-5.6,2.5-5.6,5.6c0,3.1,2.5,5.6,5.6,5.6s5.6-2.5,5.6-5.6
		C-357.7,263.6-360.2,261.1-363.3,261.1z M-363.3,270.4c-2,0-3.7-1.7-3.7-3.7c0-2,1.7-3.7,3.7-3.7s3.7,1.7,3.7,3.7
		C-359.6,268.8-361.3,270.4-363.3,270.4z"/>
</g>
<g id="레이어_2">
</g>
</svg>
