<?xml version="1.0" encoding="utf-8"?>
<!-- Generator: Adobe Illustrator 19.0.0, SVG Export Plug-In . SVG Version: 6.00 Build 0)  -->
<svg version="1.1" xmlns="http://www.w3.org/2000/svg" xmlns:xlink="http://www.w3.org/1999/xlink" x="0px" y="0px"
	 viewBox="-317 145.3 205.9 305" style="enable-background:new -317 145.3 205.9 305;" xml:space="preserve">
<style type="text/css">
	.st0{fill:#FFFFFF;}
	.st1{opacity:0.2;}
</style>
<g id="레이어_1">
	<g id="XMLID_1_">
		<g id="XMLID_420_">
			<path id="XMLID_3_" class="st0" d="M-238.5,253.2c-6.4,0-11.8,5.2-11.8,11.8c0,6.4,5.2,11.5,11.8,11.5c6.4,0,11.5-5.2,11.5-11.5
				C-227,258.3-232.2,253.2-238.5,253.2z M-287.4,203.4c-6.4,0-11.8,5.2-11.8,11.8c0,6.4,5.2,11.5,11.8,11.5
				c6.4,0,11.5-5.2,11.5-11.5C-275.6,208.8-280.7,203.4-287.4,203.4z M-238.5,203.4c-6.4,0-11.8,5.2-11.8,11.8
				c0,6.4,5.2,11.5,11.8,11.5c6.4,0,11.5-5.2,11.5-11.5C-227,208.8-232.2,203.4-238.5,203.4z M-189.9,226.7
				c6.4,0,11.5-5.2,11.5-11.5s-5.2-11.8-11.5-11.8c-6.4,0-11.8,5.2-11.8,11.8C-201.5,221.6-196.3,226.7-189.9,226.7z M-238.5,153.6
				c-6.4,0-11.8,5.2-11.8,11.5s5.2,11.5,11.8,11.5c6.4,0,11.5-5.2,11.5-11.5S-232.2,153.6-238.5,153.6z"/>
			<path id="XMLID_15_" class="st0" d="M-238.5,279.2c-8.1,0-14.5-6.2-14.5-14.2s6.5-14.5,14.5-14.5s14.2,6.4,14.2,14.5
				C-224.3,272.8-230.7,279.2-238.5,279.2z M-238.5,255.8c-5.1,0-9.2,4.1-9.2,9.2c0,5,4,8.9,9.2,8.9c4.9,0,8.9-4,8.9-8.9
				C-229.7,259.9-233.6,255.8-238.5,255.8z M-189.9,229.4c-7.8,0-14.1-6.2-14.5-14.1c0-8.1,6.5-14.6,14.5-14.6
				c7.8,0,14.2,6.5,14.2,14.5C-175.7,223-182.1,229.4-189.9,229.4z M-189.9,206c-5.1,0-9.2,4.1-9.2,9.2c0.2,4.9,4.3,8.9,9.2,8.9
				s8.9-4,8.9-8.9C-181.1,210.2-185.1,206-189.9,206z M-238.5,229.4c-8.1,0-14.5-6.2-14.5-14.2s6.5-14.5,14.5-14.5
				c7.8,0,14.2,6.5,14.2,14.5C-224.3,223-230.7,229.4-238.5,229.4z M-238.5,206c-5.1,0-9.2,4.1-9.2,9.2c0,5,4,8.9,9.2,8.9
				c4.9,0,8.9-4,8.9-8.9C-229.7,210.2-233.7,206-238.5,206z M-287.4,229.4c-8.1,0-14.5-6.2-14.5-14.2s6.5-14.5,14.5-14.5
				c4,0,7.7,1.6,10.4,4.4s4,6.4,3.8,10.2C-273.2,223-279.6,229.4-287.4,229.4z M-287.4,206c-5.1,0-9.2,4.1-9.2,9.2
				c0,5,4,8.9,9.2,8.9c4.9,0,8.9-4,8.9-8.9c0.1-2.5-0.7-4.7-2.4-6.4C-282.6,207-284.9,206-287.4,206z M-238.5,179.3
				c-8.1,0-14.5-6.2-14.5-14.2c0-7.8,6.5-14.2,14.5-14.2c7.8,0,14.2,6.4,14.2,14.2S-230.7,179.3-238.5,179.3z M-238.5,156.2
				c-5,0-9.2,4.1-9.2,8.9c0,5,4,8.9,9.2,8.9c4.9,0,8.9-4,8.9-8.9C-229.6,160.2-233.6,156.2-238.5,156.2z"/>
		</g>
		<g id="XMLID_419_">
			<path id="XMLID_4_" class="st0" d="M-174.7,445.2c-5,0-10.1-1.6-14.3-4.8c-21.2-16.3-47.6-21.7-47.9-21.7c-8-1.7-14.3-3.8-21-8.6
				c-2-1.4-4.5-2.9-7-4.4c-2.6-1.5-5.3-3.1-7.6-4.7c-11-7.3-22.5-13.1-34.2-17.1c-3.7-1.3-6.3-3.3-7.6-6c-1.3-2.8-1.2-6,0.3-9.9
				c1.2-3.7,5.5-7.8,8.8-9.6c7.4-3.7,15.1-3.2,21.6-2.3c2.8,0.2,9.1,3,19,7.5c3.8,1.7,7.3,3.3,9.9,4.3c0.6,0.2,1,0.3,1.2,0.3
				c0.2-0.5,0.7-2.1,0.3-6.5c-0.2-2.3-1.3-4.9-2.3-7.4l-0.4-1c-10.7-19.8-21.9-39.6-32.7-58.8c-4-7.1-8-14.2-12.1-21.4
				c-4.4-7.5-2.6-16.2,4.2-21c7.3-4.7,16.5-3.1,21.6,3.6c5.8,7.3,11.6,14.6,17.3,22.2c2.6,3.5,5.2,6.8,7.8,10.1
				c2.6,3.3,5.4,6.7,8,10.3l4.8,5.9c9.8-3.2,43.7-12.8,82.2-3.7c3.9,1,6.8,3.4,8.2,6.8c11.5,21.6,18.8,41.9,21.2,58.8
				c1.2,4,2.7,7.7,3.9,10.7c0.5,1.2,0.9,2.3,1.3,3.3l5.3,8.6c3.4,5.9,2.1,13.3-3,17.5l-41.9,34
				C-164.2,443.4-169.4,445.2-174.7,445.2z M-291.7,363.5c-3.4,0-6.7,0.5-9.7,2c-1.9,1.1-4.5,3.7-5,5.3c-0.7,1.8-0.9,3.1-0.6,3.8
				c0.3,0.6,1.3,1.3,2.9,1.8c12.3,4.2,24.5,10.3,36.2,18.1c2.1,1.5,4.6,3,7.1,4.4c2.6,1.5,5.3,3.1,7.6,4.8c5.6,4,11,5.7,18,7.2
				c1.1,0.2,28.4,5.8,51.1,23.2c5.7,4.3,13.7,4.2,19.4-0.3l41.9-34c2.1-1.8,2.6-4.8,1.2-7.3l-5.8-9.5c-0.4-1-0.8-2.1-1.3-3.5
				c-1.3-3.2-2.9-7.2-4.2-11.7l-0.1-0.6c-2.2-16.1-9.3-35.7-20.5-56.7l-0.2-0.5c-0.5-1.3-1.9-1.9-2.7-2.1
				c-42.2-9.9-79.8,4.3-80.2,4.4l-2.7,1l-8.7-10.2c-2.7-3.6-5.3-7-7.9-10.2c-2.6-3.3-5.4-6.7-8-10.3c-5.7-7.4-11.5-14.8-17.1-21.9
				l-0.2-0.3c-2.6-3.3-7.2-4.1-10.7-1.8c-3.3,2.3-4,6.5-1.7,10.4c4,7.2,8.1,14.3,12.1,21.4c10.9,19.3,22.2,39.3,32.9,59.2l0.2,0.4
				l0.5,1.2c1.2,2.9,2.5,6.2,2.8,9.7c0.4,4.8,0.4,10.7-3.5,13.7c-1.6,1.2-4.4,2.3-8.9,0.7c-2.8-1.1-6.4-2.8-10.3-4.5
				c-5.4-2.5-14.5-6.6-16.6-6.8C-286.8,363.7-289.2,363.5-291.7,363.5z"/>
		</g>
	</g>
</g>
<g id="레이어_2" class="st1">
	<path class="st0" d="M-189.9,276.6c6.4,0,11.5-5.2,11.5-11.5c0-6.3-5.2-11.8-11.5-11.8c-6.4,0-11.8,5.2-11.8,11.8
		C-201.5,271.4-196.3,276.6-189.9,276.6z"/>
	<path class="st0" d="M-287.4,153.6c-6.4,0-11.8,5.2-11.8,11.5s5.2,11.5,11.8,11.5c6.4,0,11.5-5.2,11.5-11.5
		S-280.7,153.6-287.4,153.6z"/>
	<path class="st0" d="M-189.9,176.9c6.4,0,11.5-5.2,11.5-11.5s-5.2-11.5-11.5-11.5c-6.4,0-11.8,5.2-11.8,11.5
		S-196.3,176.9-189.9,176.9z"/>
	<path class="st0" d="M-189.9,279.2c-7.8,0-14.1-6.2-14.5-14.1c0-8.1,6.5-14.6,14.5-14.6c7.8,0,14.2,6.5,14.2,14.5
		C-175.7,272.8-182.1,279.2-189.9,279.2z"/>
	<path class="st0" d="M-189.9,255.8c-5.1,0-9.2,4.1-9.2,9.2c0.2,4.9,4.3,8.9,9.2,8.9s8.9-4,8.9-8.9
		C-181.1,260-185.1,255.8-189.9,255.8z"/>
	<path class="st0" d="M-189.9,179.6c-8,0-14.5-6.4-14.5-14.2c0-7.8,6.4-14.2,14.5-14.2c7.8,0,14.2,6.4,14.2,14.2
		S-182.1,179.6-189.9,179.6z"/>
	<path class="st0" d="M-189.9,156.5c-5,0-9.2,4.1-9.2,8.9c0,4.8,4.2,8.9,9.2,8.9c4.9,0,8.9-4,8.9-8.9
		C-181.1,160.5-185.1,156.5-189.9,156.5z"/>
	<path class="st0" d="M-287.4,179.3c-8.1,0-14.5-6.2-14.5-14.2c0-7.8,6.5-14.2,14.5-14.2s14.2,6.2,14.2,14.2
		C-273.2,172.9-279.6,179.3-287.4,179.3z"/>
	<path class="st0" d="M-287.4,156.2c-5,0-9.2,4.1-9.2,8.9c0,5,4,8.9,9.2,8.9c4.9,0,8.9-4,8.9-8.9
		C-278.6,160-282.4,156.2-287.4,156.2z"/>
</g>
</svg>
