<?xml version="1.0" encoding="utf-8"?>
<!-- Generator: Adobe Illustrator 19.0.0, SVG Export Plug-In . SVG Version: 6.00 Build 0)  -->
<svg version="1.1" id="레이어_1" xmlns="http://www.w3.org/2000/svg" xmlns:xlink="http://www.w3.org/1999/xlink" x="0px"
	 y="0px" viewBox="28 -35.7 86.5 100" style="enable-background:new 28 -35.7 86.5 100;" xml:space="preserve">
<style type="text/css">
	.st0{clip-path:url(#SVGID_2_);}
	.st1{fill:#C8C7C7;}
	.st2{fill:none;stroke:#231F20;stroke-width:2;stroke-miterlimit:10;}
	.st3{fill:none;}
	.st4{fill:#231F20;}
</style>
<g id="레이어_1_1_">
	<g id="XMLID_497_">
		<g id="XMLID_505_">
			<g>
				<defs>
					<path id="SVGID_1_" d="M109,56.3l-31.1,6c-2.3,0.5-4.6-1.1-5.1-3.4L61.7,1.4c-0.4-2.3,1.1-4.6,3.4-5.1l31.1-6
						c2.3-0.5,4.6,1.1,5.1,3.4l11.1,57.5C112.9,53.6,111.3,55.9,109,56.3z"/>
				</defs>
				<clipPath id="SVGID_2_">
					<use xlink:href="#SVGID_1_"  style="overflow:visible;"/>
				</clipPath>
				<g id="XMLID_507_" class="st0">
					<path id="XMLID_638_" class="st1" d="M37.6,69.6l76.9-13.5l-1.8-10.3c-6.7,2.8-7,5.7-18.8,5.8C84.6,51.7,75.1,60,60,58.8
						c-15.2-1.2-16.6,1.1-23.5,4.7L37.6,69.6z"/>
					<path id="XMLID_637_" class="st1" d="M91.2,42.2c-0.7,3.4,2.4,5.7,3.3,8.3H94c-0.8,0-1.7,0.1-2.5,0.2c-0.6-2.8-3.7-3.9-2.8-7.8
						c1-4.7-4.4-7.6-6.4-8.1C86.7,34.6,92.1,38.1,91.2,42.2z"/>
					<path id="XMLID_636_" class="st1" d="M91,24.3c-1.6,6.5,5.7,8.1,7,12.6c1.3,4.3-2.5,7.8,0.3,13.4c-0.9,0.1-1.8,0.1-2.7,0.2
						c-5.7-5.3,1.3-11.4-3.8-13.8C85.6,33.6,89,26.7,91,24.3z"/>
					<path id="XMLID_635_" class="st1" d="M104.2,36.3c2.3,5.3-2,8.1-2,13.3c-1,0.3-1.9,0.5-2.9,0.6c-1.1-5.4,1.9-7-0.4-12.9
						c-2.3-5.7,2.4-12.2,7.2-14.4C104.2,24.7,101.3,29.6,104.2,36.3z"/>
					<path id="XMLID_634_" class="st1" d="M87.7,8.3c-3.4,0.6-5.7-3.1-8.8-1.5c-6.9,3.6-3,9.8,2.6,8.1c2.7-0.8,4.8-2.5,5.3-2.9
						c2.1-1.9,2.6,1.8,4.9,1.1c1.5-0.5,0.5-7.4-0.8-7.3C89.1,5.8,88.3,8.2,87.7,8.3z"/>
					<path id="XMLID_632_" class="st1" d="M71.4,24.6c2.6-0.4,3.2-3.7,5.8-3.3c5.8,0.8,4.6,6.2,0.2,6.4c-2.1,0.1-4-0.5-4.5-0.7
						c-2-0.8-1.4,1.9-3.1,2c-1.2,0.1-2.2-5.1-1.3-5.4C69.8,23.2,71,24.7,71.4,24.6z"/>
				</g>
			</g>
		</g>
	</g>
	<path id="XMLID_494_" class="st2" d="M109,56.3l-31.1,6c-2.3,0.5-4.6-1.1-5.1-3.4L61.7,1.4c-0.4-2.3,1.1-4.6,3.4-5.1l31.1-6
		c2.3-0.5,4.6,1.1,5.1,3.4l11.1,57.5C112.9,53.6,111.3,55.9,109,56.3z"/>
	<g>
		<path class="st3" d="M42.3-18.7c-2,0-3.7,1.7-3.7,3.7s1.7,3.7,3.7,3.7s3.7-1.7,3.7-3.7C46-16.9,44.3-18.7,42.3-18.7z M42.3-13.8
			c-0.7,0-1.2-0.5-1.2-1.2s0.5-1.2,1.2-1.2s1.2,0.5,1.2,1.2C43.5-14.3,43-13.8,42.3-13.8z"/>
		<path class="st3" d="M42.3-9.3c-3.1,0-5.6-2.5-5.6-5.6s2.5-5.6,5.6-5.6s5.6,2.5,5.6,5.6C47.9-11.9,45.4-9.3,42.3-9.3z"/>
	</g>
	<circle class="st4" cx="42.3" cy="-14.9" r="1.2"/>
	<path class="st4" d="M47.7,41.6c-0.9,0.2-1.8,0-2.5-0.5c-0.8-0.5-1.3-1.3-1.4-2.2L32.7-18.6c-0.4-1.8,0.8-3.6,2.7-4l31.1-6
		c0.2,0,0.4-0.1,0.6-0.1c0.7,0,1.3,0.2,1.9,0.6c0.8,0.5,1.3,1.3,1.4,2.2l3.9,20.4l1.9-0.4l-3.9-20.4c-0.3-1.4-1.1-2.6-2.2-3.4
		c-1.2-0.8-2.6-1.1-4-0.8l-31.1,6c-2.9,0.6-4.8,3.3-4.2,6.2l11.1,57.5c0.3,1.4,1.1,2.6,2.2,3.4c0.9,0.6,1.9,0.9,3,0.9
		c0.3,0,0.7,0,1-0.1l20.9-4l-0.4-1.9L47.7,41.6z"/>
	<path class="st4" d="M42.3-20.6c-3.1,0-5.6,2.5-5.6,5.6s2.5,5.6,5.6,5.6s5.6-2.5,5.6-5.6C47.9-18.1,45.4-20.6,42.3-20.6z
		 M42.3-11.3c-2,0-3.7-1.7-3.7-3.7s1.7-3.7,3.7-3.7S46-17,46-15C46-12.9,44.3-11.3,42.3-11.3z"/>
</g>
<g id="레이어_2">
</g>
</svg>
