<?xml version="1.0" encoding="utf-8"?>
<!-- Generator: Adobe Illustrator 19.0.0, SVG Export Plug-In . SVG Version: 6.00 Build 0)  -->
<svg version="1.1" id="레이어_1" xmlns="http://www.w3.org/2000/svg" xmlns:xlink="http://www.w3.org/1999/xlink" x="0px"
	 y="0px" viewBox="88 -138.6 205.9 305" style="enable-background:new 88 -138.6 205.9 305;" xml:space="preserve">
<style type="text/css">
	.st0{opacity:0.65;fill:#231F20;}
	.st1{opacity:0.1;fill:#231F20;}
	.st2{opacity:0.19;fill:#231F20;}
</style>
<path id="XMLID_1689_" class="st0" d="M167.7-27.2c-6.5,0-12,5.2-12,12c0,6.5,5.2,11.7,12,11.7c6.5,0,11.7-5.2,11.7-11.7
	C179.4-22,174.2-27.2,167.7-27.2z M118-77.9c-6.5,0-12,5.2-12,12c0,6.5,5.2,11.7,12,11.7c6.5,0,11.7-5.2,11.7-11.7
	C130-72.3,124.8-77.9,118-77.9z M167.7-77.9c-6.5,0-12,5.2-12,12c0,6.5,5.2,11.7,12,11.7c6.5,0,11.7-5.2,11.7-11.7
	S174.2-77.9,167.7-77.9z M217.1-54.1c6.5,0,11.7-5.2,11.7-11.7c0-6.5-5.2-12-11.7-12s-12,5.2-12,12
	C205.4-59.4,210.6-54.1,217.1-54.1z M167.7-128.5c-6.5,0-12,5.2-12,11.7c0,6.5,5.2,11.7,12,11.7c6.5,0,11.7-5.2,11.7-11.7
	S174.2-128.5,167.7-128.5z"/>
<path id="XMLID_1688_" class="st1" d="M290,112.3c2.5,4.3,1.5,9.6-2.2,12.7l-42.6,34.6c-7.1,5.6-17.3,5.9-24.7,0.3
	C198,142.6,170.2,137,170.2,137c-7.1-1.5-13.3-3.4-19.8-8c-4.3-3.1-10.5-6.2-14.8-9.3c-11.1-7.4-23.2-13.6-35.8-17.9
	c-5.6-1.9-7.1-5.2-4.9-10.8c0.9-2.8,4.3-6.2,7.1-7.7c6.2-3.1,13-2.8,19.5-1.9c4,0.3,20.7,8.6,28.4,11.7c6.8,2.5,7.7-3.4,7.1-10.5
	c-0.3-3.4-1.9-6.8-3.1-9.9C139,45.3,123.6,18.5,108.1-9c-3.4-5.9-2.2-12.4,3.1-16.1c5.2-3.4,12.4-2.5,16.4,2.8
	c5.9,7.4,11.7,14.8,17.6,22.5c5.2,7.1,10.8,13.6,16.1,20.7l6.8,8.3c0,0,39.2-15.1,84-4.6c2.5,0.6,4.6,2.2,5.6,4.6
	c4.9,9.3,17.9,34.6,21.3,59c1.9,6.2,4.3,11.7,5.6,15.1L290,112.3z"/>
<path id="XMLID_1684_" class="st2" d="M217.1-3.5c6.5,0,11.7-5.2,11.7-11.7s-5.2-12-11.7-12s-12,5.2-12,12
	C205.4-8.7,210.6-3.5,217.1-3.5z"/>
<path id="XMLID_1683_" class="st2" d="M118-128.5c-6.5,0-12,5.2-12,11.7c0,6.5,5.2,11.7,12,11.7c6.5,0,11.7-5.2,11.7-11.7
	S124.8-128.5,118-128.5z"/>
<path id="XMLID_1682_" class="st2" d="M217.1-104.7c6.5,0,11.7-5.2,11.7-11.7s-5.2-11.7-11.7-11.7s-12,5.2-12,11.7
	S210.6-104.7,217.1-104.7z"/>
</svg>
