<?xml version="1.0" encoding="utf-8"?>
<!-- Generator: Adobe Illustrator 19.0.0, SVG Export Plug-In . SVG Version: 6.00 Build 0)  -->
<svg version="1.1" id="레이어_1" xmlns="http://www.w3.org/2000/svg" xmlns:xlink="http://www.w3.org/1999/xlink" x="0px"
	 y="0px" viewBox="0 0 185 51" style="enable-background:new 0 0 185 51;" xml:space="preserve">
<style type="text/css">
	.st0{fill:#FFFFFF;}
</style>
<g id="XMLID_431_">
	<path id="XMLID_437_" class="st0" d="M1.3,6.4l0,36.3l0,6.7l6.7,0l169.5,0l6.7,0l0-6.7l0-36.3l0-6.7l-6.7,0L7.9-0.2l-6.7,0L1.3,6.4
		z M177.4,6.4l0,36.4l-10.5,0l0-15.3l-4.2,0l0,15.3l-5.4,0l0-8.2l-4.2,0l0,8.2l-5.4,0l0-15.3l-4.2,0l0,15.3l-5.4,0l0-8.2l-4.2,0
		l0,8.2l-5.4,0l0-15.3l-4.2,0l0,15.3l-5.4,0l0-8.2l-4.2,0l0,8.2l-5.4,0l0-15.3l-4.2,0l0,15.3l-5.4,0l0-8.2l-4.2,0l0,8.2l-5.4,0
		l0-15.3l-4.2,0l0,15.3l-5.4,0l0-8.2l-4.2,0l0,8.2l-5.4,0l0-15.3l-4.2,0l0,15.3l-5.4,0l0-8.2l-4.2,0l0,8.2l-5.4,0l0-15.3l-4.2,0
		l0,15.3l-40.4,0l0-36.3L177.4,6.4z"/>
	<path id="XMLID_432_" class="st0" d="M34.6,27.4c1.5-6.9-4.5-12.9-11.4-11.4c-3.5,0.8-6.3,3.6-7.1,7.1C14.6,30,20.6,36,27.5,34.5
		C31,33.7,33.8,30.9,34.6,27.4z M20.9,25.7c-0.3-3,2.3-5.5,5.3-4.9c1.9,0.4,3.4,2,3.6,3.9c0.3,3-2.3,5.5-5.3,4.9
		C22.6,29.3,21.1,27.6,20.9,25.7z"/>
</g>
</svg>
