<?xml version="1.0" encoding="utf-8"?>
<!-- Generator: Adobe Illustrator 19.0.0, SVG Export Plug-In . SVG Version: 6.00 Build 0)  -->
<svg version="1.1" id="레이어_1" xmlns="http://www.w3.org/2000/svg" xmlns:xlink="http://www.w3.org/1999/xlink" x="0px"
	 y="0px" viewBox="78 -11.7 185 51" style="enable-background:new 78 -11.7 185 51;" xml:space="preserve">
<g id="XMLID_431_">
	<path id="XMLID_437_" d="M79.3-5.3V31v6.7H86h169.5h6.7V31V-5.3v-6.7h-6.7L85.9-11.9h-6.7L79.3-5.3z M255.4-5.3v36.4h-10.5V15.9
		h-4.2v15.3h-5.4V23h-4.2v8.2h-5.4V15.9h-4.2v15.3h-5.4V23h-4.2v8.2h-5.4V15.9h-4.2v15.3h-5.4V23h-4.2v8.2h-5.4V15.9h-4.2v15.3h-5.4
		V23h-4.2v8.2h-5.4V15.9h-4.2v15.3h-5.4V23h-4.2v8.2h-5.4V15.9h-4.2v15.3h-5.4V23h-4.2v8.2h-5.4V15.9h-4.2v15.3H85.1V-5.1L255.4-5.3
		z"/>
	<path id="XMLID_432_" d="M112.6,15.7c1.5-6.9-4.5-12.9-11.4-11.4c-3.5,0.8-6.3,3.6-7.1,7.1c-1.5,6.9,4.5,12.9,11.4,11.4
		C109,22,111.8,19.2,112.6,15.7z M98.9,14c-0.3-3,2.3-5.5,5.3-4.9c1.9,0.4,3.4,2,3.6,3.9c0.3,3-2.3,5.5-5.3,4.9
		C100.6,17.6,99.1,15.9,98.9,14z"/>
</g>
</svg>
