<?xml version="1.0" encoding="utf-8"?>
<!-- Generator: Adobe Illustrator 19.0.0, SVG Export Plug-In . SVG Version: 6.00 Build 0)  -->
<svg version="1.1" id="레이어_1" xmlns="http://www.w3.org/2000/svg" xmlns:xlink="http://www.w3.org/1999/xlink" x="0px"
	 y="0px" viewBox="0 0 66 66" style="enable-background:new 0 0 66 66;" xml:space="preserve">
<style type="text/css">
	.st0{fill:#125E9A;}
	.st1{fill:#F1F2F2;}
</style>
<circle id="XMLID_2566_" class="st0" cx="33" cy="33" r="32.6"/>
<g id="XMLID_321_">
	<path id="XMLID_389_" class="st1" d="M33.2,12.9L15.5,23.3V43l17.6,10.1L50.5,43V23L33.2,12.9z M48.8,42l-15.2,8.8v-0.5h-0.9v0.5
		L17.2,42V24.3l16-9.4l15.5,9L48.8,42z"/>
	
		<rect id="XMLID_388_" x="22.1" y="26.9" transform="matrix(0.8832 0.4689 -0.4689 0.8832 15.4983 -7.6099)" class="st1" width="1.9" height="0.9"/>
	
		<rect id="XMLID_387_" x="25.5" y="28.7" transform="matrix(0.8833 0.4688 -0.4688 0.8833 16.7321 -8.9871)" class="st1" width="1.9" height="0.9"/>
	
		<rect id="XMLID_386_" x="28.8" y="30.5" transform="matrix(0.8832 0.4689 -0.4689 0.8832 17.9773 -10.3678)" class="st1" width="1.9" height="0.9"/>
	
		<rect id="XMLID_372_" x="18.7" y="25.1" transform="matrix(0.8832 0.469 -0.469 0.8832 14.2616 -6.2317)" class="st1" width="1.9" height="0.9"/>
	<polygon id="XMLID_370_" class="st1" points="32.6,31.9 32.1,32.7 32.7,32.9 32.7,33.6 33.6,33.6 33.6,32.9 34.1,32.6 33.7,31.9 
		33.1,32.2 	"/>
	
		<rect id="XMLID_369_" x="45.8" y="24.4" transform="matrix(-0.486 -0.874 0.874 -0.486 46.6011 78.131)" class="st1" width="0.9" height="1.9"/>
	
		<rect id="XMLID_368_" x="35.9" y="29.9" transform="matrix(-0.4863 -0.8738 0.8738 -0.4863 27.0902 77.6683)" class="st1" width="0.9" height="1.9"/>
	
		<rect id="XMLID_367_" x="39.2" y="28.1" transform="matrix(-0.4863 -0.8738 0.8738 -0.4863 33.6015 77.8224)" class="st1" width="0.9" height="1.9"/>
	
		<rect id="XMLID_366_" x="42.5" y="26.3" transform="matrix(-0.4865 -0.8737 0.8737 -0.4865 40.1227 77.9767)" class="st1" width="0.9" height="1.9"/>
	<rect id="XMLID_365_" x="32.7" y="42.8" class="st1" width="0.9" height="1.9"/>
	<rect id="XMLID_343_" x="32.7" y="46.5" class="st1" width="0.9" height="1.9"/>
	<rect id="XMLID_329_" x="32.7" y="35.4" class="st1" width="0.9" height="1.9"/>
	<rect id="XMLID_326_" x="32.7" y="39.1" class="st1" width="0.9" height="1.9"/>
</g>
</svg>
