<?xml version="1.0" encoding="utf-8"?>
<!-- Generator: Adobe Illustrator 19.0.0, SVG Export Plug-In . SVG Version: 6.00 Build 0)  -->
<svg version="1.1" id="레이어_1" xmlns="http://www.w3.org/2000/svg" xmlns:xlink="http://www.w3.org/1999/xlink" x="0px"
	 y="0px" viewBox="0 0 66 66" style="enable-background:new 0 0 66 66;" xml:space="preserve">
<style type="text/css">
	.st0{fill:#125E9A;}
	.st1{fill:#FFFFFF;}
</style>
<g id="XMLID_1_">
	<path id="XMLID_135_" class="st0" d="M65.6,33c0-12.4-6.9-23.1-17-28.7c0,0-0.1,0-0.1-0.1c-0.9-0.5-1.9-0.9-2.8-1.4c0,0,0,0,0,0
		c-0.5-0.2-0.9-0.4-1.4-0.5c0,0-0.1,0-0.1-0.1c-0.5-0.2-0.9-0.3-1.4-0.5c-0.1,0-0.1,0-0.2-0.1c-2.5-0.8-5.2-1.3-7.9-1.4
		c0,0-0.1,0-0.1,0c-0.5,0-1,0-1.6,0c-0.5,0-1,0-1.5,0c-0.1,0-0.2,0-0.3,0c-0.5,0-0.9,0.1-1.4,0.1c-0.1,0-0.2,0-0.4,0
		c-0.4,0-0.8,0.1-1.2,0.2c-0.1,0-0.3,0-0.4,0.1c-0.4,0.1-0.7,0.1-1.1,0.2c-0.2,0-0.4,0.1-0.5,0.1c-0.4,0.1-0.7,0.2-1.1,0.3
		c-0.2,0.1-0.4,0.1-0.7,0.2c-0.2,0.1-0.4,0.1-0.6,0.2c-0.4,0.1-0.8,0.2-1.2,0.4c-0.1,0-0.3,0.1-0.4,0.1c-0.9,0.3-1.7,0.6-2.5,1
		c0,0,0,0-0.1,0C19.1,3.5,18.6,3.7,18,4l0,0l0,0c-1.3,0.7-2.6,1.4-3.8,2.3c0,0,0,0,0,0c-0.9,0.6-1.7,1.3-2.5,2c0,0-0.1,0.1-0.1,0.1
		c-0.8,0.7-1.5,1.4-2.2,2.1c-0.1,0.1-0.1,0.1-0.2,0.2c-0.2,0.2-0.4,0.5-0.6,0.7c-0.1,0.1-0.1,0.1-0.2,0.2c-0.4,0.4-0.7,0.8-1.1,1.3
		c-0.1,0.1-0.2,0.2-0.2,0.3c-0.2,0.2-0.3,0.4-0.5,0.7c-0.1,0.1-0.2,0.3-0.3,0.4c-0.2,0.3-0.4,0.6-0.6,1c-0.1,0.2-0.3,0.4-0.4,0.6
		c-0.1,0.2-0.2,0.4-0.4,0.6c-0.1,0.2-0.2,0.4-0.3,0.6c-0.1,0.2-0.2,0.4-0.3,0.6C4,18,3.9,18.4,3.7,18.7c-0.1,0.2-0.2,0.3-0.2,0.5
		c-0.1,0.3-0.2,0.5-0.4,0.8c-0.1,0.2-0.1,0.3-0.2,0.5c-0.1,0.3-0.3,0.7-0.4,1c-0.1,0.1-0.1,0.3-0.2,0.4c-0.1,0.4-0.3,0.7-0.4,1.1
		c0,0.2-0.1,0.3-0.1,0.5c-0.1,0.3-0.2,0.7-0.3,1c0,0.1-0.1,0.2-0.1,0.3c-0.1,0.4-0.2,0.9-0.3,1.4c0,0.1-0.1,0.3-0.1,0.4
		c-0.1,0.4-0.1,0.7-0.2,1.1c0,0.1,0,0.3-0.1,0.4c-0.1,0.5-0.1,1-0.2,1.4c0,0.1,0,0.2,0,0.3c0,0.4-0.1,0.8-0.1,1.2c0,0.1,0,0.3,0,0.4
		c0,0.5,0,1,0,1.5c0,1.1,0.1,2.2,0.2,3.3c0.1,1.1,0.3,2.2,0.5,3.2c0.2,1.1,0.5,2.1,0.8,3.1c0.2,0.5,0.3,1,0.5,1.5
		c0.4,1,0.8,2,1.2,2.9c0.7,1.4,1.5,2.8,2.4,4.1c0.9,1.3,1.9,2.5,2.9,3.7c0.5,0.6,1.1,1.1,1.7,1.7c0.6,0.5,1.1,1.1,1.7,1.6
		c0.8,0.7,1.6,1.3,2.5,1.9c0.9,0.6,1.8,1.1,2.7,1.6c0.9,0.5,1.9,1,2.9,1.4c1.5,0.6,3,1.1,4.5,1.5c1,0.3,2.1,0.5,3.2,0.7
		c0.3,0,0.6,0.1,0.9,0.1c0.1,0,0.3,0,0.4,0.1c0.3,0,0.5,0.1,0.8,0.1c0.2,0,0.5,0,0.7,0.1c0.2,0,0.4,0,0.7,0c0.4,0,0.9,0,1.3,0
		c0.1,0,0.1,0,0.2,0c1.1,0,2.2-0.1,3.3-0.2c0,0,0,0,0,0C52.8,63.8,65.6,49.9,65.6,33z M33,12.5C25.7,11.1,18.3,11,11,12
		c5.5-5.8,13.3-9.4,22-9.4c9,0,17.1,3.9,22.7,10.2C48.2,14,40.5,14,33,12.5z"/>
	<g id="XMLID_106_">
		<path id="XMLID_133_" class="st1" d="M52.2,30.9c-1,0-1.8,0.8-1.8,1.8c0,1,0.8,1.8,1.8,1.8c1,0,1.8-0.8,1.8-1.8
			C54,31.7,53.2,30.9,52.2,30.9z"/>
		<path id="XMLID_132_" class="st1" d="M46.8,28.1c1,0,1.8-0.8,1.8-1.8c0-1-0.8-1.8-1.8-1.8c-1,0-1.8,0.8-1.8,1.8
			C45,27.3,45.8,28.1,46.8,28.1z"/>
		<path id="XMLID_108_" class="st1" d="M49,40.2c-0.9-1.3-2.1-2.3-3.5-3.1c-1.5-0.8-3-1.4-4.6-1.8c-1.6-0.4-3.2-0.6-4.8-0.7
			c-1.9-2.1-4.1-3.8-6.5-5.2l-6.3,4.8c0.3,1,0.5,1.9,0.7,2.9c-1.3,0.8-2.5,1.8-3.4,3c0,0.1-0.1,0.1-0.1,0.2c0-0.1-0.1-0.1-0.1-0.2
			c-0.9-1.3-2.1-2.3-3.5-3.1c-0.7-0.4-1.3-0.7-2-1c1.3,4.6,1.3,9.4,0,14c0.7-0.3,1.4-0.6,2-1c1.4-0.8,2.6-1.8,3.5-3.1
			c0-0.1,0.1-0.1,0.1-0.2c0,0.1,0.1,0.1,0.1,0.2c0.9,1.2,2.1,2.3,3.4,3c-0.2,0.9-0.3,1.7-0.6,2.5c1.7-0.1,3.5-0.3,5.2-0.7
			c0,0,0.1,0,0.1,0c2,0.5,4.1,0.7,6.1,0.7c2.1,0,4.1-0.2,6.1-0.7c1.6-0.4,3.2-1,4.6-1.8c1.4-0.8,2.5-1.8,3.5-3.1
			c0,0-2.3-2.3-2.3-2.3l2.8-2.8C49.3,40.7,49.2,40.5,49,40.2z M40.5,42c-1.1,0-1.9-0.9-1.9-1.9c0-1.1,0.9-1.9,1.9-1.9
			c1.1,0,1.9,0.9,1.9,1.9C42.5,41.1,41.6,42,40.5,42z"/>
		<path id="XMLID_107_" class="st1" d="M53.2,20.4c0-1-0.8-1.8-1.8-1.8c-1,0-1.8,0.8-1.8,1.8c0,1,0.8,1.8,1.8,1.8
			C52.4,22.2,53.2,21.4,53.2,20.4z"/>
	</g>
	<path id="XMLID_105_" class="st1" d="M33,2.6c-8.7,0-16.5,3.6-22,9.4c7.3-1,14.7-0.9,21.9,0.5c7.5,1.4,15.2,1.5,22.7,0.2
		C50.1,6.5,42,2.6,33,2.6z"/>
</g>
</svg>
