<?xml version="1.0" encoding="utf-8"?>
<!-- Generator: Adobe Illustrator 19.0.0, SVG Export Plug-In . SVG Version: 6.00 Build 0)  -->
<svg version="1.1" id="레이어_1" xmlns="http://www.w3.org/2000/svg" xmlns:xlink="http://www.w3.org/1999/xlink" x="0px"
	 y="0px" viewBox="0 0 66 66" style="enable-background:new 0 0 66 66;" xml:space="preserve">
<style type="text/css">
	.st0{fill:#125E9A;}
	.st1{fill:#FFFFFF;}
	.st2{fill:none;stroke:#FFFFFF;stroke-width:2;stroke-miterlimit:10;}
</style>
<g id="XMLID_1_">
	<path id="XMLID_2567_" class="st0" d="M33,0.4C15,0.4,0.4,15,0.4,33c0,8.7,3.4,16.7,9,22.5V32.9c0-2.8,2.1-5.1,4.8-5.5v-12
		c0-1.3,1.1-2.4,2.4-2.4h9.6c1.3,0,2.4,1.1,2.4,2.4c0,1.3-1.1,2.4-2.4,2.4H19v9.6h4.1c3,0,5.5,2.5,5.5,5.5v1.7H19v2.4h9.6v2.4H19
		v2.4h9.6v2.4H19v2.4h9.6v18.4c0,0.1,0,0.2,0,0.4c1.5,0.2,2.9,0.3,4.5,0.3C51,65.6,65.6,51,65.6,33S51,0.4,33,0.4z"/>
	<path id="XMLID_403_" class="st1" d="M28.6,46.5H19v-2.4h9.6v-2.4H19v-2.4h9.6v-2.4H19v-2.4h9.6v-1.7c0-3-2.5-5.5-5.5-5.5H19v-9.6
		h7.2c1.3,0,2.4-1.1,2.4-2.4c0-1.3-1.1-2.4-2.4-2.4h-9.6c-1.3,0-2.4,1.1-2.4,2.4v12c-2.7,0.4-4.8,2.7-4.8,5.5v22.6
		c5,5.2,11.6,8.8,19.1,9.8c0-0.1,0-0.2,0-0.4V46.5z"/>
	<circle id="XMLID_402_" class="st2" cx="36.9" cy="16.6" r="1.2"/>
	<circle id="XMLID_401_" class="st2" cx="44.1" cy="16.6" r="1.2"/>
	<circle id="XMLID_398_" class="st2" cx="52.5" cy="15.4" r="2.4"/>
	<rect id="XMLID_397_" x="54.9" y="39.3" class="st1" width="2.4" height="2.4"/>
	<rect id="XMLID_396_" x="45.7" y="39" class="st1" width="2.4" height="2.4"/>
	<rect id="XMLID_395_" x="50.5" y="35.2" class="st1" width="2.4" height="2.4"/>
	<rect id="XMLID_394_" x="59" y="35.2" class="st1" width="2.4" height="2.4"/>
	<rect id="XMLID_393_" x="40.9" y="35.2" class="st1" width="2.4" height="2.4"/>
	<rect id="XMLID_392_" x="36.1" y="39" class="st1" width="2.4" height="2.4"/>
</g>
</svg>
