<?xml version="1.0" encoding="utf-8"?>
<!-- Generator: Adobe Illustrator 19.0.0, SVG Export Plug-In . SVG Version: 6.00 Build 0)  -->
<svg version="1.1" id="레이어_1" xmlns="http://www.w3.org/2000/svg" xmlns:xlink="http://www.w3.org/1999/xlink" x="0px"
	 y="0px" viewBox="0 0 66 66" style="enable-background:new 0 0 66 66;" xml:space="preserve">
<style type="text/css">
	.st0{fill:#125E9A;}
	.st1{fill:#FFFFFF;}
</style>
<g id="XMLID_2_">
	<circle id="XMLID_2568_" class="st0" cx="33" cy="33" r="32.6"/>
	<g id="XMLID_404_">
		<path id="XMLID_425_" class="st1" d="M20.6,34.4c1.1,0.6,2.7,0.5,3.3,1.8c0.6,1.4,0.3,2.3,2.1,3.6c1.8,1.3,0.1,2.9,1,4.3
			c0.8,1.4,1.1,5.1,1.4,6.2l0,0c0.3,0,2.8-12.4-5-19.4c0,0-5.4-4.8-9.1-4.8c-0.4,0-0.7,0-1.1,0.1c-3.6,1.2,1.8,3.9,3.6,4.7
			S19.5,33.7,20.6,34.4z"/>
		<path id="XMLID_424_" class="st1" d="M31.6,28.8c-0.1,0-0.3,0-0.4,0c-1.2,0-1.3,1-1.3,1s-0.2,0-0.5,0c-0.8,0-2.1,0.5-0.6,4.6
			c1.6,4.3,1,11.8,0.7,14.8c0,0.2,0.1,0.3,0.3,0.3c0.1,0,0.2,0,0.2-0.1c0.5-0.9,1-2.2,0.7-2.8c-0.4-1,0.6-1.9,1.2-2.9
			c0.6-1-0.7-2-0.4-3.4c0.3-1.4,0.8-2.8,0-3.9s0-1.8,0-1.8C32.3,32.8,33.1,29,31.6,28.8z"/>
		<path id="XMLID_421_" class="st1" d="M18.3,23.7c1.2,0,2.2-1,2.2-2.2c0-1.2-1-2.2-2.2-2.2c-1.2,0-2.2,1-2.2,2.2
			C16.1,22.7,17,23.7,18.3,23.7z M18.3,20.4c0.6,0,1.1,0.5,1.1,1.1s-0.5,1.1-1.1,1.1c-0.6,0-1.1-0.5-1.1-1.1S17.6,20.4,18.3,20.4z"
			/>
		<path id="XMLID_418_" class="st1" d="M22.6,15.6c0.8,0,1.4-0.6,1.4-1.4s-0.6-1.4-1.4-1.4c-0.8,0-1.4,0.6-1.4,1.4
			S21.8,15.6,22.6,15.6z M22.6,13.6c0.3,0,0.6,0.3,0.6,0.6s-0.3,0.6-0.6,0.6S22,14.5,22,14.2S22.2,13.6,22.6,13.6z"/>
		<path id="XMLID_417_" class="st1" d="M22.7,24c0.3,2.7,2.5,3.7,2.7,5.4c0.2,1.7,0.9,4,0.9,4s1.3,2.2,1.9,3.5
			c0.2-0.1,0.3-0.8,0.4-1.7c-0.1-0.2-0.1-0.5-0.2-0.7c-0.8-2.3-0.9-3.8-0.3-4.6c0.1-0.2,0.3-0.4,0.5-0.5c-0.4-0.8-0.9-1.4-0.9-2.2
			c0-1.4-0.1-2.7-0.5-4s-0.4-1.8-0.8-2.8c-0.5-1-1-1.3-2.3-1.1C22.7,19.4,22.4,21.4,22.7,24z"/>
		<path id="XMLID_416_" class="st1" d="M36.7,28.8c0.3-0.6,0.6-1,0.6-1s0.4-1.4,0.6-2.4c0.1-1,1.5-1.7,1.7-3.3
			c0.2-1.6,0-2.8-0.8-2.9c-0.8-0.1-1.1,0.1-1.4,0.7s-0.3,0.9-0.5,1.7c-0.2,0.8-0.4,1.6-0.3,2.4c0,0.6-0.4,1-0.6,1.5
			C36.3,26.4,36.6,27.6,36.7,28.8z"/>
		<path id="XMLID_412_" class="st1" d="M37,36.1c0.5,1.8,1.1,3,0.4,4.5C36.8,42,36,45.3,36.7,47c0.4,0.9,0.6,1.8,0.7,2.6
			c0,0.1,0.1,0.2,0.2,0.2s0.2-0.1,0.2-0.2c0-1.2-0.2-2.9-0.4-3.6c-0.3-1.1,0.6-2.5,1.4-4.7c0.7-2.3,0.2-3.3,0.3-4.8
			c0.1-1.5,2.5-4.5,3.9-6.2c0.5-0.6,0.8-2.1,1.7-3.6c1.3-2.2,4.5-3.9,3-5.5c-0.5-0.6-1-0.8-1.6-0.8c-1,0-1.9,0.8-2.6,1.7
			c-1,1.3-2.7,2.8-3.3,4.3c-0.6,1.5-0.7,2.8-1.8,4.2C37.3,31.8,36.5,34.2,37,36.1z"/>
		<path id="XMLID_411_" class="st1" d="M30.8,24.6c1.1,1.8,2.9,5.2,2.8,6.8c-0.2,1.5-0.8,2.4-0.5,4.8c0.3,2.3,0.4,3.8,0.5,4.9
			c0,0.8-0.6,3.1-0.9,4.2c0,0,0,0.1,0.1,0.1l0,0l0,0c0,0,0,0,0,0c0,0,0,0,0-0.1l0,0c0.2-0.5,0.6-1.2,0.9-2c0.1-1.3,0.4-2.8,0.9-4.4
			c0.1-1.2,0.1-2.4-0.1-3.2c-0.4-1.5,0.4-2.6,1.2-4.3c0.8-1.7,0.4-4.3-0.6-5.8c-0.9-1.6-0.7-2.8-1.1-4.4s-1.7-3.3-2.5-4.8
			c-0.6-1.1-1.5-2.1-2.6-2.1c-0.4,0-0.9,0.2-1.4,0.6c-1.7,1.4,1.1,3.6,2,6C30.3,22.4,30.4,23.9,30.8,24.6z"/>
		<path id="XMLID_410_" class="st1" d="M43.5,48.6c-1.3-0.4-2.8-1.3-4.3-1.2c-0.4,0-0.6,0-1,0c0.1,0.7,0.1,1.6,0.2,2.2
			c0,0.2-0.1,0.4-0.2,0.6c-0.1,0.1-0.4,0.2-0.6,0.2c-0.4,0-0.7-0.3-0.7-0.6c-0.2-1-0.4-1.8-0.7-2.5c-0.1-0.2-0.1-0.4-0.2-0.6
			c-0.1-0.1-0.2-0.1-0.3-0.2c-0.4,1.4-0.6,3.2-0.6,3.8c0,0.1,0,0.3-0.1,0.5c-0.1,0.1-0.2,0.2-0.4,0.2c-0.2,0-0.4-0.1-0.5-0.4
			c-0.1-0.3-0.5-2.4-0.5-5.3c0,0-0.1,0-0.1,0c0,0.1-0.1,0.3-0.2,0.4c-0.1,0.2-0.3,0.3-0.6,0.3c-0.2,0-0.4-0.1-0.5-0.2
			c0-0.1-0.1-0.1-0.1-0.2c-0.3,0.1-0.6,0.3-0.9,0.6c0,0.1,0,0.2,0,0.3c0.1,0.4,0.2,1.1-0.8,3.2c-0.1,0.3-0.4,0.5-0.7,0.5
			c-0.2,0-0.5-0.1-0.6-0.3c0,0,0-0.1-0.1-0.1c-0.1,0.4-0.2,0.7-0.2,0.9c-0.1,0.4-0.4,0.5-0.6,0.5c-0.3,0-0.5-0.2-0.6-0.4
			c-0.1-0.4-0.2-1.1-0.3-1.8c0-0.1,0-0.2,0-0.3c-0.2,0-0.5,0.1-0.7,0.2c-1.8,0.6-3.9,0-5.7,0.7c-0.4,0.1-0.9,0.6-1.1,1
			c-1.1,1.8,1.4,1.9,2.4,2.3c0.5,0.2,0.9,0.8,1.3,1c0.7,0.3,1.5,0.1,2.3,0c1.6-0.2,3.5-0.4,5.1,0c0.8,0.2,1.2,0.5,2.1,0.5
			c1.1,0,2.3,0,3.4,0c1.9-0.1,3.3-1.3,5.2-1.3c1.4,0,4.1,0.1,4.6-1.7C46.6,49.5,44.6,48.9,43.5,48.6z"/>
		<path id="XMLID_408_" class="st1" d="M36.5,40.9c0,0,0.1-0.1,0.1-0.1c0.1-0.2,0.1-0.4,0.2-0.6c0.5-1.1,0.2-2-0.2-3.4
			c0-0.2-0.1-0.5-0.2-0.7c0,0,0-0.1,0-0.1c-1.7,3-2.2,6.5-2.3,9.2l0,0c0,0,0,0.1,0,0.1s0,0.1,0,0.2c0,0.1,0,0.2,0,0.3
			c0,0,0,0.1,0,0.2c0,0.1,0,0.2,0,0.3c0,0,0,0.1,0,0.2c0,0.1,0,0.2,0,0.3c0,0,0,0.1,0,0.2c0,0.1,0,0.2,0,0.3c0,0,0,0.1,0,0.2
			c0,0.1,0,0.2,0,0.2s0,0.1,0,0.2c0,0.1,0,0.1,0,0.2c0,0,0,0.1,0,0.2c0,0,0,0.1,0,0.2s0,0.1,0,0.2c0,0,0,0.1,0,0.2s0,0.1,0,0.2
			c0,0,0,0.1,0,0.1c0,0,0,0.1,0,0.1c0,0,0,0.1,0,0.1c0,0,0,0.1,0,0.1c0,0,0,0,0,0.1s0,0.1,0,0.1c0,0,0,0,0,0.1c0,0,0,0,0,0.1v0
			c0,0,0,0,0,0.1v0v0l0,0v0l0,0v0l0,0c0,0,0-0.1,0-0.2v0c0,0,0-0.1,0-0.2c0,0,0,0,0-0.1c0-0.1,0-0.2,0-0.3l0,0c0-0.1,0-0.2,0-0.3
			c0,0,0,0,0-0.1c0-0.1,0-0.1,0-0.2c0,0,0-0.1,0-0.1c0-0.1,0-0.2,0-0.3v0c0-0.1,0-0.2,0-0.3c0,0,0-0.1,0-0.1c0-0.1,0-0.2,0-0.2
			c0,0,0-0.1,0-0.1c0-0.1,0-0.2,0-0.3v0c0-0.1,0-0.2,0.1-0.3c0,0,0-0.1,0-0.1c0-0.1,0-0.1,0-0.2c0,0,0-0.1,0-0.1
			c0-0.1,0-0.2,0.1-0.3v0c0.1-0.5,0.3-0.9,0.5-1.2C36.4,43.6,35.1,42.1,36.5,40.9z"/>
		<path id="XMLID_407_" class="st1" d="M47.3,29c-0.3-0.1-0.6-0.1-0.9-0.1c-0.7,0-1.5,0.2-2.3,0.6l0,0c0,0.1-0.1,0.2-0.1,0.4
			c0,0,0,0,0,0c0,0.1-0.1,0.2-0.1,0.3c0,0,0,0,0,0c0,0.1-0.1,0.2-0.1,0.3c0,0,0,0,0,0c0,0.1-0.1,0.2-0.2,0.2
			c-0.6,0.6-1.1,1.3-1.5,1.9c-0.7,0.9-1.2,1.7-1.6,2.3c-0.4,0.7-0.6,1.2-0.6,1.6c0,0,0,0.1,0,0.2c0.5-0.1,1-0.3,1.4-0.5
			c0.9-0.6,1.8-2.3,3.3-3.1C45.8,32.4,50.3,30,47.3,29z"/>
	</g>
</g>
</svg>
