<?xml version="1.0" encoding="utf-8"?>
<!-- Generator: Adobe Illustrator 19.0.0, SVG Export Plug-In . SVG Version: 6.00 Build 0)  -->
<svg version="1.1" id="레이어_1" xmlns="http://www.w3.org/2000/svg" xmlns:xlink="http://www.w3.org/1999/xlink" x="0px"
	 y="0px" viewBox="-277 400.9 40 40" style="enable-background:new -277 400.9 40 40;" xml:space="preserve">
<g>
	<path d="M-255,436.5h-4.1c-3.9,0-7.5-1.3-10.4-3.8c-3.9-3.4-6-8.3-6-14c0-4.5,1.3-8.8,3.9-12.4c0.5-0.6,1.1-1,1.8-1h25.4
		c0.7,0,1.4,0.3,1.8,1c2.5,3.6,3.9,7.8,3.9,12.4c0,5.6-2.1,10.6-6,13.9C-247.4,435.1-251.1,436.5-255,436.5z M-269.7,406.5
		c-0.3,0-0.7,0.2-0.9,0.5c-2.4,3.4-3.7,7.4-3.7,11.7c0,5.3,2,9.9,5.6,13.1c2.6,2.3,6,3.5,9.6,3.5h4.1c3.6,0,7-1.3,9.6-3.5
		c3.6-3.2,5.6-7.8,5.6-13.1c0-4.3-1.3-8.3-3.7-11.7c-0.2-0.3-0.5-0.5-0.9-0.5H-269.7z"/>
	<path d="M-255.5,434.4h-3.5c-3.3,0-6.5-1.2-9-3.3c-3.4-2.9-5.2-7.2-5.2-12.1c0-0.1,0-1.7,0-3.3c0-2.2,1.3-3.7,3.1-3.7
		c0.2,0,0.4,0,0.6,0h0c0.5,0.1,1,0.2,1.5,0.4c0.7,0.2,1.4,0.4,2,0.4c0.1,0,0.3,0,0.4,0c0.4,0,0.8-0.2,1.2-0.3
		c0.3-0.1,0.6-0.2,0.9-0.3c1.3-0.3,2.8-0.2,4.1,0.5c0.2,0.1,0.3,0.2,0.4,0.2c0.4,0.2,0.7,0.4,1.1,0.4c0.5,0,1-0.2,1.6-0.5
		c0.5-0.3,1-0.5,1.5-0.7c0.2,0,0.5-0.1,0.8-0.1c0.7,0,1.3,0.2,1.9,0.3l0.2,0.1c1.7,0.5,2.9,0.5,3.9,0.1c0.3-0.1,0.5-0.2,0.7-0.3
		c0.7-0.3,1.4-0.6,2.2-0.6c0.5,0,0.9,0.1,1.3,0.3c1.4,0.6,2.4,2.1,2.4,3.7c0,1.6,0,3.2,0,3.3c0,4.9-1.8,9.1-5.2,12.1
		C-249,433.2-252.1,434.4-255.5,434.4z M-270,413.2c-1.5,0-2,1.3-2,2.5c0,1.6,0,3.2,0,3.3c0,4.5,1.7,8.5,4.8,11.2c2.2,2,5.2,3,8.2,3
		h3.4c3.1,0,6-1.1,8.2-3c3.1-2.7,4.8-6.7,4.8-11.2c0-0.1,0-1.7,0-3.3c0-1.2-0.7-2.2-1.6-2.6c-0.3-0.1-0.6-0.2-0.9-0.2
		c-0.6,0-1.1,0.2-1.8,0.5c-0.3,0.1-0.5,0.2-0.8,0.3c-0.6,0.2-1.2,0.3-2,0.3c-0.8,0-1.6-0.1-2.7-0.4l-0.2-0.1
		c-0.6-0.2-1.1-0.3-1.6-0.3c-0.2,0-0.3,0-0.5,0c-0.4,0.1-0.8,0.3-1.2,0.5c-0.7,0.4-1.4,0.8-2.3,0.7c-0.6-0.1-1.1-0.3-1.5-0.6
		c-0.1-0.1-0.3-0.2-0.4-0.2c-1-0.5-2.2-0.7-3.3-0.4c-0.3,0.1-0.5,0.2-0.8,0.2c-0.5,0.2-0.9,0.3-1.4,0.4c-0.2,0-0.3,0-0.5,0
		c-0.8,0-1.6-0.2-2.4-0.5c-0.5-0.1-0.9-0.3-1.3-0.3h0C-269.7,413.2-269.9,413.2-270,413.2z"/>
	<path d="M-247.8,421.5C-247.8,421.5-247.8,421.5-247.8,421.5c0.2-0.2,0.1-0.4,0-0.6c-0.1-0.2-0.2-0.3-0.4-0.4
		c-1.7-1.3-3.1-2.5-5.2-3c-1.9-0.5-3.8-0.5-5.8-0.8c-0.2,0-0.2,0.2-0.1,0.2c0.2,0.2,0.6,0.5,1,0.8c-0.2,0-0.3,0.1-0.4,0.2
		c-1,0.5-1.9,1.1-2.8,1.7c-0.3,0.2-0.6,0.3-0.8,0.5c-0.1,0.1-0.9,0.7-0.9,0.6c-1.6-1-3.1-1.6-4.1-2c-0.4-0.1-0.7,0.3-0.4,0.6
		c0.5,0.7,1.4,1.5,2.4,2.4c0.2,0.2,0.2,0.4,0,0.6c-0.8,0.7-1.5,1.4-1.9,2c-0.3,0.3,0,0.7,0.4,0.6c0.8-0.3,2.1-0.8,3.4-1.5
		c0.1-0.1,0.3-0.1,0.4,0c1.1,0.7,2.2,1.3,3,1.6c0,0,0,0,0,0c1.3,0.8,2.9,1.5,4.7,1.5c1.3,0,2.5-0.3,3.7-1c1.4-0.7,2.6-1.7,3.7-2.8
		c0.1-0.1,0.2-0.3,0.2-0.4c-0.1-0.2-0.5-0.3-0.5-0.5C-248.3,421.8-248,421.7-247.8,421.5z M-250,421.7c-0.4,0-0.7-0.3-0.7-0.8
		c0-0.4,0.3-0.8,0.7-0.8s0.7,0.3,0.7,0.8S-249.7,421.7-250,421.7z"/>
</g>
</svg>
