<?xml version="1.0" encoding="utf-8"?>
<!-- Generator: Adobe Illustrator 19.0.0, SVG Export Plug-In . SVG Version: 6.00 Build 0)  -->
<svg version="1.1" id="레이어_1" xmlns="http://www.w3.org/2000/svg" xmlns:xlink="http://www.w3.org/1999/xlink" x="0px"
	 y="0px" viewBox="-277 400.9 40 40" style="enable-background:new -277 400.9 40 40;" xml:space="preserve">
<g id="XMLID_1353_">
	<path id="XMLID_1354_" d="M-239.8,411c0-3.3-6.7-5.1-13-5.1s-13,1.8-13,5.1v0.1l0,0l0.8,4.9c-1.8,1.2-3.8,3-4.6,4
		c-0.4,0.3-0.9,0.9-1.2,1.3c-3.2,4.2-4.3,7.8-2.7,9.4c0.4,0.4,1.1,0.7,1.9,0.7c1.2,0,2.8-0.5,4.7-1.6c1.2-0.7,2.5-1.5,3.8-2.5
		l0.8,4.5c0.1,2.7,4.9,4.2,9.5,4.2c4.6,0,9.4-1.5,9.5-4.2l3.6-20.7L-239.8,411L-239.8,411z M-252.8,407.3c6.7,0,11.6,2,11.6,3.7
		c0,0.1,0,0.2,0,0.3l0,0c-0.2,0.6-0.9,1.2-2,1.7c0,0-0.1,0-0.1,0.1c-0.1,0.1-0.3,0.1-0.4,0.2c-0.1,0-0.1,0-0.2,0.1
		c-0.1-0.1-0.2-0.1-0.3-0.2l0,0c-0.1-0.1-0.3-0.1-0.4-0.2h-0.1c-0.1-0.1-0.2-0.1-0.3-0.1c-0.1,0-0.1,0-0.2-0.1
		c-0.1,0-0.2-0.1-0.3-0.1c-0.1,0-0.1,0-0.2-0.1c-0.1,0-0.2-0.1-0.3-0.1c-0.1,0-0.1,0-0.2-0.1c-0.1,0-0.2-0.1-0.3-0.1
		c-0.1,0-0.2,0-0.2-0.1c-0.1,0-0.2-0.1-0.3-0.1c-0.1,0-0.2,0-0.3-0.1c-0.1,0-0.2,0-0.3-0.1c-0.1,0-0.2,0-0.3-0.1
		c-0.1,0-0.2,0-0.4-0.1c-0.1,0-0.2,0-0.3,0c-0.1,0-0.2,0-0.4-0.1c-0.1,0-0.2,0-0.3,0c-0.1,0-0.3,0-0.4,0c-0.1,0-0.2,0-0.3,0
		c-0.1,0-0.3,0-0.4,0c-0.1,0-0.2,0-0.3,0c-0.1,0-0.3,0-0.4,0c-0.1,0-0.2,0-0.3,0c-0.2,0-0.3,0-0.5,0c-0.1,0-0.2,0-0.2,0
		c-0.2,0-0.5,0-0.7,0s-0.5,0-0.7,0c-0.1,0-0.2,0-0.2,0c-0.2,0-0.3,0-0.5,0c-0.1,0-0.2,0-0.3,0c-0.1,0-0.3,0-0.4,0
		c-0.1,0-0.2,0-0.3,0c-0.1,0-0.3,0-0.4,0c-0.1,0-0.2,0-0.3,0c-0.1,0-0.3,0-0.4,0s-0.2,0-0.3,0c-0.1,0-0.2,0-0.4,0.1
		c-0.1,0-0.2,0-0.3,0s-0.2,0-0.3,0.1c-0.1,0-0.2,0-0.3,0.1c-0.1,0-0.2,0-0.3,0.1c-0.1,0-0.2,0-0.3,0.1c-0.1,0-0.2,0.1-0.3,0.1
		s-0.2,0-0.2,0.1c-0.1,0-0.2,0.1-0.3,0.1s-0.1,0-0.2,0.1c-0.1,0-0.2,0.1-0.3,0.1s-0.1,0-0.2,0.1c-0.1,0-0.2,0.1-0.3,0.1
		s-0.1,0-0.2,0.1c-0.1,0.1-0.2,0.1-0.3,0.2h-0.1c-0.1,0.1-0.3,0.1-0.4,0.2l0,0c-0.1,0.1-0.2,0.1-0.3,0.2c-0.1,0-0.1,0-0.2-0.1
		c-0.1-0.1-0.3-0.1-0.4-0.2c-0.1,0-0.1,0-0.2-0.1c-1.1-0.5-1.8-1.1-2-1.7l0,0c0-0.1,0-0.2,0-0.3
		C-264.4,409.2-259.5,407.3-252.8,407.3z M-250.6,414.6c-0.2,0-0.4,0-0.6,0s-0.4,0-0.6,0c-0.1,0-0.2,0-0.3,0c-0.3,0-0.5,0-0.8,0
		c-0.3,0-0.5,0-0.8,0c-0.1,0-0.2,0-0.3,0c-0.2,0-0.4,0-0.6,0c-0.2,0-0.4,0-0.6,0c-0.1,0-0.2,0-0.2,0c-1.7-0.1-3.2-0.4-4.5-0.7
		c0,0,0,0,0.1,0c0.2-0.1,0.3-0.1,0.5-0.2c0,0,0,0,0.1,0c0.2-0.1,0.4-0.1,0.6-0.2c0.1,0,0.1,0,0.2,0c0.2,0,0.4-0.1,0.6-0.1
		c0.1,0,0.1,0,0.2,0c0.2,0,0.5-0.1,0.7-0.1c0.1,0,0.1,0,0.2,0c0.2,0,0.4-0.1,0.7-0.1c0.1,0,0.1,0,0.2,0c0.3,0,0.6-0.1,0.9-0.1h0.1
		c0.3,0,0.5,0,0.8,0c0.1,0,0.2,0,0.3,0c0.3,0,0.7,0,1,0s0.7,0,1,0c0.1,0,0.2,0,0.3,0c0.3,0,0.5,0,0.8,0h0.1c0.3,0,0.6,0.1,0.9,0.1
		c0.1,0,0.1,0,0.2,0c0.2,0,0.4,0.1,0.7,0.1c0.1,0,0.1,0,0.2,0c0.3,0,0.5,0.1,0.7,0.1c0.1,0,0.1,0,0.2,0c0.2,0,0.4,0.1,0.5,0.1
		c0.1,0,0.1,0,0.2,0c0.2,0.1,0.4,0.1,0.6,0.2h0.1c0.2,0.1,0.3,0.1,0.5,0.2c0,0,0,0,0.1,0c-1.3,0.3-2.8,0.6-4.5,0.7
		C-250.4,414.6-250.5,414.6-250.6,414.6z M-267.7,428.5c-2.9,1.6-4.4,1.6-4.9,1.1c-0.7-0.7-0.3-3.5,2.8-7.5c0.2-0.3,0.8-0.9,1-1.2
		c1-1,2.5-2.4,3.9-3.4l1.4,8.1C-264.9,426.8-266.3,427.8-267.7,428.5z M-244.8,431.6v0.1c0,1.2-3.1,2.8-8.1,2.8s-8.1-1.6-8.1-2.8
		l-0.9-5.5c1.4-1.1,2.8-2.4,4.2-3.8c0.1-0.1,0.3-0.3,0.4-0.4c0.4,0.3,0.9,0.4,1.5,0.4c1.6,0,2.9-1.3,2.9-2.9c0-1.6-1.3-2.9-2.9-2.9
		c-1.6,0-2.9,1.3-2.9,2.9c0,0.5,0.2,1.1,0.4,1.5c-0.1,0.1-0.3,0.3-0.4,0.4c-1.1,1.1-2.3,2.2-3.5,3.2l-1.9-11l0,0
		c0.1,0.1,0.3,0.2,0.4,0.3c0,0,0,0,0.1,0c0.1,0.1,0.3,0.1,0.4,0.2c0,0,0.1,0,0.1,0.1c0.1,0.1,0.3,0.1,0.4,0.2h0.1
		c0.2,0.1,0.4,0.2,0.6,0.2c0.1,0,0.3,0.1,0.4,0.1s0.2,0.1,0.3,0.1c1.8,0.6,4,0.9,6.3,1.1c0.2,0,0.4,0,0.5,0s0.3,0,0.4,0
		c0.4,0,0.7,0,1.1,0s0.7,0,1.1,0c0.1,0,0.3,0,0.4,0c0.2,0,0.4,0,0.5,0c2.3-0.1,4.5-0.5,6.3-1.1c0.1,0,0.2-0.1,0.3-0.1
		c0.1,0,0.3-0.1,0.4-0.1c0.2-0.1,0.4-0.2,0.6-0.2c0,0,0,0,0.1,0c0.2-0.1,0.3-0.1,0.5-0.2c0,0,0.1,0,0.1-0.1c0.1-0.1,0.3-0.1,0.4-0.2
		c0,0,0,0,0.1,0c0.2-0.1,0.3-0.2,0.4-0.3l0,0L-244.8,431.6z M-257.3,419.6c0-0.8,0.7-1.5,1.5-1.5s1.5,0.7,1.5,1.5
		c0,0.8-0.7,1.5-1.5,1.5c-0.2,0-0.3,0-0.5-0.1c0.4-0.5,0.9-1,1.3-1.4l-1.1-0.9c-0.4,0.4-0.8,0.9-1.2,1.3
		C-257.3,419.8-257.3,419.7-257.3,419.6z"/>
</g>
</svg>
