<?xml version="1.0" encoding="utf-8"?>
<!-- Generator: Adobe Illustrator 19.0.0, SVG Export Plug-In . SVG Version: 6.00 Build 0)  -->
<svg version="1.1" id="레이어_1" xmlns="http://www.w3.org/2000/svg" xmlns:xlink="http://www.w3.org/1999/xlink" x="0px"
	 y="0px" viewBox="-277 400.9 40 40" style="enable-background:new -277 400.9 40 40;" xml:space="preserve">
<g id="XMLID_1362_">
	<path id="XMLID_1372_" d="M-255.7,417.5c0.5-0.5,2.5-2.6,4.4-3.6l-9.2-8.6c-0.6-0.5-2.8,0.9-4.9,3.2c-2.1,2.3-3.4,4.6-2.8,5.1
		l9.2,8.6C-258.3,420.4-256.7,418.5-255.7,417.5z"/>
	<path id="XMLID_1367_" d="M-246.1,417.5l-3-2.8c-0.7-0.6-3.2,1-5.7,3.7c-2.5,2.7-4,5.3-3.3,5.9l3,2.8c0.7,0.6,3.2-1,5.7-3.7
		C-247,420.7-245.5,418.1-246.1,417.5z M-253.2,424.8c-0.4,0.4-0.8,0.7-1,0.5c-0.2-0.1,0-0.6,0.4-1c0.4-0.4,0.8-0.7,1-0.5
		C-252.6,424-252.8,424.4-253.2,424.8z M-250.2,422.7c-0.4,0.4-0.8,0.7-1,0.5c-0.2-0.1,0-0.6,0.4-1c0.4-0.4,0.8-0.7,1-0.5
		C-249.6,421.8-249.8,422.3-250.2,422.7z M-248.3,419.5c-0.4,0.4-0.8,0.7-1,0.5c-0.2-0.1,0-0.6,0.4-1c0.4-0.4,0.8-0.7,1-0.5
		C-247.7,418.7-247.9,419.1-248.3,419.5z"/>
	<circle id="XMLID_1366_" cx="-248" cy="427.2" r="1.3"/>
	<circle id="XMLID_1365_" cx="-250.2" cy="431" r="1.3"/>
	<circle id="XMLID_1364_" cx="-245.5" cy="431.7" r="1.3"/>
	<circle id="XMLID_1363_" cx="-248" cy="435.4" r="1.3"/>
</g>
</svg>
