<?xml version="1.0" encoding="utf-8"?>
<!-- Generator: Adobe Illustrator 19.0.0, SVG Export Plug-In . SVG Version: 6.00 Build 0)  -->
<svg version="1.1" id="레이어_1" xmlns="http://www.w3.org/2000/svg" xmlns:xlink="http://www.w3.org/1999/xlink" x="0px"
	 y="0px" viewBox="-277 400.9 40 40" style="enable-background:new -277 400.9 40 40;" xml:space="preserve">
<g id="XMLID_1310_">
	<polygon id="XMLID_1324_" points="-271.5,424.7 -271.4,424.7 -271.5,424.7 -272.1,432.2 -271.3,432.2 -271.1,429.6 -270.8,432.1 
		-270,432.1 -270.6,424.7 	"/>
	<polygon id="XMLID_1323_" points="-273,424.7 -273.1,424.7 -275.4,431.8 -274.6,432 -273.8,429.5 -274.2,432.1 -273.3,432.2 
		-272.2,424.8 	"/>
	<polygon id="XMLID_1322_" points="-268.7,424.7 -268.7,424.7 -268.8,424.7 -269.4,432.2 -268.5,432.2 -268.3,429.6 -268.1,432.1 
		-267.3,432.1 -267.9,424.7 	"/>
	<polygon id="XMLID_1321_" points="-266,424.7 -266,424.7 -266,424.7 -266.6,432.2 -265.8,432.2 -265.6,429.6 -265.4,432.1 
		-264.5,432.1 -265.1,424.7 	"/>
	<polygon id="XMLID_1320_" points="-263.2,424.7 -263.2,424.7 -263.3,424.7 -263.9,432.2 -263.1,432.2 -262.8,429.6 -262.6,432.1 
		-261.8,432.1 -262.4,424.7 	"/>
	<polygon id="XMLID_1319_" points="-260.5,424.7 -260.5,424.7 -260.6,424.7 -261.2,432.2 -260.3,432.2 -260.1,429.6 -259.9,432.1 
		-259,432.1 -259.7,424.7 	"/>
	<polygon id="XMLID_1318_" points="-257.8,424.7 -257.8,424.7 -257.8,424.7 -258.4,432.2 -257.6,432.2 -257.4,429.6 -257.1,432.1 
		-256.3,432.1 -256.9,424.7 	"/>
	<polygon id="XMLID_1317_" points="-255,424.7 -255,424.7 -255.1,424.7 -255.7,432.2 -254.8,432.2 -254.6,429.6 -254.4,432.1 
		-253.6,432.1 -254.2,424.7 	"/>
	<polygon id="XMLID_1316_" points="-252.3,424.7 -252.3,424.7 -252.3,424.7 -253,432.2 -252.1,432.2 -251.9,429.6 -251.7,432.1 
		-250.8,432.1 -251.4,424.7 	"/>
	<polygon id="XMLID_1315_" points="-249.5,424.7 -249.5,424.7 -249.6,424.7 -250.2,432.2 -249.4,432.2 -249.1,429.6 -248.9,432.1 
		-248.1,432.1 -248.7,424.7 	"/>
	<polygon id="XMLID_1314_" points="-246.8,424.7 -246.8,424.7 -246.9,424.7 -247.5,432.2 -246.6,432.2 -246.4,429.6 -246.2,432.1 
		-245.3,432.1 -246,424.7 	"/>
	<polygon id="XMLID_1313_" points="-244.1,424.7 -244.1,424.7 -244.1,424.7 -244.7,432.2 -243.9,432.2 -243.7,429.6 -243.5,432.1 
		-242.6,432.1 -243.2,424.7 	"/>
	<polygon id="XMLID_1312_" points="-242,424.8 -242,424.9 -242.1,424.9 -241.3,432.3 -240.4,432.2 -240.7,429.5 -240,432 
		-239.2,431.9 -241.2,424.6 	"/>
	<path id="XMLID_1311_" d="M-240.1,419.5h-26.2c4.9-4.1,11.4-5.9,17.8-4.7c1,0.2,2.1-0.3,2.5-1.3s-0.4-2-1.6-2.3
		c-8.6-1.6-17.5,1.3-23.5,7.8c-0.1,0.2-0.3,0.3-0.4,0.5h-0.5c-1.2,0-2.1,0.9-2.1,2.1c0,1.2,0.9,2.1,2.1,2.1h31.8
		c1.2,0,2.1-0.9,2.1-2.1C-238,420.4-239,419.5-240.1,419.5z"/>
</g>
</svg>
