<?xml version="1.0" encoding="utf-8"?>
<!-- Generator: Adobe Illustrator 19.0.0, SVG Export Plug-In . SVG Version: 6.00 Build 0)  -->
<svg version="1.1" id="레이어_1" xmlns="http://www.w3.org/2000/svg" xmlns:xlink="http://www.w3.org/1999/xlink" x="0px"
	 y="0px" viewBox="-277 400.9 40 40" style="enable-background:new -277 400.9 40 40;" xml:space="preserve">
<g id="XMLID_1400_">
	<path id="XMLID_1404_" d="M-244.4,404.6l-1.1,7.4c-1.7-0.2-2.9-1.6-2.9-3.3c0-0.3-0.3-0.6-0.6-0.6s-0.6,0.3-0.6,0.6
		c0,1.9-1.5,3.4-3.4,3.4s-3.4-1.5-3.4-3.4c0-0.3-0.3-0.6-0.6-0.6s-0.6,0.3-0.6,0.6c0,1.9-1.5,3.4-3.4,3.4s-3.4-1.5-3.4-3.4
		c0-0.3-0.3-0.6-0.6-0.6s-0.6,0.3-0.6,0.6c0,1.7-1.3,3.1-2.9,3.3l-1.2-7.4h-3.3l5,34.3h21.9l5-34.3
		C-241.1,404.6-244.4,404.6-244.4,404.6z M-248.9,435.7h-16.2l-3.3-22.5c1.4-0.2,2.7-1,3.4-2.2c0.8,1.4,2.3,2.3,4,2.3s3.2-0.9,4-2.3
		c0.8,1.4,2.3,2.3,4,2.3s3.2-0.9,4-2.3c0.7,1.2,1.9,2,3.4,2.2L-248.9,435.7z"/>
	<path id="XMLID_1401_" d="M-254,424v-6.7c0-1.4-1.2-2.6-2.6-2.6c-1.4,0-2.6,1.2-2.6,2.6v6.7c-0.6,0.7-1,1.5-1,2.5
		c0,2,1.6,3.6,3.6,3.6s3.6-1.6,3.6-3.6C-252.9,425.5-253.3,424.6-254,424z M-255,417.7h-2.1v1h1v1h-1v1.1h1v1h-1v1h1v1h-1v1.1
		c-0.6,0.2-1,0.8-1,1.5h-1c0-0.8,0.4-1.6,1-2.1v-7.2l0,0l0,0c0-0.9,0.7-1.5,1.5-1.5c0.8,0,1.5,0.7,1.5,1.5v0.6H-255z"/>
</g>
</svg>
