<?xml version="1.0" encoding="utf-8"?>
<!-- Generator: Adobe Illustrator 19.0.0, SVG Export Plug-In . SVG Version: 6.00 Build 0)  -->
<svg version="1.1" id="레이어_1" xmlns="http://www.w3.org/2000/svg" xmlns:xlink="http://www.w3.org/1999/xlink" x="0px"
	 y="0px" viewBox="-277 400.9 40 40" style="enable-background:new -277 400.9 40 40;" xml:space="preserve">
<path id="XMLID_1340_" d="M-266.5,423.3h2.9c0.2,0,0.4,0.2,0.5,0.5v9.9c0,0.6,0.5,1.1,1.1,1.1s1.1-0.5,1.1-1.1l-0.1-9.9
	c0-0.2,0.2-0.4,0.5-0.5h7c0.2,0,0.4,0.2,0.5,0.5v9.9c0,0.6,0.5,1.1,1.1,1.1c0.6,0,1.1-0.5,1.1-1.1v-9.9c0-0.2,0.2-0.4,0.5-0.5h2.9
	c0.6,0,1.1-0.5,1.1-1.1v-3.7c0-0.6-0.5-1.1-1.1-1.1h-0.9c-0.2,0-0.4-0.2-0.5-0.5v-1.6c0-4.5-3.5-8.3-8-8.4c-4.5-0.1-8.2,3.6-8.2,8.1
	v1.9c0,0.2-0.2,0.4-0.5,0.5h-0.9c-0.6,0-1.1,0.5-1.1,1.1v3.7C-267.5,422.8-267.1,423.3-266.5,423.3z M-257,411.8
	c1.4,0,2.5,1.1,2.5,2.5s-1.1,2.5-2.5,2.5s-2.5-1.1-2.5-2.5C-259.5,413-258.4,411.8-257,411.8z"/>
</svg>
