<?xml version="1.0" encoding="utf-8"?>
<!-- Generator: Adobe Illustrator 19.0.0, SVG Export Plug-In . SVG Version: 6.00 Build 0)  -->
<svg version="1.1" id="레이어_1" xmlns="http://www.w3.org/2000/svg" xmlns:xlink="http://www.w3.org/1999/xlink" x="0px"
	 y="0px" viewBox="-277 400.9 40 40" style="enable-background:new -277 400.9 40 40;" xml:space="preserve">
<g id="XMLID_1344_">
	<path id="XMLID_1348_" d="M-242,434.7c-0.1-0.8-0.3-1.5-0.7-2.2c-0.6-1.5-1.5-2.8-2.4-4.1c-0.4-0.5-0.8-1-1.2-1.5
		c-0.1-0.1-0.1-0.1-0.2,0c-0.7,1-1.5,1.9-2.1,2.9c-0.8,1.2-1.4,2.5-1.9,3.8c-0.3,1-0.4,2.1,0,3.1c0.7,1.8,2.7,2.9,4.8,2.6
		c2-0.3,3.6-2.1,3.6-4.1C-242,435-242,434.9-242,434.7z M-247.8,436.6c-0.1,0.2-0.4,0.3-0.6,0.3c-0.4-0.1-0.6-0.3-0.8-0.5
		c-0.4-0.7-0.4-1.4-0.2-2.2c0.2-0.7,0.4-1.3,0.7-2c0,0,0,0,0.1-0.1c-0.1,0.5-0.2,0.9-0.2,1.4c0,0.8,0.2,1.5,0.7,2.1
		c0.1,0.1,0.2,0.3,0.3,0.4C-247.7,436.2-247.6,436.4-247.8,436.6z"/>
	<path id="XMLID_1347_" d="M-251.6,418.3h1.9v2.7h6.7v-6.1c0-1.9-1.5-3.4-3.4-3.4h-5.2c-0.9-1.4-2.3-2.4-4-2.7v-1.6
		c0.4-0.2,0.8-0.6,1-1h1.9c0.7,0,1.2-0.5,1.2-1.2c0-0.7-0.5-1.2-1.2-1.2h-1.9c-0.4-0.8-1.3-1.3-2.2-1.3c-1,0-1.8,0.5-2.2,1.3h-1.9
		c-0.7,0-1.2,0.5-1.2,1.2c0,0.7,0.5,1.2,1.2,1.2h1.9c0.2,0.4,0.6,0.8,1,1v1.7c-1.7,0.3-3.1,1.3-4,2.7h-5v6.7h5.1
		c1.1,1.7,3,2.8,5.2,2.8C-254.6,421.2-252.7,420-251.6,418.3z"/>
	<path id="XMLID_1346_" d="M-249.6,422.2c-0.7,0-1.2,0.5-1.2,1.2c0,0.7,0.5,1.2,1.2,1.2h6.4c0.7,0,1.2-0.5,1.2-1.2
		c0-0.7-0.5-1.2-1.2-1.2H-249.6z"/>
	<path id="XMLID_1345_" d="M-269.3,409.4h-2.8v11.1h2.8c0.5,0,1-0.4,1-1v-9.1C-268.4,409.9-268.8,409.4-269.3,409.4z"/>
</g>
</svg>
