<?xml version="1.0" encoding="utf-8"?>
<!-- Generator: Adobe Illustrator 19.0.0, SVG Export Plug-In . SVG Version: 6.00 Build 0)  -->
<svg version="1.1" id="레이어_1" xmlns="http://www.w3.org/2000/svg" xmlns:xlink="http://www.w3.org/1999/xlink" x="0px"
	 y="0px" viewBox="-277 400.9 40 40" style="enable-background:new -277 400.9 40 40;" xml:space="preserve">
<g id="레이어_1_1_">
	<g id="XMLID_2102_">
		<g id="XMLID_2103_">
			<g id="XMLID_2398_">
				<path id="XMLID_2399_" d="M-247.2,423.6c-1.3,0-2.4-0.5-3-1.5c-0.8-1.2-0.8-2.9,0-4.6c0.7-1.4,0-3.2-0.7-4.8
					c-0.8-2-1.5-4.1,0-5.4l0,0h0.1l0,0l0,0l0,0l0.1-0.1l0,0h0.1l0,0l0,0c1.2-1.2,2.5-1.6,3.7-1.6c2.5,0,4.9,2.2,6,5.7
					c1.2,3.6,0.8,8.5-2.7,11.1C-244.7,423.1-246,423.6-247.2,423.6z M-250.3,407.7L-250.3,407.7c-1.2,1.1-0.5,2.7,0.1,4.6
					c0.7,1.9,1.4,3.7,0.7,5.5c-0.7,1.5-0.8,2.9-0.1,3.8c0.4,0.8,1.3,1.2,2.4,1.2s2.2-0.4,3.3-1.2c3.2-2.4,3.6-6.8,2.4-10.2
					c-1-3.2-3.2-5.2-5.4-5.2C-247.9,406.2-249.1,406.7-250.3,407.7L-250.3,407.7z"/>
			</g>
			<g id="XMLID_2343_">
				<path id="XMLID_2344_" d="M-246.9,422.5c-0.1,0-0.3,0-0.4,0l0.1-0.8c0.1,0,0.2,0,0.3,0V422.5z M-246.5,422.4l-0.1-0.8
					c0.1,0,0.2,0,0.3,0l0.1,0.8C-246.1,422.4-246.4,422.4-246.5,422.4z M-247.7,422.3c-0.1,0-0.2-0.1-0.4-0.1l0.3-0.7
					c0.1,0,0.2,0.1,0.3,0.1L-247.7,422.3z M-245.7,422.3l-0.2-0.7c0.1,0,0.2-0.1,0.3-0.1l0.3,0.7
					C-245.4,422.2-245.6,422.3-245.7,422.3z M-244.9,422l-0.3-0.7c0.1,0,0.2-0.1,0.3-0.1l0.3,0.7C-244.7,421.9-244.8,422-244.9,422z
					 M-248.4,422c-0.1-0.1-0.2-0.2-0.3-0.2l0.5-0.5c0.1,0.1,0.1,0.1,0.2,0.2L-248.4,422z M-244.3,421.6l-0.4-0.7
					c0.1-0.1,0.2-0.1,0.3-0.2l0.4,0.5C-244,421.4-244.2,421.5-244.3,421.6z M-249.1,421.4c-0.1-0.1-0.1-0.2-0.2-0.3l0.7-0.3
					c0,0.1,0.1,0.2,0.2,0.2L-249.1,421.4z M-243.6,421.1l-0.4-0.5c0.1-0.1,0.2-0.1,0.2-0.2l0.5,0.5
					C-243.4,421-243.5,421.1-243.6,421.1z M-249.4,420.7c0-0.1-0.1-0.2-0.1-0.4l0.8-0.2c0,0.1,0.1,0.2,0.1,0.3L-249.4,420.7z
					 M-243.1,420.6l-0.5-0.5c0.1-0.1,0.1-0.2,0.2-0.2l0.5,0.4C-242.8,420.4-242.9,420.6-243.1,420.6z M-242.6,420l-0.5-0.4
					c0.1-0.1,0.1-0.2,0.2-0.3l0.7,0.4C-242.4,419.8-242.5,419.9-242.6,420z M-249.6,419.9c0-0.1,0-0.2,0-0.4h0.8c0,0.1,0,0.2,0,0.3
					L-249.6,419.9z M-242.2,419.3l-0.7-0.3c0.1-0.1,0.1-0.2,0.1-0.3l0.7,0.3C-242.1,419.1-242.1,419.2-242.2,419.3z M-249,419.1
					h-0.8c0-0.1,0-0.2,0-0.4l0.8,0.1C-248.9,418.9-248.9,419-249,419.1z M-241.9,418.7l-0.7-0.3c0-0.1,0.1-0.2,0.1-0.3l0.7,0.2
					C-241.7,418.4-241.7,418.6-241.9,418.7z M-248.9,418.5l-0.8-0.1c0-0.1,0.1-0.2,0.1-0.3l0.7,0.2
					C-248.8,418.2-248.8,418.4-248.9,418.5z M-241.5,417.9l-0.7-0.2c0-0.1,0.1-0.2,0.1-0.3l0.7,0.2
					C-241.5,417.7-241.5,417.8-241.5,417.9z M-248.7,417.8l-0.7-0.3c0-0.1,0.1-0.2,0.1-0.3l0.7,0.2
					C-248.5,417.6-248.7,417.7-248.7,417.8z M-241.3,417.1l-0.8-0.1c0-0.1,0-0.2,0.1-0.3l0.8,0.1
					C-241.3,416.9-241.3,417-241.3,417.1z M-248.4,417l-0.7-0.2c0-0.1,0-0.2,0.1-0.3l0.8,0.1C-248.3,416.8-248.3,416.9-248.4,417z
					 M-241.2,416.4l-0.8-0.1c0-0.1,0-0.2,0-0.3l0.8,0.1C-241.2,416.2-241.2,416.3-241.2,416.4z M-248.3,416.3h-0.8
					c0-0.1,0-0.1,0-0.2v-0.1h0.8v0.1C-248.2,416.1-248.2,416.2-248.3,416.3z M-241.1,415.6h-0.8c0-0.1,0-0.2,0-0.3h0.8
					C-241.1,415.4-241.1,415.5-241.1,415.6z M-249,415.5c0-0.1,0-0.2,0-0.3l0.8-0.1c0,0.1,0,0.2,0,0.4H-249z M-241.1,415h-0.8
					c0,0,0-0.3,0-0.4h0.8C-241.1,414.7-241.1,415-241.1,415z M-249.1,414.8c0-0.1,0-0.2-0.1-0.3l0.8-0.2c0,0.1,0.1,0.2,0.1,0.3
					L-249.1,414.8z M-241.9,414.2c0-0.1,0-0.2,0-0.3l0.8-0.1c0,0.1,0,0.2,0,0.3L-241.9,414.2z M-249.3,414.2c0-0.1-0.1-0.2-0.1-0.3
					l0.7-0.2c0,0.1,0.1,0.2,0.1,0.3L-249.3,414.2z M-242,413.5c0-0.1,0-0.2,0-0.3l0.8-0.1c0,0.1,0,0.2,0.1,0.3L-242,413.5z
					 M-249.5,413.4c0-0.1-0.1-0.2-0.1-0.3l0.7-0.2c0,0.1,0.1,0.2,0.1,0.3L-249.5,413.4z M-242.1,412.8c0-0.1,0-0.2-0.1-0.3l0.8-0.2
					c0,0.1,0.1,0.2,0.1,0.3L-242.1,412.8z M-249.8,412.8c0-0.1-0.1-0.2-0.1-0.3l0.7-0.2c0,0.1,0.1,0.2,0.1,0.3L-249.8,412.8z
					 M-242.2,412.1c0-0.1-0.1-0.2-0.1-0.3l0.7-0.2c0,0.1,0.1,0.2,0.1,0.3L-242.2,412.1z M-250,412.1c0-0.1-0.1-0.2-0.1-0.3l0.7-0.2
					c0,0.1,0.1,0.2,0.1,0.3L-250,412.1z M-242.4,411.4c0-0.1-0.1-0.2-0.1-0.3l0.7-0.2c0,0.1,0.1,0.2,0.1,0.3L-242.4,411.4z
					 M-250.2,411.3c0-0.1-0.1-0.2-0.1-0.3l0.8-0.1c0,0.1,0,0.2,0.1,0.3L-250.2,411.3z M-242.6,410.8c0-0.1-0.1-0.2-0.1-0.3l0.7-0.3
					c0,0.1,0.1,0.2,0.1,0.3L-242.6,410.8z M-250.3,410.6c0-0.1,0-0.2,0-0.4h0.8c0,0.1,0,0.2,0,0.3L-250.3,410.6z M-242.9,410.1
					c0-0.1-0.1-0.2-0.2-0.3l0.7-0.3c0.1,0.1,0.1,0.2,0.2,0.3L-242.9,410.1z M-249.6,409.8h-0.8c0-0.1,0-0.3,0-0.4l0.8,0.1
					C-249.6,409.6-249.6,409.7-249.6,409.8z M-243.3,409.5c-0.1-0.1-0.1-0.2-0.2-0.3l0.7-0.3c0,0.1,0.1,0.2,0.1,0.3L-243.3,409.5z
					 M-249.5,409.2l-0.7-0.2c0-0.1,0.1-0.2,0.2-0.4l0.7,0.4C-249.4,409-249.5,409.1-249.5,409.2z M-243.7,408.9
					c-0.1-0.1-0.1-0.2-0.2-0.3l0.5-0.4c0.1,0.1,0.2,0.2,0.2,0.3L-243.7,408.9z M-249.2,408.7l-0.5-0.5l0.1-0.1l0,0l0,0l0,0l0,0l0,0
					l0.2-0.1l0,0l0.1-0.1l0.4,0.5C-249,408.5-249.1,408.6-249.2,408.7L-249.2,408.7L-249.2,408.7z M-244.2,408.4
					c-0.1-0.1-0.2-0.1-0.2-0.2l0.4-0.5c0.1,0.1,0.2,0.2,0.3,0.2L-244.2,408.4z M-248.7,408.1l-0.4-0.5c0.1-0.1,0.2-0.1,0.3-0.2
					l0.4,0.7C-248.4,408-248.5,408-248.7,408.1z M-244.7,407.9c-0.1,0-0.1-0.1-0.2-0.2l0.4-0.7c0.1,0.1,0.2,0.1,0.3,0.2
					L-244.7,407.9z M-248.1,407.8l-0.3-0.7c0.1-0.1,0.2-0.1,0.3-0.2l0.3,0.7C-247.9,407.7-248,407.7-248.1,407.8z M-245.3,407.6
					c-0.1,0-0.2-0.1-0.3-0.1l0.2-0.7c0.1,0,0.2,0.1,0.3,0.1L-245.3,407.6z M-247.4,407.5l-0.2-0.7c0.1,0,0.2-0.1,0.4-0.1l0.1,0.7
					C-247.2,407.4-247.3,407.5-247.4,407.5z M-245.8,407.4c-0.1,0-0.2,0-0.3,0v-0.8c0.1,0,0.2,0,0.4,0.1L-245.8,407.4z
					 M-246.8,407.4l-0.1-0.8c0.1,0,0.2,0,0.4,0v0.8C-246.6,407.3-246.7,407.3-246.8,407.4z"/>
			</g>
			<g id="XMLID_2339_">
				<path id="XMLID_2340_" d="M-259.3,428.9c-3.5-2.5-4-7.5-2.7-11.1c1.1-3.4,3.5-5.7,6-5.7c1.2,0,2.5,0.5,3.7,1.5l0,0l0,0l0,0l0,0
					l0.1,0.1l0,0l0,0l0,0h0.1l0,0c1.5,1.4,0.8,3.4,0,5.4c-0.5,2-1.1,3.7-0.5,5c0.8,1.8,0.8,3.4,0,4.6c-0.7,1-1.8,1.5-3,1.5
					C-256.8,430.3-258.1,429.8-259.3,428.9z M-252.5,414.4c-1.2-1-2.3-1.5-3.5-1.5c-2.2,0-4.4,2-5.4,5.2c-1.1,3.4-0.8,7.9,2.4,10.2
					c1.1,0.8,2.3,1.2,3.3,1.2c1.1,0,1.9-0.4,2.4-1.2c0.7-1,0.5-2.3-0.1-3.8c-0.8-1.6,0-3.6,0.7-5.5
					C-251.9,417.1-251.3,415.5-252.5,414.4L-252.5,414.4L-252.5,414.4z"/>
			</g>
			<g id="XMLID_2284_">
				<path id="XMLID_2285_" d="M-255.9,428.5c0.1,0,0.2,0,0.3,0l0.1,0.8c-0.1,0-0.2,0-0.4,0V428.5z M-256.7,429.1l0.1-0.8
					c0.1,0,0.2,0,0.3,0l-0.1,0.8C-256.4,429.1-256.6,429.1-256.7,429.1z M-255.2,428.3c0.1,0,0.2-0.1,0.3-0.1l0.3,0.7
					c-0.1,0.1-0.2,0.1-0.4,0.1L-255.2,428.3z M-257.4,428.9l0.3-0.7c0.1,0,0.2,0.1,0.3,0.1l-0.2,0.7
					C-257.2,429-257.3,428.9-257.4,428.9z M-258.2,428.6l0.3-0.7c0.1,0.1,0.2,0.1,0.3,0.1l-0.3,0.7
					C-258,428.7-258.1,428.6-258.2,428.6z M-254.7,428.1c0.1-0.1,0.1-0.1,0.2-0.2l0.5,0.5c-0.1,0.1-0.2,0.2-0.3,0.2L-254.7,428.1z
					 M-258.9,428.1l0.4-0.5c0.1,0.1,0.2,0.1,0.3,0.2l-0.4,0.7C-258.6,428.2-258.8,428.1-258.9,428.1z M-254.3,427.7
					c0.1-0.1,0.1-0.2,0.2-0.2l0.7,0.3c-0.1,0.1-0.1,0.2-0.2,0.3L-254.3,427.7z M-259.4,427.6l0.5-0.5c0.1,0.1,0.2,0.1,0.2,0.2
					l-0.4,0.5C-259.2,427.8-259.3,427.7-259.4,427.6z M-254,427.1c0-0.1,0.1-0.2,0.1-0.3l0.8,0.2c0,0.1-0.1,0.2-0.1,0.4L-254,427.1z
					 M-260,427l0.5-0.4c0.1,0.1,0.1,0.2,0.2,0.2l-0.5,0.5C-259.7,427.2-259.9,427.1-260,427z M-260.4,426.4l0.7-0.4
					c0.1,0.1,0.1,0.2,0.2,0.3l-0.5,0.4C-260.3,426.6-260.3,426.5-260.4,426.4z M-253.8,426.5c0-0.1,0-0.2,0-0.3h0.8
					c0,0.1,0,0.2,0,0.4L-253.8,426.5z M-260.7,425.7l0.7-0.3c0,0.1,0.1,0.2,0.1,0.3l-0.7,0.3C-260.6,425.9-260.7,425.8-260.7,425.7z
					 M-253.8,425.5l0.8-0.1c0,0.1,0,0.2,0,0.4h-0.8C-253.8,425.7-253.8,425.6-253.8,425.5z M-261.1,424.9l0.7-0.2
					c0,0.1,0.1,0.2,0.1,0.3l-0.7,0.3C-260.9,425.3-261.1,425.2-261.1,424.9z M-254,424.8l0.7-0.2c0,0.1,0.1,0.2,0.1,0.3l-0.8,0.1
					C-253.9,425.1-253.9,424.9-254,424.8z M-261.3,424.3l0.7-0.2c0,0.1,0.1,0.2,0.1,0.3l-0.7,0.2
					C-261.3,424.5-261.3,424.4-261.3,424.3z M-254.3,424.2l0.7-0.2c0,0.1,0.1,0.2,0.1,0.3l-0.7,0.2
					C-254.1,424.4-254.1,424.3-254.3,424.2z M-261.5,423.5l0.8-0.1c0,0.1,0,0.2,0.1,0.3l-0.8,0.1
					C-261.4,423.7-261.5,423.6-261.5,423.5z M-254.5,423.4l0.8-0.1c0,0.1,0,0.2,0.1,0.3l-0.7,0.2
					C-254.4,423.6-254.4,423.5-254.5,423.4z M-261.6,422.7l0.8-0.1c0,0.1,0,0.2,0,0.3l-0.8,0.1C-261.6,423-261.6,422.9-261.6,422.7z
					 M-254.5,422.7v-0.1h0.8v0.1c0,0.1,0,0.1,0,0.2h-0.8C-254.5,422.9-254.5,422.7-254.5,422.7z M-261.6,422h0.8c0,0.1,0,0.2,0,0.3
					h-0.8C-261.6,422.2-261.6,422.1-261.6,422z M-254.5,422.2c0-0.1,0-0.2,0-0.4l0.8,0.1c0,0.1,0,0.2,0,0.3H-254.5z M-261.6,421.3
					h0.8c0,0.1,0,0.4,0,0.4h-0.8C-261.6,421.6-261.6,421.4-261.6,421.3z M-254.4,421.4c0-0.1,0.1-0.2,0.1-0.3l0.8,0.2
					c0,0.1-0.1,0.2-0.1,0.3L-254.4,421.4z M-261.6,420.9c0-0.1,0-0.2,0-0.3l0.8,0.1c0,0.1,0,0.2,0,0.3L-261.6,420.9z M-254.1,420.7
					c0-0.1,0.1-0.2,0.1-0.3l0.7,0.2c0,0.1-0.1,0.2-0.1,0.3L-254.1,420.7z M-261.5,420.1c0-0.1,0-0.2,0.1-0.3l0.8,0.1
					c0,0.1,0,0.2,0,0.3L-261.5,420.1z M-253.9,420c0-0.1,0.1-0.2,0.1-0.3l0.7,0.2c0,0.1-0.1,0.2-0.1,0.3L-253.9,420z M-261.4,419.3
					c0-0.1,0-0.2,0.1-0.3l0.8,0.1c0,0.1,0,0.2-0.1,0.3L-261.4,419.3z M-253.7,419.2c0-0.1,0.1-0.2,0.1-0.3l0.7,0.2
					c0,0.1-0.1,0.2-0.1,0.3L-253.7,419.2z M-261.3,418.6c0-0.1,0.1-0.2,0.1-0.3l0.7,0.2c0,0.1-0.1,0.2-0.1,0.3L-261.3,418.6z
					 M-253.5,418.6c0-0.1,0.1-0.2,0.1-0.3l0.7,0.2c0,0.1-0.1,0.2-0.1,0.3L-253.5,418.6z M-261.1,417.9c0-0.1,0.1-0.2,0.1-0.3
					l0.7,0.2c0,0.1-0.1,0.2-0.1,0.3L-261.1,417.9z M-253.3,417.9c0-0.1,0.1-0.2,0.1-0.3l0.8,0.1c0,0.1-0.1,0.2-0.1,0.3L-253.3,417.9
					z M-260.7,417.1c0-0.1,0.1-0.2,0.1-0.3l0.7,0.3c0,0.1-0.1,0.2-0.1,0.3L-260.7,417.1z M-253.2,417.1c0-0.1,0-0.2,0-0.3h0.8
					c0,0.1,0,0.2,0,0.4L-253.2,417.1z M-260.4,416.5c0.1-0.1,0.1-0.2,0.2-0.3l0.7,0.3c-0.1,0.1-0.1,0.2-0.2,0.3L-260.4,416.5z
					 M-253.2,416.2l0.8-0.1c0,0.1,0,0.2,0,0.4h-0.8C-253,416.4-253.2,416.3-253.2,416.2z M-260.1,415.8c0.1-0.1,0.1-0.2,0.2-0.3
					l0.7,0.4c-0.1,0.1-0.1,0.2-0.2,0.3L-260.1,415.8z M-253.4,415.6l0.7-0.4c0.1,0.1,0.1,0.2,0.2,0.4l-0.7,0.2
					C-253.3,415.8-253.3,415.7-253.4,415.6z M-259.6,415.2c0.1-0.1,0.1-0.2,0.2-0.3l0.5,0.4c-0.1,0.1-0.1,0.2-0.2,0.2L-259.6,415.2z
					 M-253.6,415.3L-253.6,415.3c-0.1-0.1-0.2-0.1-0.2-0.2l0.4-0.5l0.1,0.1l0,0l0.2,0.1l0,0l0,0l0,0l0,0l0,0l0.1,0.1L-253.6,415.3
					C-253.6,415.4-253.6,415.4-253.6,415.3z M-259.1,414.6c0.1-0.1,0.2-0.2,0.3-0.2l0.4,0.5c-0.1,0.1-0.2,0.1-0.2,0.2L-259.1,414.6z
					 M-254.4,414.6l0.4-0.7c0.1,0.1,0.2,0.1,0.3,0.2l-0.4,0.5C-254.3,414.8-254.4,414.7-254.4,414.6z M-258.5,414.1
					c0.1-0.1,0.2-0.1,0.3-0.2l0.4,0.7c-0.1,0.1-0.2,0.1-0.3,0.2L-258.5,414.1z M-255,414.3l0.3-0.7c0.1,0.1,0.2,0.1,0.3,0.2
					l-0.3,0.7C-254.8,414.4-254.9,414.4-255,414.3z M-257.9,413.6c0.1-0.1,0.2-0.1,0.3-0.1l0.2,0.7c-0.1,0-0.2,0.1-0.3,0.1
					L-257.9,413.6z M-255.6,414.1l0.2-0.8c0.1,0,0.2,0.1,0.4,0.1l-0.2,0.7C-255.5,414.2-255.6,414.2-255.6,414.1z M-257.1,413.4
					c0.1,0,0.2,0,0.4-0.1l0.1,0.8c-0.1,0-0.2,0-0.3,0L-257.1,413.4z M-256.2,414v-0.8c0.1,0,0.2,0,0.4,0l-0.1,0.9
					C-256,414.1-256.1,414-256.2,414z"/>
			</g>
			<ellipse id="XMLID_2283_" cx="-256.3" cy="417.5" rx="2" ry="1.9"/>
			<g id="XMLID_2279_">
				<path id="XMLID_2280_" d="M-269.4,412.8c-0.5-4.4,2.7-7.9,6.1-9.5c3.3-1.5,6.6-1.3,8.3,0.5c0.9,0.9,1.3,2.2,1.4,3.7v0.1l0,0l0,0
					l0,0v0.2l0,0l0,0l0,0l-0.1,0.2l0,0c0,1.6-2,2.9-4,3.6c-1.6,0.7-3.4,1.4-4,2.9c-0.8,1.8-1.9,2.9-3.3,3.2
					c-1.1,0.2-2.3-0.2-3.2-1.2C-268.6,415.5-269.2,414.2-269.4,412.8z M-254.3,407.7c-0.1-1.5-0.4-2.7-1.3-3.6
					c-1.5-1.6-4.5-1.8-7.5-0.3c-3.2,1.5-6.3,4.8-5.7,8.8c0.2,1.4,0.7,2.5,1.4,3.3c0.8,0.8,1.6,1.1,2.5,0.9c1.1-0.2,2.1-1.2,2.7-2.7
					c0.8-1.8,2.6-2.5,4.4-3.3C-255.8,410-254.1,409.4-254.3,407.7L-254.3,407.7L-254.3,407.7z"/>
			</g>
			<g id="XMLID_2224_">
				<path id="XMLID_2225_" d="M-266.8,414.8c0.1,0.1,0.1,0.1,0.2,0.2l-0.4,0.5c-0.1-0.1-0.2-0.2-0.3-0.3L-266.8,414.8z
					 M-267.8,414.7l0.7-0.4c0.1,0.1,0.1,0.2,0.2,0.2l-0.5,0.4C-267.6,415-267.8,414.8-267.8,414.7z M-266.2,415.3
					c0.1,0,0.2,0.1,0.3,0.1l-0.2,0.7c-0.1,0-0.2-0.1-0.3-0.2L-266.2,415.3z M-268.2,414l0.7-0.2c0,0.1,0.1,0.2,0.1,0.3l-0.5,0.3
					C-268.1,414.3-268.1,414.2-268.2,414z M-268.4,413.3l0.8-0.1c0,0.1,0.1,0.2,0.1,0.3l-0.7,0.2
					C-268.3,413.5-268.3,413.4-268.4,413.3z M-265.7,415.5c0.1,0,0.2,0,0.3,0v0.8c-0.1,0-0.3,0-0.4,0L-265.7,415.5z M-268.5,412.5
					l0.8-0.1c0,0.1,0,0.2,0,0.3l-0.8,0.1C-268.4,412.8-268.5,412.6-268.5,412.5z M-265.1,415.5c0.1,0,0.2,0,0.3-0.1l0.2,0.7
					c-0.1,0-0.3,0.1-0.4,0.1L-265.1,415.5z M-268.5,411.7h0.8c0,0.1,0,0.2,0,0.3h-0.8C-268.5,412-268.5,411.9-268.5,411.7z
					 M-264.5,415.4c0.1,0,0.2-0.1,0.3-0.1l0.3,0.7c-0.1,0.1-0.2,0.1-0.3,0.2L-264.5,415.4z M-268.5,410.9l0.8,0.1c0,0.1,0,0.2,0,0.3
					l-0.8-0.1C-268.5,411.2-268.5,411.1-268.5,410.9z M-268.3,410.1l0.8,0.2c0,0.1-0.1,0.2-0.1,0.3l-0.8-0.1
					C-268.4,410.5-268.3,410.3-268.3,410.1z M-263.9,415.1c0.1-0.1,0.2-0.1,0.2-0.2l0.4,0.5c-0.1,0.1-0.2,0.2-0.3,0.2L-263.9,415.1z
					 M-268.1,409.5l0.7,0.2c0,0.1-0.1,0.2-0.1,0.3l-0.7-0.2C-268.2,409.7-268.1,409.6-268.1,409.5z M-263.1,414.3l0.5,0.4
					c-0.1,0.1-0.2,0.2-0.2,0.3l-0.5-0.5C-263.4,414.5-263.3,414.4-263.1,414.3z M-267.8,408.7l0.7,0.3c0,0.1-0.1,0.2-0.1,0.3
					l-0.8-0.3C-267.9,408.9-267.9,408.8-267.8,408.7z M-262.8,413.7l0.7,0.3c-0.1,0.1-0.1,0.2-0.2,0.3l-0.7-0.4
					C-262.9,414-262.8,413.9-262.8,413.7z M-267.4,408l0.7,0.4c-0.1,0.1-0.1,0.1-0.2,0.2l-0.7-0.3
					C-267.5,408.3-267.4,408.1-267.4,408z M-262.5,413.2l0.7,0.3c-0.1,0.1-0.1,0.2-0.2,0.3l-0.7-0.3
					C-262.6,413.3-262.5,413.3-262.5,413.2z M-267,407.4l0.5,0.4c-0.1,0.1-0.1,0.2-0.2,0.3l-0.5-0.4
					C-267.1,407.6-267.1,407.5-267,407.4z M-262,412.4l0.5,0.4c-0.1,0.1-0.1,0.2-0.2,0.2l-0.7-0.3
					C-262.2,412.6-262.2,412.5-262,412.4z M-266.5,406.8l0.5,0.4c-0.1,0.1-0.1,0.2-0.2,0.2l-0.5-0.4
					C-266.7,407.1-266.5,406.9-266.5,406.8z M-261.6,412C-261.6,411.9-261.5,411.9-261.6,412l0.5,0.4c0,0-0.1,0-0.1,0.1l-0.1,0.1
					l-0.5-0.5C-261.7,412.1-261.6,412-261.6,412z M-266,406.3l0.5,0.5c-0.1,0.1-0.2,0.2-0.2,0.2l-0.5-0.5
					C-266.1,406.4-266.1,406.4-266,406.3z M-261.2,411.7c0.1-0.1,0.2-0.1,0.3-0.2l0.4,0.7c-0.1,0.1-0.2,0.1-0.3,0.2L-261.2,411.7z
					 M-265.4,405.7l0.5,0.5c-0.1,0.1-0.3,0.3-0.3,0.3l-0.5-0.5C-265.8,406.1-265.6,405.8-265.4,405.7z M-260.5,411.2
					c0.1-0.1,0.2-0.1,0.3-0.2l0.3,0.7c-0.1,0.1-0.2,0.1-0.3,0.2L-260.5,411.2z M-265.1,405.5c0.1-0.1,0.2-0.1,0.3-0.2l0.4,0.5
					c-0.1,0.1-0.2,0.1-0.3,0.2L-265.1,405.5z M-259.9,410.8c0.1-0.1,0.2-0.1,0.3-0.2l0.3,0.7c-0.1,0-0.2,0.1-0.3,0.1L-259.9,410.8z
					 M-264.6,405.1c0.1-0.1,0.2-0.1,0.3-0.2l0.4,0.7c-0.1,0-0.2,0-0.3,0.1L-264.6,405.1z M-259.2,410.5c0.1,0,0.2-0.1,0.3-0.1
					l0.3,0.7c-0.1,0-0.2,0.1-0.3,0.1L-259.2,410.5z M-263.9,404.6c0.1-0.1,0.2-0.2,0.3-0.2l0.3,0.7c-0.1,0.1-0.2,0.1-0.3,0.2
					L-263.9,404.6z M-258.5,410.1c0.1,0,0.2-0.1,0.3-0.1l0.3,0.7c-0.1,0-0.2,0.1-0.3,0.1L-258.5,410.1z M-263.3,404.2
					c0.1-0.1,0.2-0.1,0.3-0.2l0.3,0.7c-0.1,0-0.2,0.1-0.3,0.2L-263.3,404.2z M-257.9,409.9c0.1,0,0.2-0.1,0.3-0.1l0.3,0.7
					c-0.1,0.1-0.2,0.1-0.3,0.2L-257.9,409.9z M-262.6,403.9c0.1,0,0.2-0.1,0.3-0.1l0.3,0.7c-0.1,0-0.2,0.1-0.3,0.1L-262.6,403.9z
					 M-257.2,409.6c0.1-0.1,0.2-0.1,0.3-0.2l0.4,0.7c-0.1,0.1-0.2,0.1-0.3,0.2L-257.2,409.6z M-261.8,403.5c0.1,0,0.2-0.1,0.3-0.1
					l0.2,0.7c-0.1,0-0.2,0.1-0.3,0.1L-261.8,403.5z M-256.7,409.1c0.1-0.1,0.2-0.1,0.2-0.2l0.5,0.7c-0.1,0.1-0.2,0.1-0.3,0.2
					L-256.7,409.1z M-261.2,403.3c0.1,0,0.2-0.1,0.3-0.1l0.2,0.8c-0.1,0-0.2,0.1-0.3,0.1L-261.2,403.3z M-255.9,408.5l0.5,0.4
					c-0.1,0.1-0.2,0.2-0.2,0.3l-0.5-0.5C-256,408.7-256,408.6-255.9,408.5z M-260.4,403.2c0.1,0,0.2,0,0.3-0.1l0.1,0.8
					c-0.1,0-0.2,0-0.3,0.1L-260.4,403.2z M-255.7,407.9l0.7,0.2c0,0.1-0.1,0.3-0.1,0.4l-0.7-0.3C-255.8,408.1-255.7,408-255.7,407.9
					z M-259.6,403c0.1,0,0.2,0,0.4,0v0.8c-0.1,0-0.2,0-0.3,0L-259.6,403z M-255.6,407.5L-255.6,407.5c0-0.1,0-0.2,0-0.3l0.8-0.1v0.1
					l0,0l-0.1,0.4l0,0l0,0l0,0l0,0l0,0v0.1h-0.8C-255.7,407.6-255.6,407.6-255.6,407.5z M-258.9,403c0.1,0,0.2,0,0.4,0l-0.1,0.8
					c-0.1,0-0.2,0-0.3,0V403z M-255.7,406.5l0.8-0.1c0,0.1,0,0.2,0,0.4l-0.8,0.1C-255.7,406.7-255.7,406.6-255.7,406.5z
					 M-258.1,403.1c0.1,0,0.2,0,0.4,0.1l-0.2,0.7c-0.1,0-0.2,0-0.3-0.1L-258.1,403.1z M-255.9,405.8l0.7-0.2c0,0.1,0.1,0.2,0.1,0.3
					l-0.8,0.2C-255.8,406.1-255.8,406-255.9,405.8z M-257.3,403.3c0.1,0,0.2,0.1,0.3,0.2l-0.3,0.7c-0.1,0-0.2-0.1-0.3-0.1
					L-257.3,403.3z M-256.1,405.2l0.7-0.3c0.1,0.1,0.1,0.2,0.2,0.3l-0.8,0.3C-256,405.4-256,405.3-256.1,405.2z M-256.6,403.6
					c0.1,0.1,0.2,0.1,0.3,0.2l-0.4,0.5c-0.1,0-0.2-0.1-0.3-0.1L-256.6,403.6z M-256.4,404.7l0.5-0.5c0,0.1,0.1,0.2,0.2,0.3l-0.5,0.4
					C-256.3,404.9-256.4,404.7-256.4,404.7z"/>
			</g>
			
				<ellipse id="XMLID_2223_" transform="matrix(0.6855 0.7281 -0.7281 0.6855 214.8651 316.6799)" cx="-259.1" cy="407" rx="2" ry="1.9"/>
			<g id="XMLID_2219_">
				<path id="XMLID_2220_" d="M-256.3,436.8c-0.7-1.1-0.9-2.3-0.4-3.3c0.5-1.3,1.9-2.2,3.8-2.5c1.5-0.2,2.7-1.8,3.8-3.2
					c1.2-1.8,2.2-3.5,4.6-3l0,0l-0.1-0.1h0.1l0,0v0.1h0.1h0.1l0.2,0.1l0,0h-0.1c1.5,0.4,2.5,1.2,3.2,2.3c1.4,2.1,0.9,5.4-1.4,8.2
					c-2.4,3-6.6,5.4-10.8,3.8C-254.5,438.7-255.6,437.8-256.3,436.8z M-244.8,425.5L-244.8,425.5c-1.5-0.4-2.5,1.1-3.7,2.7
					c-1.1,1.5-2.3,3.2-4.2,3.5c-1.6,0.3-2.9,1-3.3,2.1c-0.3,0.9-0.2,1.8,0.3,2.6s1.5,1.6,2.9,2.1c3.7,1.4,7.7-0.8,9.9-3.6
					c2.1-2.6,2.5-5.5,1.3-7.4C-242.2,426.6-243.3,425.8-244.8,425.5L-244.8,425.5z"/>
			</g>
			<g id="XMLID_2164_">
				<path id="XMLID_2165_" d="M-255.1,436.5c-0.1-0.1-0.1-0.2-0.2-0.3l0.7-0.3c0,0.1,0.1,0.2,0.1,0.3L-255.1,436.5z M-254.9,436.8
					l0.5-0.4c0.1,0.1,0.1,0.2,0.2,0.2l-0.5,0.5C-254.7,437-254.8,436.9-254.9,436.8z M-255.6,435.7c0-0.1-0.1-0.2-0.1-0.4l0.8-0.1
					c0,0.1,0,0.2,0.1,0.3L-255.6,435.7z M-254.4,437.5l0.4-0.5c0.1,0.1,0.2,0.1,0.2,0.2l-0.4,0.7
					C-254.1,437.6-254.3,437.5-254.4,437.5z M-253.7,437.9l0.3-0.7c0.1,0.1,0.2,0.1,0.3,0.1l-0.3,0.7
					C-253.5,438-253.6,437.9-253.7,437.9z M-255.7,434.9c0-0.1,0-0.3,0-0.4l0.8,0.1c0,0.1,0,0.2,0,0.3H-255.7z M-252.9,438.2
					l0.3-0.7c0.1,0,0.2,0.1,0.3,0.1l-0.3,0.7C-252.7,438.3-252.8,438.2-252.9,438.2z M-255.5,434.1c0-0.1,0.1-0.2,0.2-0.4l0.7,0.3
					c0,0.1-0.1,0.2-0.1,0.3L-255.5,434.1z M-252.3,438.4l0.2-0.7c0.1,0,0.2,0.1,0.3,0.1l-0.1,0.8
					C-251.9,438.5-252.2,438.4-252.3,438.4z M-255.1,433.3c0.1-0.1,0.2-0.2,0.2-0.3l0.5,0.5c-0.1,0.1-0.1,0.1-0.2,0.2L-255.1,433.3z
					 M-251.5,438.7l0.1-0.8c0.1,0,0.2,0,0.3,0l-0.1,0.8C-251.2,438.7-251.4,438.7-251.5,438.7z M-250.7,438.7v-0.8
					c0.1,0,0.2,0,0.3,0v0.8C-250.4,438.7-250.6,438.7-250.7,438.7z M-254.6,432.7c0.1-0.1,0.2-0.2,0.3-0.2l0.4,0.5
					c-0.1,0.1-0.2,0.1-0.2,0.2L-254.6,432.7z M-250,438.7l-0.1-0.8c0.1,0,0.2,0,0.3,0l0.1,0.8C-249.6,438.7-249.9,438.7-250,438.7z
					 M-253.5,433l-0.3-0.7c0.1-0.1,0.2-0.1,0.3-0.2l0.3,0.7C-253.3,432.8-253.4,432.8-253.5,433z M-249.2,438.5l-0.1-0.7
					c0.1,0,0.2,0,0.3-0.1l0.2,0.8C-248.9,438.5-249.1,438.5-249.2,438.5z M-252.9,432.6l-0.2-0.7c0.1,0,0.2-0.1,0.3-0.1l0.2,0.7
					C-252.7,432.5-252.8,432.5-252.9,432.6z M-248.4,438.4l-0.2-0.7c0.1,0,0.2-0.1,0.3-0.1l0.2,0.7
					C-248.2,438.3-248.3,438.3-248.4,438.4z M-252.3,432.4l-0.2-0.7c0.1,0,0.2-0.1,0.3-0.1l0.1,0.8
					C-252.1,432.3-252.2,432.4-252.3,432.4z M-247.7,438.1l-0.2-0.7c0.1,0,0.2-0.1,0.3-0.1l0.3,0.7
					C-247.4,438-247.6,438.1-247.7,438.1z M-251.5,432.2l-0.2-0.7c0.1,0,0.2-0.1,0.3-0.1l0.3,0.7
					C-251.3,432.1-251.4,432.2-251.5,432.2z M-247,437.9l-0.3-0.7c0.1,0,0.2-0.1,0.3-0.1l0.3,0.7
					C-246.8,437.8-246.9,437.8-247,437.9z M-250.7,431.9l-0.3-0.7c0.1,0,0.1-0.1,0.2-0.1c0,0,0.1,0,0.1-0.1l0.4,0.5
					c0,0-0.1,0-0.1,0.1C-250.6,431.7-250.7,431.9-250.7,431.9z M-246.4,437.5l-0.3-0.7c0.1-0.1,0.2-0.1,0.3-0.2l0.3,0.8
					C-246.1,437.3-246.2,437.5-246.4,437.5z M-250.6,430.9c0.1-0.1,0.2-0.1,0.2-0.2l0.5,0.5c-0.1,0.1-0.2,0.2-0.3,0.2L-250.6,430.9z
					 M-245.7,437.1l-0.4-0.7c0,0,0.2-0.1,0.3-0.2l0.4,0.7C-245.5,437-245.7,437.1-245.7,437.1z M-250.1,430.3
					c0.1-0.1,0.1-0.2,0.2-0.2l0.5,0.4c-0.1,0.1-0.2,0.2-0.2,0.3L-250.1,430.3z M-245.5,436c0.1-0.1,0.2-0.1,0.3-0.2l0.4,0.5
					c-0.1,0.1-0.2,0.1-0.3,0.2L-245.5,436z M-249.6,429.9c0.1-0.1,0.1-0.2,0.2-0.3l0.5,0.4c-0.1,0.1-0.1,0.2-0.2,0.3L-249.6,429.9z
					 M-244.9,435.6c0.1-0.1,0.2-0.1,0.2-0.2l0.5,0.5c-0.1,0.1-0.2,0.2-0.3,0.2L-244.9,435.6z M-249.1,429.3c0.1-0.1,0.1-0.2,0.2-0.3
					l0.5,0.4c-0.1,0.1-0.1,0.2-0.2,0.3L-249.1,429.3z M-244.4,435.1c0.1-0.1,0.2-0.2,0.2-0.2l0.5,0.5c-0.1,0.1-0.2,0.2-0.2,0.2
					L-244.4,435.1z M-248.7,428.7c0.1-0.1,0.1-0.2,0.2-0.3l0.5,0.4c-0.1,0.1-0.1,0.2-0.2,0.3L-248.7,428.7z M-243.9,434.6
					c0.1-0.1,0.1-0.2,0.2-0.2l0.5,0.4c-0.1,0.1-0.1,0.2-0.2,0.3L-243.9,434.6z M-248.2,428.1c0.1-0.1,0.1-0.2,0.2-0.3l0.5,0.4
					c-0.1,0.1-0.1,0.2-0.2,0.3L-248.2,428.1z M-243.5,434.1c0.1-0.1,0.1-0.2,0.2-0.3l0.5,0.4c-0.1,0.1-0.1,0.2-0.2,0.3L-243.5,434.1
					z M-247.8,427.6c0.1-0.1,0.2-0.2,0.2-0.3l0.5,0.5c-0.1,0.1-0.1,0.2-0.2,0.2L-247.8,427.6z M-243.1,433.5
					c0.1-0.1,0.1-0.2,0.2-0.3l0.7,0.4c-0.1,0.1-0.1,0.2-0.2,0.3L-243.1,433.5z M-247.2,427c0.1-0.1,0.2-0.2,0.3-0.2l0.4,0.5
					c-0.1,0.1-0.2,0.1-0.2,0.2L-247.2,427z M-242.7,432.8c0.1-0.1,0.1-0.2,0.2-0.3l0.7,0.3c-0.1,0.1-0.1,0.2-0.2,0.3L-242.7,432.8z
					 M-246.1,427.1l-0.3-0.7c0.1-0.1,0.2-0.1,0.3-0.2l0.3,0.7C-246,427-246.1,427.1-246.1,427.1z M-242.4,432.3
					c0-0.1,0.1-0.2,0.1-0.3l0.7,0.2c0,0.1-0.1,0.2-0.1,0.3L-242.4,432.3z M-245.6,426.9l-0.1-0.8c0.1,0,0.3,0,0.4-0.1v0.8
					C-245.4,426.9-245.5,426.9-245.6,426.9z M-242.1,431.6c0-0.1,0.1-0.2,0.1-0.3l0.7,0.2c0,0.1-0.1,0.2-0.1,0.3L-242.1,431.6z
					 M-245,426.9l0.1-0.7l0.1,0.1l0,0l0,0l0,0l0,0l0,0h0.2l0,0h0.1l-0.2,0.7C-244.8,427-244.9,426.9-245,426.9L-245,426.9
					C-244.9,426.9-244.9,426.9-245,426.9z M-242,431c0-0.1,0-0.2,0.1-0.3l0.8,0.1c0,0.1,0,0.2-0.1,0.4L-242,431z M-244.3,427.1
					l0.2-0.7c0.1,0,0.2,0.1,0.3,0.1l-0.3,0.7C-244,427.1-244.2,427.1-244.3,427.1z M-241.9,430.2c0-0.1,0-0.2,0-0.3h0.8
					c0,0.1,0,0.2,0,0.4L-241.9,430.2z M-243.6,427.4l0.3-0.7c0.1,0.1,0.2,0.1,0.3,0.2l-0.3,0.5
					C-243.4,427.5-243.5,427.4-243.6,427.4z M-241.9,429.6c0-0.1,0-0.2-0.1-0.3l0.8-0.2c0,0.1,0.1,0.2,0.1,0.4L-241.9,429.6z
					 M-243.1,427.7l0.4-0.5c0.1,0.1,0.2,0.2,0.3,0.2l-0.4,0.5C-242.8,427.8-242.9,427.8-243.1,427.7z M-242.1,429
					c0-0.1-0.1-0.2-0.1-0.3l0.7-0.3c0.1,0.1,0.1,0.2,0.2,0.3L-242.1,429z M-242.5,428.1l0.5-0.4c0.1,0.1,0.2,0.2,0.2,0.3l-0.7,0.4
					C-242.4,428.3-242.5,428.2-242.5,428.1z"/>
			</g>
			<g id="XMLID_2160_">
				<path id="XMLID_2161_" d="M-264.2,437.1c-4.4,0.1-7.7-3.4-9-7c-1.2-3.4-0.8-6.6,1.2-8.2c1-0.8,2.3-1.1,3.8-1.1h0.1l0,0l0,0l0,0
					h0.2h0.1l0,0h-0.1l0.1,0.1l0,0c1.6,0.1,2.6,2.2,3.3,4.3c0.5,1.8,1.1,3.5,2.5,4.3c1.8,0.9,2.7,2.2,2.9,3.5
					c0.1,1.1-0.4,2.2-1.4,3.1C-261.4,436.6-262.7,437-264.2,437.1z M-267.9,421.5c-1.5-0.1-2.7,0.2-3.6,1c-1.8,1.4-2.2,4.3-1,7.4
					c1.2,3.4,4.3,6.7,8.2,6.5c1.4,0,2.5-0.4,3.4-1.1c0.8-0.7,1.2-1.5,1.1-2.4c-0.1-1.1-1-2.2-2.4-3c-1.6-0.9-2.3-2.7-2.9-4.6
					C-265.7,423.3-266.2,421.6-267.9,421.5L-267.9,421.5L-267.9,421.5z"/>
			</g>
			<g id="XMLID_2105_">
				<path id="XMLID_2106_" d="M-261.8,434.6c0.1-0.1,0.1-0.1,0.2-0.2l0.5,0.5c-0.1,0.1-0.2,0.2-0.3,0.3L-261.8,434.6z M-262,435.7
					l-0.3-0.7c0.1,0,0.2-0.1,0.3-0.1l0.4,0.7C-261.8,435.6-261.9,435.6-262,435.7z M-261.4,434.2c0.1-0.1,0.1-0.2,0.1-0.2l0.7,0.3
					c-0.1,0.1-0.1,0.2-0.2,0.3L-261.4,434.2z M-262.8,435.9l-0.2-0.7c0.1,0,0.2-0.1,0.3-0.1l0.2,0.7
					C-262.6,435.9-262.7,435.9-262.8,435.9z M-263.6,436.1l-0.1-0.8c0.1,0,0.2,0,0.3-0.1l0.1,0.8
					C-263.4,436-263.5,436.1-263.6,436.1z M-261.2,433.6c0-0.1,0-0.2,0.1-0.3l0.8,0.1c0,0.1,0,0.3-0.1,0.4L-261.2,433.6z
					 M-264.4,436.1v-0.8c0.1,0,0.2,0,0.3,0v0.8C-264.1,436.1-264.2,436.1-264.4,436.1z M-261.1,433.1c0-0.1,0-0.2,0-0.3l0.8-0.1
					c0,0.1,0,0.3,0,0.4H-261.1z M-265.1,436.1l0.1-0.8c0.1,0,0.2,0,0.3,0v0.8C-264.9,436.1-265,436.1-265.1,436.1z M-261.2,432.4
					c0-0.1-0.1-0.2-0.1-0.3l0.7-0.3c0.1,0.1,0.1,0.2,0.1,0.4L-261.2,432.4z M-265.9,436l0.1-0.8c0.1,0,0.2,0,0.3,0.1l-0.1,0.8
					C-265.7,436-265.8,436-265.9,436z M-266.7,435.8l0.2-0.7c0.1,0,0.2,0.1,0.3,0.1l-0.2,0.7C-266.4,435.9-266.5,435.8-266.7,435.8z
					 M-261.4,431.9c-0.1-0.1-0.1-0.2-0.2-0.3l0.5-0.4c0.1,0.1,0.1,0.2,0.2,0.3L-261.4,431.9z M-267.3,435.5l0.3-0.7
					c0.1,0,0.2,0.1,0.3,0.1l-0.3,0.7C-267.1,435.6-267.2,435.6-267.3,435.5z M-262,431.1l0.5-0.5c0.1,0.1,0.2,0.2,0.3,0.3l-0.5,0.4
					C-261.9,431.2-261.9,431.1-262,431.1z M-268.1,435.1l0.3-0.7c0.1,0.1,0.2,0.1,0.3,0.2l-0.3,0.7
					C-267.9,435.3-268,435.1-268.1,435.1z M-262.6,430.6l0.4-0.5c0.1,0.1,0.2,0.1,0.3,0.2l-0.4,0.4
					C-262.4,430.8-262.5,430.6-262.6,430.6z M-268.6,434.7l0.4-0.7c0.1,0.1,0.2,0.1,0.3,0.2l-0.4,0.7
					C-268.5,434.8-268.5,434.8-268.6,434.7z M-263.1,430.2l0.3-0.7c0.1,0.1,0.2,0.1,0.3,0.2l-0.4,0.7
					C-262.9,430.3-263,430.3-263.1,430.2z M-269.3,434.2l0.4-0.5c0.1,0.1,0.2,0.1,0.2,0.2l-0.4,0.5
					C-269.1,434.4-269.2,434.3-269.3,434.2z M-263.8,429.8l0.5-0.5c0.1,0.1,0.2,0.1,0.2,0.2l-0.4,0.5
					C-263.6,429.9-263.7,429.9-263.8,429.8z M-269.8,433.7l0.5-0.5c0.1,0.1,0.2,0.2,0.2,0.2l-0.5,0.5
					C-269.6,433.8-269.7,433.7-269.8,433.7z M-264.2,429.2l-0.1-0.1l0.5-0.4c0,0,0,0.1,0.1,0.1c0,0.1,0.1,0.1,0.1,0.2l-0.5,0.4
					C-264.1,429.3-264.2,429.3-264.2,429.2z M-270.4,433.1l0.5-0.4c0.1,0.1,0.1,0.2,0.2,0.2l-0.5,0.5
					C-270.2,433.3-270.3,433.2-270.4,433.1z M-264.6,428.8c-0.1-0.1-0.1-0.2-0.2-0.3l0.7-0.3c0.1,0.1,0.1,0.2,0.2,0.3L-264.6,428.8z
					 M-270.7,432.5l0.5-0.4c0.1,0.1,0.2,0.3,0.2,0.3l-0.5,0.4C-270.5,432.8-270.7,432.6-270.7,432.5z M-265,428.1
					c-0.1-0.1-0.1-0.2-0.1-0.3l0.7-0.3c0,0.1,0.1,0.2,0.1,0.3L-265,428.1z M-271,432.2c0-0.1-0.1-0.2-0.2-0.3l0.7-0.4
					c0.1,0.1,0.1,0.2,0.2,0.3L-271,432.2z M-265.2,427.5c0-0.1-0.1-0.2-0.1-0.3l0.7-0.2c0,0.1,0.1,0.2,0.1,0.3L-265.2,427.5z
					 M-271.5,431.5c-0.1-0.1-0.1-0.2-0.2-0.3l0.7-0.3c0.1,0.1,0.1,0.2,0.2,0.3L-271.5,431.5z M-265.6,426.7c0-0.1-0.1-0.2-0.1-0.3
					l0.7-0.2c0,0.1,0.1,0.2,0.1,0.3L-265.6,426.7z M-271.8,430.9c-0.1-0.1-0.1-0.2-0.2-0.3l0.8-0.3c0,0.1,0.1,0.2,0.1,0.3
					L-271.8,430.9z M-265.8,426c0-0.1-0.1-0.2-0.1-0.3l0.7-0.2c0,0.1,0.1,0.2,0.1,0.3L-265.8,426z M-272.1,430.2
					c0-0.1-0.1-0.2-0.1-0.3l0.7-0.2c0,0.1,0.1,0.2,0.1,0.3L-272.1,430.2z M-266,425.4c0-0.1-0.1-0.2-0.1-0.3l0.7-0.3
					c0,0.1,0.1,0.2,0.1,0.3L-266,425.4z M-272.4,429.6c0-0.1-0.1-0.2-0.1-0.3l0.7-0.2c0,0.1,0.1,0.2,0.1,0.3L-272.4,429.6z
					 M-266.3,424.7c0-0.1-0.1-0.2-0.1-0.3l0.7-0.3c0.1,0.1,0.1,0.2,0.1,0.3L-266.3,424.7z M-272.7,428.8c0-0.1-0.1-0.2-0.1-0.3
					l0.8-0.2c0,0.1,0.1,0.2,0.1,0.3L-272.7,428.8z M-266.7,424.1c-0.1-0.1-0.1-0.2-0.2-0.3l0.7-0.4c0.1,0.1,0.1,0.2,0.2,0.3
					L-266.7,424.1z M-272.8,428c0-0.1,0-0.2-0.1-0.3l0.8-0.1c0,0.1,0,0.2,0.1,0.3L-272.8,428z M-267.2,423.3l0.4-0.5
					c0.1,0.1,0.2,0.2,0.3,0.3l-0.5,0.4C-267.1,423.4-267.1,423.4-267.2,423.3z M-272.9,427.2c0-0.1,0-0.2,0-0.4h0.8
					c0,0.1,0,0.2,0,0.3L-272.9,427.2z M-267.8,423l0.2-0.7c0.1,0,0.2,0.1,0.4,0.2l-0.3,0.5C-267.5,423.1-267.6,423.1-267.8,423z
					 M-273,426.5c0-0.1,0-0.2,0-0.4h0.8c0,0.1,0,0.2,0,0.3L-273,426.5z M-268.2,422.9L-268.2,422.9c-0.1,0-0.2,0-0.3,0v-0.8h0.1l0,0
					l0.3,0.1l0,0l0,0l0,0l0,0l0,0h0.1l-0.1,0.8C-268.1,423-268.1,423-268.2,422.9z M-272.9,425.7c0-0.1,0-0.2,0.1-0.4l0.8,0.1
					c0,0.1,0,0.2,0,0.3H-272.9z M-269.2,422.9v-0.8c0.1,0,0.2,0,0.4,0v0.8C-269,422.9-269.1,422.9-269.2,422.9z M-272.8,424.9
					c0-0.1,0.1-0.2,0.1-0.3l0.7,0.2c0,0.1-0.1,0.2-0.1,0.3L-272.8,424.9z M-269.8,423l-0.1-0.8c0.1,0,0.2,0,0.4-0.1l0.1,0.8
					C-269.6,423-269.7,423-269.8,423z M-272.5,424.2c0-0.1,0.1-0.2,0.1-0.3l0.7,0.4c-0.1,0.1-0.1,0.2-0.1,0.3L-272.5,424.2z
					 M-270.5,423.2l-0.3-0.7c0.1,0,0.2-0.1,0.3-0.1l0.3,0.7C-270.3,423.1-270.4,423.2-270.5,423.2z M-272,423.5
					c0.1-0.1,0.2-0.2,0.3-0.3l0.4,0.5c-0.1,0.1-0.1,0.1-0.2,0.2L-272,423.5z M-271,423.5l-0.4-0.5c0.1-0.1,0.2-0.1,0.3-0.2l0.3,0.7
					C-270.8,423.4-270.9,423.4-271,423.5z"/>
			</g>
			
				<ellipse id="XMLID_2104_" transform="matrix(0.7858 -0.6185 0.6185 0.7858 -321.3104 -75.0406)" cx="-269" cy="426.3" rx="2" ry="1.9"/>
		</g>
	</g>
</g>
</svg>
