<?xml version="1.0" encoding="utf-8"?>
<!-- Generator: Adobe Illustrator 19.0.0, SVG Export Plug-In . SVG Version: 6.00 Build 0)  -->
<svg version="1.1" id="레이어_1" xmlns="http://www.w3.org/2000/svg" xmlns:xlink="http://www.w3.org/1999/xlink" x="0px"
	 y="0px" viewBox="-277 400.9 40 40" style="enable-background:new -277 400.9 40 40;" xml:space="preserve">
<g id="XMLID_1326_">
	<path id="XMLID_1335_" d="M-257,432.5c-8.5,0-15.1-3.6-15.1-8.1s6.6-8.1,15.1-8.1s15.1,3.6,15.1,8.1S-248.5,432.5-257,432.5z
		 M-257,417.5c-7.5,0-13.8,3.2-13.8,6.9c0,3.7,6.3,6.9,13.8,6.9s13.8-3.2,13.8-6.9C-243.2,420.7-249.5,417.5-257,417.5z"/>
	<path id="XMLID_1334_" d="M-257,436c-5.8,0-11.2-3.1-13.6-7.9c-0.2-0.3,0-0.7,0.3-0.8c0.3-0.2,0.7,0,0.8,0.3
		c2.3,4.4,7.2,7.2,12.5,7.2c5.3,0,10.2-2.8,12.5-7.1c0.2-0.3,0.5-0.4,0.8-0.3c0.3,0.2,0.4,0.5,0.3,0.8
		C-245.9,432.9-251.3,436-257,436z"/>
	<path id="XMLID_1333_" d="M-248,430.9c-0.2,0-0.4-0.1-0.5-0.2c-0.2-0.3-0.2-0.7,0.1-0.9c0.7-0.5,1.4-1.4,1.4-2.6
		c0-2.7-4.6-5-10.1-5s-10.1,2.3-10.1,5c0,0.7,0.3,1.5,1,2.2c0.2,0.2,0.2,0.6,0,0.9c-0.2,0.2-0.6,0.2-0.9,0c-0.9-0.9-1.4-2-1.4-3
		c0-3.5,5-6.3,11.3-6.3c6.4,0,11.3,2.8,11.3,6.3c0,1.3-0.7,2.5-1.9,3.5C-247.7,430.8-247.8,430.9-248,430.9z"/>
	<ellipse id="XMLID_1332_" cx="-251.5" cy="427.1" rx="1.2" ry="0.6"/>
	<ellipse id="XMLID_1331_" cx="-255.2" cy="425.6" rx="1.8" ry="0.9"/>
	<g id="XMLID_1327_">
		<path id="XMLID_1330_" d="M-261.6,414.4c-0.3,0-0.6-0.3-0.6-0.6v-4.7c0-0.3,0.3-0.6,0.6-0.6c0.3,0,0.6,0.3,0.6,0.6v4.7
			C-261,414.1-261.3,414.4-261.6,414.4z"/>
		<path id="XMLID_1329_" d="M-257,414.4c-0.3,0-0.6-0.3-0.6-0.6v-7.3c0-0.3,0.3-0.6,0.6-0.6s0.6,0.3,0.6,0.6v7.3
			C-256.4,414.1-256.7,414.4-257,414.4z"/>
		<path id="XMLID_1328_" d="M-252.4,414.4c-0.3,0-0.6-0.3-0.6-0.6v-4.7c0-0.3,0.3-0.6,0.6-0.6c0.3,0,0.6,0.3,0.6,0.6v4.7
			C-251.7,414.1-252,414.4-252.4,414.4z"/>
	</g>
</g>
</svg>
