<?xml version="1.0" encoding="utf-8"?>
<!-- Generator: Adobe Illustrator 19.0.0, SVG Export Plug-In . SVG Version: 6.00 Build 0)  -->
<svg version="1.1" id="레이어_1" xmlns="http://www.w3.org/2000/svg" xmlns:xlink="http://www.w3.org/1999/xlink" x="0px"
	 y="0px" viewBox="-277 400.9 40 40" style="enable-background:new -277 400.9 40 40;" xml:space="preserve">
<g id="XMLID_1408_">
	<path id="XMLID_1423_" d="M-265.7,423.4h-7.3c-1.1,0-1.9,0.9-1.9,1.9v7.4c0,1.1,0.9,1.9,1.9,1.9h7.4c1.1,0,1.9-0.9,1.9-1.9v-7.4
		C-263.7,424.2-264.6,423.4-265.7,423.4z M-265.7,432.7h-7.3v-7.4h7.4v7.4H-265.7z"/>
	<path id="XMLID_1420_" d="M-253.5,407.2h-7.4c-1.1,0-1.9,0.9-1.9,1.9v7.4c0,1.1,0.9,1.9,1.9,1.9h2.7v1.5h-1l1.9,2.7l1.9-2.7h-1
		v-1.5h2.7c1.1,0,1.9-0.9,1.9-1.9v-7.4C-251.5,408.1-252.4,407.2-253.5,407.2z M-253.5,416.5h-7.4v-7.4h7.4V416.5z"/>
	<path id="XMLID_1417_" d="M-241,423.4h-7.4c-1.1,0-1.9,0.9-1.9,1.9v7.4c0,1.1,0.9,1.9,1.9,1.9h7.4c1.1,0,1.9-0.9,1.9-1.9v-7.4
		C-239,424.2-239.9,423.4-241,423.4z M-241,432.7h-7.4v-7.4h7.4V432.7z"/>
	<rect id="XMLID_1416_" x="-262.8" y="427.8" width="1.9" height="2.4"/>
	<rect id="XMLID_1415_" x="-258.4" y="423.4" width="2.4" height="1.9"/>
	<rect id="XMLID_1414_" x="-258.4" y="432.7" width="2.4" height="1.9"/>
	<path id="XMLID_1413_" d="M-253.5,423.4h-0.9v1.9h0.9v1h1.9v-1C-251.6,424.2-252.4,423.4-253.5,423.4z"/>
	<path id="XMLID_1412_" d="M-260.8,431.7h-1.9v1c0,1.1,0.9,1.9,1.9,1.9h1v-1.9h-1V431.7z"/>
	<path id="XMLID_1411_" d="M-253.5,432.7h-0.9v1.9h0.9c1.1,0,1.9-0.9,1.9-1.9v-1h-1.9V432.7z"/>
	<rect id="XMLID_1410_" x="-253.5" y="427.8" width="1.9" height="2.4"/>
	<path id="XMLID_1409_" d="M-262.8,425.3v1h1.9v-1h1v-1.9h-1C-261.9,423.4-262.8,424.2-262.8,425.3z"/>
</g>
</svg>
