<?xml version="1.0" encoding="utf-8"?>
<!-- Generator: Adobe Illustrator 19.0.0, SVG Export Plug-In . SVG Version: 6.00 Build 0)  -->
<svg version="1.1" id="레이어_1" xmlns="http://www.w3.org/2000/svg" xmlns:xlink="http://www.w3.org/1999/xlink" x="0px"
	 y="0px" viewBox="-277 400.9 40 40" style="enable-background:new -277 400.9 40 40;" xml:space="preserve">
<g id="XMLID_1382_">
	<path id="XMLID_1397_" d="M-265,421.7c0.9,0.5,2.2,0.4,2.8,1.5c0.5,1.2,0.2,1.9,1.7,3s0.1,2.5,0.8,3.6c0.7,1.2,0.9,4.3,1.2,5.2l0,0
		c0.2,0,2.4-10.5-4.2-16.3c0,0-4.6-4.1-7.7-4.1c-0.3,0-0.6,0-0.9,0.1c-3,1,1.5,3.3,3,4S-266,421.1-265,421.7z"/>
	<path id="XMLID_1396_" d="M-255.8,416.9c-0.1,0-0.2,0-0.3,0c-1,0-1.1,0.8-1.1,0.8s-0.2,0-0.4,0c-0.7,0-1.8,0.4-0.5,3.9
		c1.3,3.6,0.9,9.9,0.6,12.4c0,0.2,0.1,0.2,0.2,0.2c0.1,0,0.2,0,0.2-0.1c0.4-0.8,0.8-1.8,0.6-2.3c-0.3-0.9,0.5-1.6,1-2.5
		s-0.6-1.7-0.3-2.9c0.3-1.2,0.7-2.4,0-3.3c-0.7-0.9,0-1.5,0-1.5C-255.1,420.3-254.5,417.1-255.8,416.9z"/>
	<path id="XMLID_1393_" d="M-267,412.6c1,0,1.9-0.9,1.9-1.9s-0.9-1.8-1.9-1.8s-1.8,0.9-1.8,1.9S-268,412.6-267,412.6z M-267,409.9
		c0.5,0,0.9,0.4,0.9,0.9s-0.4,0.9-0.9,0.9s-0.9-0.4-0.9-0.9S-267.5,409.9-267,409.9z"/>
	<path id="XMLID_1390_" d="M-263.3,405.9c0.7,0,1.2-0.5,1.2-1.2s-0.5-1.2-1.2-1.2c-0.7,0-1.2,0.5-1.2,1.2
		C-264.5,405.3-264,405.9-263.3,405.9z M-263.3,404.2c0.3,0,0.5,0.2,0.5,0.5s-0.2,0.5-0.5,0.5c-0.3,0-0.5-0.3-0.5-0.5
		S-263.7,404.2-263.3,404.2z"/>
	<path id="XMLID_1389_" d="M-263.3,412.9c0.2,2.2,2.1,3.1,2.3,4.5c0.2,1.4,0.7,3.4,0.7,3.4s1.1,1.9,1.6,3c0.2-0.1,0.3-0.7,0.3-1.5
		c-0.1-0.2-0.1-0.4-0.2-0.6c-0.7-1.9-0.8-3.2-0.3-3.9c0.1-0.2,0.3-0.3,0.4-0.4c-0.3-0.7-0.8-1.2-0.7-1.9c0-1.2-0.1-2.2-0.4-3.3
		c-0.3-1.1-0.3-1.5-0.7-2.4c-0.4-0.8-0.9-1.1-1.9-1C-263.3,409-263.5,410.7-263.3,412.9z"/>
	<path id="XMLID_1388_" d="M-251.5,417c0.2-0.5,0.5-0.8,0.5-0.8s0.3-1.2,0.5-2.1c0.1-0.9,1.2-1.4,1.4-2.8c0.2-1.4,0-2.4-0.7-2.5
		s-1,0.2-1.2,0.7s-0.2,0.8-0.4,1.4c-0.2,0.6-0.3,1.3-0.3,2c0,0.5-0.3,0.8-0.5,1.3C-251.8,415-251.5,416-251.5,417z"/>
	<path id="XMLID_1387_" d="M-251.2,423.1c0.4,1.5,0.9,2.6,0.3,3.8c-0.5,1.2-1.2,4-0.6,5.5c0.3,0.7,0.5,1.5,0.6,2.2
		c0,0.1,0.1,0.2,0.2,0.2c0.1,0,0.2-0.1,0.2-0.2c0-1-0.2-2.4-0.3-3c-0.2-0.9,0.5-2.1,1.2-4c0.6-1.9,0.2-2.8,0.3-4
		c0.1-1.3,2.1-3.8,3.3-5.2c0.4-0.5,0.7-1.7,1.5-3c1.1-1.8,3.8-3.3,2.6-4.6c-0.6-0.7-1-0.9-1.5-0.9c-0.8,0-1.6,0.7-2.2,1.4
		c-0.9,1.1-2.2,2.3-2.8,3.6c-0.5,1.2-0.6,2.4-1.5,3.5C-250.9,419.5-251.6,421.5-251.2,423.1z"/>
	<path id="XMLID_1386_" d="M-256.4,413.4c0.9,1.5,2.5,4.4,2.3,5.7c-0.2,1.3-0.7,2.1-0.4,4c0.3,2,0.3,3.2,0.4,4.1
		c0,0.7-0.5,2.6-0.7,3.6c0,0,0,0.1,0.1,0.1l0,0l0,0l0,0c0,0,0,0,0-0.1l0,0c0.2-0.4,0.5-1,0.7-1.7c0.1-1.1,0.3-2.4,0.8-3.7
		c0.1-1,0.1-2.1-0.1-2.7c-0.3-1.3,0.3-2.2,1-3.6s0.3-3.6-0.5-4.9c-0.8-1.3-0.6-2.4-0.9-3.7c-0.3-1.3-1.5-2.8-2.1-4
		c-0.5-0.9-1.2-1.8-2.2-1.8c-0.3,0-0.7,0.2-1.2,0.5c-1.4,1.2,1,3,1.7,5C-256.8,411.6-256.8,412.8-256.4,413.4z"/>
	<path id="XMLID_1385_" d="M-245.7,433.6c-1.1-0.3-2.4-1.1-3.6-1c-0.3,0-0.5,0-0.8,0c0.1,0.6,0.1,1.3,0.2,1.9c0,0.2-0.1,0.3-0.2,0.5
		c-0.1,0.1-0.3,0.2-0.5,0.2c-0.3,0-0.6-0.2-0.6-0.5c-0.2-0.8-0.3-1.5-0.6-2.1c-0.2-0.2-0.2-0.4-0.2-0.6c-0.1-0.1-0.2-0.1-0.2-0.2
		c-0.3,1.2-0.5,2.7-0.5,3.2c0,0.1,0,0.2-0.1,0.4c-0.1,0.1-0.2,0.2-0.3,0.2c-0.2,0-0.3-0.1-0.4-0.3c-0.1-0.2-0.4-2.1-0.4-4.5h-0.1
		c0,0.1-0.1,0.2-0.2,0.3c-0.1,0.2-0.3,0.3-0.5,0.3s-0.3-0.1-0.4-0.2c0-0.1-0.1-0.1-0.1-0.2c-0.3,0.1-0.5,0.3-0.7,0.5
		c0,0.1,0,0.2,0,0.2c0.1,0.3,0.2,1-0.7,2.7c-0.1,0.2-0.3,0.4-0.6,0.4c-0.2,0-0.4-0.1-0.5-0.2c0,0,0-0.1-0.1-0.1
		c-0.1,0.3-0.2,0.6-0.2,0.8c-0.1,0.3-0.3,0.4-0.5,0.4s-0.4-0.2-0.5-0.3c-0.1-0.3-0.2-0.9-0.3-1.5c0-0.1,0-0.2,0-0.3
		c-0.2,0-0.4,0.1-0.6,0.2c-1.5,0.5-3.3,0-4.8,0.6c-0.3,0.1-0.8,0.5-0.9,0.9c-0.9,1.5,1.2,1.6,2,2c0.4,0.2,0.8,0.7,1.1,0.8
		c0.6,0.3,1.3,0.1,1.9,0c1.3-0.2,2.9-0.3,4.3,0c0.7,0.2,1,0.4,1.8,0.4c0.9,0,1.9,0,2.9,0c1.6-0.1,2.8-1.1,4.4-1.1
		c1.2,0,3.5,0.1,3.9-1.4C-243.1,434.5-244.8,433.9-245.7,433.6z"/>
	<path id="XMLID_1384_" d="M-251.6,427.2l0.1-0.1c0.1-0.2,0.1-0.3,0.2-0.5c0.4-0.9,0.2-1.7-0.2-2.9c0-0.2-0.1-0.4-0.2-0.6V423
		c-1.5,2.5-1.9,5.5-1.9,7.8l0,0v0.1c0,0,0,0.1,0,0.2s0,0.2,0,0.3c0,0,0,0.1,0,0.2s0,0.2,0,0.3c0,0,0,0.1,0,0.2s0,0.2,0,0.2
		s0,0.1,0,0.2c0,0.1,0,0.2,0,0.2s0,0.1,0,0.2c0,0.1,0,0.2,0,0.2s0,0.1,0,0.2s0,0.1,0,0.2c0,0,0,0.1,0,0.2s0,0.1,0,0.2s0,0.1,0,0.2
		c0,0,0,0.1,0,0.2s0,0.1,0,0.2v0.1v0.1v0.1v0.1c0,0,0,0,0,0.1v0.1c0,0,0,0,0,0.1s0,0,0,0.1l0,0c0,0,0,0,0,0.1l0,0l0,0l0,0l0,0l0,0
		l0,0l0,0c0,0,0-0.1,0-0.2l0,0c0,0,0-0.1,0-0.2c0,0,0,0,0-0.1c0-0.1,0-0.2,0-0.2l0,0c0-0.1,0-0.2,0-0.2s0,0,0-0.1c0-0.1,0-0.1,0-0.2
		v-0.1c0-0.1,0-0.2,0-0.3l0,0c0-0.1,0-0.2,0-0.3v-0.1c0-0.1,0-0.2,0-0.2v-0.1c0-0.1,0-0.2,0-0.3l0,0c0-0.1,0-0.2,0.1-0.3v-0.1
		c0-0.1,0-0.1,0-0.2v-0.1c0-0.1,0-0.2,0.1-0.2l0,0c0.1-0.4,0.3-0.8,0.4-1C-251.7,429.4-252.8,428.2-251.6,427.2z"/>
	<path id="XMLID_1383_" d="M-242.5,417.1c-0.2-0.1-0.5-0.1-0.7-0.1c-0.6,0-1.3,0.2-1.9,0.5l0,0c0,0.1-0.1,0.2-0.1,0.3l0,0
		c0,0.1-0.1,0.2-0.1,0.3l0,0c0,0.1-0.1,0.2-0.1,0.2l0,0c0,0.1-0.1,0.2-0.2,0.2c-0.5,0.5-0.9,1.1-1.3,1.6c-0.6,0.7-1,1.4-1.4,2
		c-0.3,0.6-0.5,1-0.5,1.3c0,0,0,0.1,0,0.2c0.4-0.1,0.8-0.2,1.2-0.4c0.8-0.5,1.5-2,2.8-2.6C-243.8,420-240,418-242.5,417.1z"/>
</g>
</svg>
